<svg xmlns="http://www.w3.org/2000/svg" xmlns:xlink="http://www.w3.org/1999/xlink" viewBox="0 0 300 300">
  <defs>
    <style>
      .bf8d6e0c-d79f-4b24-b30b-23ae9f860829 {
        fill: none;
      }

      .e6d61a3a-926f-446c-8f80-528642aef17c {
        isolation: isolate;
      }

      .a23ccdb9-7f20-4e1f-9002-395bccc69199 {
        clip-path: url(#ea5559e5-5919-41aa-b048-76dd59da5cc1);
      }

      .b8f4b902-abf7-4bfd-bf9d-81c063c1c5c4, .f9a44945-e55a-4182-a553-3dead1a6dc3b {
        fill: #fff2cc;
      }

      .bcb06524-9973-4336-985b-8a71108205c7 {
        fill: #fc3;
      }

      .a486e3c3-3d9e-4452-949f-ad18aa651647, .afe6d164-f4fd-4825-8dd6-bbebd173fe78, .bcb06524-9973-4336-985b-8a71108205c7, .f9a44945-e55a-4182-a553-3dead1a6dc3b {
        stroke: #222;
        stroke-linecap: round;
        stroke-linejoin: round;
        stroke-width: 2px;
      }

      .afe6d164-f4fd-4825-8dd6-bbebd173fe78 {
        fill: #222;
      }

      .a486e3c3-3d9e-4452-949f-ad18aa651647 {
        fill: #f9eccb;
      }
    </style>
    <clipPath id="ea5559e5-5919-41aa-b048-76dd59da5cc1">
      <polygon class="bf8d6e0c-d79f-4b24-b30b-23ae9f860829" points="-26.77 200 149.42 97.61 326.77 200 150.58 302.39 -26.77 200"/>
    </clipPath>
  </defs>
  <g id="f0721bac-66b1-4210-8f78-34f14853c207" data-name="BASE">
    <g class="e6d61a3a-926f-446c-8f80-528642aef17c">
      <g class="a23ccdb9-7f20-4e1f-9002-395bccc69199">
        <path class="b8f4b902-abf7-4bfd-bf9d-81c063c1c5c4" d="M238.09,148.8c-49-28.27-128.11-28.27-176.77,0s-48.39,74.11.58,102.38,128.12,28.28,176.77,0,48.4-74.12-.58-102.4"/>
      </g>
    </g>
  </g>
  <g id="f6e870af-9a7f-40b4-ad05-1c4db0c69735" data-name="ESCENA">
    <g>
      <polygon class="bcb06524-9973-4336-985b-8a71108205c7" points="129.84 94.05 134.51 92.31 157.41 119.86 151.68 121.94 129.84 94.05"/>
      <path class="afe6d164-f4fd-4825-8dd6-bbebd173fe78" d="M135.38,110.74l15,8.61c5.9,3.38,12.66-1.32,12.16-8.47l-.05-.71a9.93,9.93,0,0,0-4.8-7.91l-16.43-9.42c-5.71-3.28-12.24,1.28-11.76,8.2h0A12.17,12.17,0,0,0,135.38,110.74Z"/>
      <path class="bcb06524-9973-4336-985b-8a71108205c7" d="M157.93,112.58l-.05-.71a9.94,9.94,0,0,0-4.79-7.91l-16.43-9.42c-5.71-3.28-12.25,1.28-11.77,8.2h0a13,13,0,0,0,.26,1.75l-4.42,7.7a1.11,1.11,0,0,0,1.14,1.64l8.84-1.43.07,0,15,8.61C151.68,124.43,158.43,119.73,157.93,112.58Z"/>
      <path class="f9a44945-e55a-4182-a553-3dead1a6dc3b" d="M146.4,110.36a5.07,5.07,0,0,0,2.17,4.35c1.3.75,2.42,0,2.52-1.65a5.07,5.07,0,0,0-2.17-4.35C147.62,108,146.49,108.71,146.4,110.36Z"/>
      <path class="f9a44945-e55a-4182-a553-3dead1a6dc3b" d="M138.7,106.24a5,5,0,0,0,2.17,4.35c1.29.74,2.42,0,2.52-1.65a5.08,5.08,0,0,0-2.18-4.35C139.92,103.84,138.79,104.59,138.7,106.24Z"/>
      <path class="f9a44945-e55a-4182-a553-3dead1a6dc3b" d="M131.73,102.56a5.08,5.08,0,0,0,2.18,4.35c1.29.74,2.42,0,2.51-1.65a5,5,0,0,0-2.17-4.35C133,100.16,131.83,100.91,131.73,102.56Z"/>
    </g>
    <g>
      <path class="afe6d164-f4fd-4825-8dd6-bbebd173fe78" d="M88,167.42a18.4,18.4,0,0,1,6-1.61c1.17,0,9.67,5.21,10.16,5.93,1.1,1.62-.51,3.4-.51,3.4h0c-.38.72-1.27,1.3-3.19,1.13l-14.12-3.73v-4.75A9.94,9.94,0,0,0,88,167.42Z"/>
      <path class="afe6d164-f4fd-4825-8dd6-bbebd173fe78" d="M82.73,167a18.05,18.05,0,0,0-6.08,1.49c-1,.57-6,9.23-6,10.1-.18,1.94,2.08,2.73,2.08,2.73h0c.69.45,1.74.53,3.34-.54l10.58-10.07-2.29-4.16A11,11,0,0,1,82.73,167Z"/>
      <path class="afe6d164-f4fd-4825-8dd6-bbebd173fe78" d="M79,145s14.35-8.27,19.44-7.71,6.24,2.76,6.69,4.17-21,19.76-32,19.63l-4.18,1.22s-17.43,5.44-18,1.24c-.55-4.41,6.71-11.21,10.25-13.14S79,145,79,145Z"/>
      <path class="bcb06524-9973-4336-985b-8a71108205c7" d="M104.35,141.51s-5.66-5.27-15.83,10.94-11.2,18.14-11.2,18.14l10.43-2.06S109.5,145.37,104.35,141.51Z"/>
      <path class="bcb06524-9973-4336-985b-8a71108205c7" d="M51,163.53s2.26-5.44,10.87-2.95c9.91,2.87,26.92,5.57,26.92,5.57s.86,6-.58,7.27c-5.2.75-33.43.39-37.21-5.77A4.25,4.25,0,0,1,51,163.53Z"/>
      <path class="f9a44945-e55a-4182-a553-3dead1a6dc3b" d="M87.84,119.55,91.72,130A3.45,3.45,0,0,0,97,131.9l4.24-2.87.37,5.64-6.16,4.22a4.68,4.68,0,0,1-6.74-1.63C86.37,133,83.25,127.2,83.25,127S87.84,119.55,87.84,119.55Z"/>
      <path class="bcb06524-9973-4336-985b-8a71108205c7" d="M85.6,113.37l6.82,12.79c-1.11,4.45-3.52,6.71-6.57,7.91l-2.59-17.3Z"/>
      <path class="bcb06524-9973-4336-985b-8a71108205c7" d="M86.09,143.94c-1.59-10.41.79-10.55,1.75-18.81,0-13.17-5-18-13.27-15l-3.43.91c-10,5.39-15.1,5.12-13.31,15.72l1.55,20.48C59.38,159.19,86.73,158,86.09,143.94Z"/>
      <polygon class="afe6d164-f4fd-4825-8dd6-bbebd173fe78" points="64.44 130.75 60.12 148.68 59.6 150.43 58.97 141.79 64.44 130.75"/>
      <path class="bcb06524-9973-4336-985b-8a71108205c7" d="M94,138.35l5.94-1.94a1.25,1.25,0,0,0,.8-.94l2-11.41c.08-.44-.16-.72-.53-.63l-6.14,1.44a1.25,1.25,0,0,0-.8.94l-2,11.36a.72.72,0,0,0,.24.65Z"/>
      <path class="bcb06524-9973-4336-985b-8a71108205c7" d="M99.25,128.16s1.44,7.73,1.51,7.3l2.48-11.28-.65-.69a.41.41,0,0,0-.38-.07l-6.14,1.44a.94.94,0,0,0-.5.33Z"/>
      <path class="bcb06524-9973-4336-985b-8a71108205c7" d="M94.44,138.47l6.12-1.45a1.2,1.2,0,0,0,.79-1l2-11.4c.07-.44-.16-.72-.53-.64l-6.12,1.45a1.21,1.21,0,0,0-.78,1l-2,11.41C93.85,138.27,94.07,138.55,94.44,138.47Z"/>
      <path class="bcb06524-9973-4336-985b-8a71108205c7" d="M94.79,138.39l5.94-1.41a1.16,1.16,0,0,0,.76-.92L103.4,125c.08-.42-.15-.69-.5-.61L97,125.79a1.17,1.17,0,0,0-.76.93l-1.91,11.06C94.21,138.2,94.43,138.47,94.79,138.39Z"/>
      <path class="f9a44945-e55a-4182-a553-3dead1a6dc3b" d="M101,134.44h0a1.76,1.76,0,0,0,2-1.41l.49-2.78a1.75,1.75,0,0,0-1.41-2h0a1.76,1.76,0,0,0-2,1.41l-.49,2.78A1.75,1.75,0,0,0,101,134.44Z"/>
      <path class="f9a44945-e55a-4182-a553-3dead1a6dc3b" d="M74.24,147.4,72.51,147a2.46,2.46,0,0,0-2.4.76c-4.6,1-14.21,2.58-13.24-1.61,1.42-6.19,12.71-23,2.26-28,0,0-7.2,8.94-9.21,27.8A7.51,7.51,0,0,0,59.17,154l11-2.88a2.41,2.41,0,0,0,1.17.67l1.72.41a2.48,2.48,0,0,0,3-1.82h0A2.48,2.48,0,0,0,74.24,147.4Z"/>
      <path class="bcb06524-9973-4336-985b-8a71108205c7" d="M97.09,128.33h0a.72.72,0,0,0,.45-.53l.22-1.24c0-.24-.09-.38-.3-.32h0a.76.76,0,0,0-.45.53L96.79,128C96.75,128.25,96.88,128.39,97.09,128.33Z"/>
      <path class="bcb06524-9973-4336-985b-8a71108205c7" d="M78,114.18c.31,1.85-.5,4-3.59,4.63-3.83.82-6.49-4-5.16-5.35s1-.77,3.66-1.56S77.45,111,78,114.18Z"/>
      <g>
        <path class="f9a44945-e55a-4182-a553-3dead1a6dc3b" d="M72.91,117l.37.15a2.49,2.49,0,0,0,3.25-1.33l3-7.1a2.49,2.49,0,0,0-1.33-3.25l-.38-.15a2.49,2.49,0,0,0-3.24,1.34L70.69,113C70.16,114.28,71.65,116.43,72.91,117Z"/>
        <path class="bcb06524-9973-4336-985b-8a71108205c7" d="M75.18,111.09a7.37,7.37,0,0,1-2.38.64c-.7-.09-5.47-6.7-.77-12.13,3-3.44,9.2.89,9.2.89Z"/>
        <path class="f9a44945-e55a-4182-a553-3dead1a6dc3b" d="M83.76,98.68c-.67-1.74-2.32-2.42-4.44-1.54-3.07,1.28-7,4.65-7.45,8.45-.36,2.79-1,3.67,1.13,4.15.65,1.81,4.5,3.9,6.65,3,3.08-1.29,6-5.4,6.47-9.2C86.47,100.82,85.48,99,83.76,98.68Z"/>
        <path class="bcb06524-9973-4336-985b-8a71108205c7" d="M71.09,106.91A1.68,1.68,0,1,0,73,105.46,1.69,1.69,0,0,0,71.09,106.91Z"/>
        <path class="bcb06524-9973-4336-985b-8a71108205c7" d="M84.84,99.14S81.3,92,74.85,95.3c-7.32,3.72-3.54,9.94-3.54,9.94,8.65,4,10.47-4.68,10.47-4.68,3.52,1.65,3.23,6.57,3.23,6.57C87,102,84.84,99.14,84.84,99.14Z"/>
        <path class="bcb06524-9973-4336-985b-8a71108205c7" d="M77.56,113.18A6.79,6.79,0,0,1,73,109s.93,5.1,3.73,6.17Z"/>
      </g>
      <path class="bcb06524-9973-4336-985b-8a71108205c7" d="M65.21,127.83l-5,14.19c-.71,1.1-11-4.08-10.07-5.77.15-.3,5.6-17.43,11.46-20.2C66.36,113.8,67.84,121.37,65.21,127.83Z"/>
    </g>
    <g>
      <path class="bcb06524-9973-4336-985b-8a71108205c7" d="M231,122l-3.21-1.59-3.72.93,3.54,4.94,5.17-.68A4.51,4.51,0,0,0,231,122Z"/>
      <path class="bcb06524-9973-4336-985b-8a71108205c7" d="M181.07,183l6.19-5a8.29,8.29,0,0,1,4.25.34,1.86,1.86,0,0,1,1.23,1.4l.2,1.31c.36,1.9.21,2.13-.92,2.55l-6.73,2.47a4.85,4.85,0,0,1-4-.66l-.3-.22C179.89,184.39,179.94,183.41,181.07,183Z"/>
      <path class="bcb06524-9973-4336-985b-8a71108205c7" d="M205.87,151.45c-1.24,0-2.27,0-3.15.06l-.81-.26a5,5,0,0,0-6.33,3.18l-7.94,23.39c-.75,2.61,3.12,3.79,4.63,1.23l11.32-15.66c5.49,3.84,12.53,7.58,16.41,8.25,7.4,1.29,10.28-11.48,10.28-11.48S213.53,151.35,205.87,151.45Z"/>
      <path class="bcb06524-9973-4336-985b-8a71108205c7" d="M171.17,188.59l7.75,1.84a8.52,8.52,0,0,1,2.32,3.59,1.84,1.84,0,0,1-.37,1.82l-.91,1c-1.28,1.44-1.56,1.47-2.58.82l-6.07-3.83a4.83,4.83,0,0,1-1.92-3.58v-.38C169.34,188.5,170.15,187.94,171.17,188.59Z"/>
      <path class="bcb06524-9973-4336-985b-8a71108205c7" d="M236.2,153.78s-25.08,13.73-30,19.9h0l-27.37,16.92c-1.85.75.27,4.61,2.27,3.78l34-13.61h0c7.6-2.32,17.19-6.59,20.72-9.67C241.86,165.86,236.2,153.78,236.2,153.78Z"/>
      <path class="bcb06524-9973-4336-985b-8a71108205c7" d="M230.63,107.1s5.71-2.11,7.45,2.86-.86,7.39,1.76,10.53,5.44,11.19,1.21,12.37-6.54-.6-6.15-4,.94-3.83-1.12-6.5S230.63,107.1,230.63,107.1Z"/>
      <path class="bcb06524-9973-4336-985b-8a71108205c7" d="M204,141.65s7.06,1.09,9.61-10c2.5-10.86,8.19-12,10.26-10.41S219,132.5,219,132.5s-2.93,10.9-7.36,13.9C207.35,149.28,204,141.65,204,141.65Z"/>
      <path class="afe6d164-f4fd-4825-8dd6-bbebd173fe78" d="M218.35,157.45c-.82-6.85-.74-14.78-1.75-23.24,0-10.17,0-13,7.88-13.73l2.12.56a14.58,14.58,0,0,1,2.92,1.13c9.91,5.11,12,6.21,11.52,12.13,0,3-1.74-.18-2.18,1.82-.85,3.85-2.29,12.88-.63,19.76.34,1.39,1.31,3.43.17,4.3C233.48,163.92,220.3,161.61,218.35,157.45Z"/>
      <path class="bcb06524-9973-4336-985b-8a71108205c7" d="M231,122s3.46,3.65-4.17,11.25c-6.5,6.49.39,28.84.39,28.84,3.43,1.44,7.56.48,11.41-1.08,0,0,3.69-18.1,3-25.77C241.09,128.46,238,124.18,231,122Z"/>
      <polygon class="bcb06524-9973-4336-985b-8a71108205c7" points="234.44 135.58 240.85 147.66 239.16 158.16 234.44 135.58"/>
      <path class="f9a44945-e55a-4182-a553-3dead1a6dc3b" d="M251.56,166.86l-1.92-.13-5.78-24.87-6.46.73,8.33,26.24h0s0,0,0,.08a2.43,2.43,0,0,0,2.26,2.58l3.25.22a2.44,2.44,0,0,0,2.59-2.27h0A2.45,2.45,0,0,0,251.56,166.86Z"/>
      <path class="bcb06524-9973-4336-985b-8a71108205c7" d="M234,132.85h0a19.21,19.21,0,0,0,1,4.36l4.29,12.51c2.7.89,4.79.22,6-2.67a151.91,151.91,0,0,0-5.1-18.69,2.49,2.49,0,0,0-3.35-1.63h0A6.1,6.1,0,0,0,234,132.85Z"/>
      <path class="bcb06524-9973-4336-985b-8a71108205c7" d="M225.9,121.77s-6.08,1.86-4.57,12.09c.75,5.07-2.75,15.24-1.67,25.13l-3.68-4.2s-1.67-27,2.44-32.2,7.48-3.06,7.48-3.06Z"/>
      <path class="bcb06524-9973-4336-985b-8a71108205c7" d="M226,122a7,7,0,0,0,2,1.31c.66.13,7.71-5.8,5-12.23-1.72-4.07-9.42-.7-9.42-.7Z"/>
      <path class="bcb06524-9973-4336-985b-8a71108205c7" d="M228.36,127.35l-.34.06a2.17,2.17,0,0,1-2.53-1.71l-1.25-6.58A2.16,2.16,0,0,1,226,116.6l.35-.07a2.16,2.16,0,0,1,2.52,1.72l2.13,6.14C231.18,125.56,229.53,127.13,228.36,127.35Z"/>
      <path class="bcb06524-9973-4336-985b-8a71108205c7" d="M245.77,149.14s-1.7,2.59-6,2.64l-.54-2.06s4.74-1.2,6-2.67Z"/>
      <path class="bcb06524-9973-4336-985b-8a71108205c7" d="M238.61,161l.6-2.59s-10,2.44-12.91.38l.9,3.29S231.63,164.85,238.61,161Z"/>
      <path class="bcb06524-9973-4336-985b-8a71108205c7" d="M231,122s2.62,3.29-2.38,9.31c0,0,6.73-1.25,4.28-8.62A4,4,0,0,0,231,122Z"/>
      <path class="bcb06524-9973-4336-985b-8a71108205c7" d="M221.17,129.16a8.68,8.68,0,0,1,1.05-8.19l2.91.77A12.7,12.7,0,0,0,221.17,129.16Z"/>
      <path class="bcb06524-9973-4336-985b-8a71108205c7" d="M217.66,118.6s2.39-.7,4.85-5.32-1.69-5.79-1.69-5.79S213.83,112.26,217.66,118.6Z"/>
      <path class="bcb06524-9973-4336-985b-8a71108205c7" d="M235.65,109.15a2.91,2.91,0,1,1-3-3.23A3.1,3.1,0,0,1,235.65,109.15Z"/>
      <path class="bcb06524-9973-4336-985b-8a71108205c7" d="M224.89,122.81a9.94,9.94,0,0,0,4.38-3.71s-1.3,5.29-3.87,5.7Z"/>
      <path class="f9a44945-e55a-4182-a553-3dead1a6dc3b" d="M226.35,107.84c-1.69-1.44-3.42-1.31-4.56.09-1.69-.21-2,1.26-2.86,3.78-1.7,4.76.62,11.88,3.24,11.77,4-.17,7.14-3.2,7.65-5.9A10.88,10.88,0,0,0,226.35,107.84Z"/>
      <path class="bcb06524-9973-4336-985b-8a71108205c7" d="M226.62,111s-1.56,6.13,4.58,6.68c0,0,5.86-5-.31-11.22-5.44-5.44-11.37.6-11.37.6Z"/>
      <path class="bcb06524-9973-4336-985b-8a71108205c7" d="M230.85,116.88a2,2,0,0,1-3.12,1.9,1.89,1.89,0,0,1-.86-1.27,2,2,0,0,1,2.9-2.22A2,2,0,0,1,230.85,116.88Z"/>
      <path class="bcb06524-9973-4336-985b-8a71108205c7" d="M228.85,110.92s-14.48-1.57-11.19,7.68c0,0-4.91-5.62.82-11.11S228.85,110.92,228.85,110.92Z"/>
      <path class="bcb06524-9973-4336-985b-8a71108205c7" d="M219.45,155.34l.25,4s-3.37-1.68-4-4.92V151S216.7,154.67,219.45,155.34Z"/>
      <polygon class="f9a44945-e55a-4182-a553-3dead1a6dc3b" points="193.47 129.13 209.9 136.86 218.93 158.99 202.5 151.26 193.47 129.13"/>
      <rect class="f9a44945-e55a-4182-a553-3dead1a6dc3b" x="196.65" y="139.08" width="4.86" height="6.61" rx="2.43" transform="translate(434.51 209.32) rotate(160.29)"/>
    </g>
    <g>
      <polygon class="bcb06524-9973-4336-985b-8a71108205c7" points="125.15 196.4 127.86 196.4 127.86 194.38 125.15 193.69 125.15 196.4"/>
      <polygon class="bcb06524-9973-4336-985b-8a71108205c7" points="59.74 203.75 62.45 203.75 62.45 201.04 59.74 201.59 59.74 203.75"/>
      <path class="bcb06524-9973-4336-985b-8a71108205c7" d="M59.93,203.39l20-11.55.15,0L99.9,180.35a.35.35,0,0,1,.37,0l27.41,15.82a.38.38,0,0,1,0,.65l-20,11.54a.28.28,0,0,1-.15,0L87.71,219.85a.35.35,0,0,1-.37,0L59.93,204A.37.37,0,0,1,59.93,203.39Z"/>
      <rect class="bcb06524-9973-4336-985b-8a71108205c7" x="79.9" y="190.12" width="0.79" height="0.53" transform="translate(160.59 380.77) rotate(180)"/>
      <path class="bcb06524-9973-4336-985b-8a71108205c7" d="M107.69,206.25l20-11.55a.37.37,0,0,0,0-.64l-27.41-15.82a.35.35,0,0,0-.37,0l-20,11.54a.37.37,0,0,0,0,.64l27.42,15.83A.4.4,0,0,0,107.69,206.25Z"/>
      <path class="bcb06524-9973-4336-985b-8a71108205c7" d="M87.71,217.74l20-11.54a.37.37,0,0,0,0-.64L80.29,189.73a.4.4,0,0,0-.37,0l-20,11.55a.37.37,0,0,0,0,.64l27.41,15.82A.35.35,0,0,0,87.71,217.74Z"/>
      <path class="bcb06524-9973-4336-985b-8a71108205c7" d="M121.05,196.48l-13.21,8.22L100,198.61S115.44,192.32,121.05,196.48Z"/>
      <path class="f9a44945-e55a-4182-a553-3dead1a6dc3b" d="M107.84,204.7c1.14-4.27,9-6,18-10.41.29-.16.26-.46-.08-.65l-24.44-14.11a1.23,1.23,0,0,0-1.13-.05c-11.2,3.32-18.18,6.76-18,10.41Z"/>
      <path class="f9a44945-e55a-4182-a553-3dead1a6dc3b" d="M107.84,204.7c-.82-5,7.12-7.52,15.15-12.63a.89.89,0,0,0-.09-1.16L99.23,177.26a1,1,0,0,0-1,0c-10.14,4.05-16.37,8.56-16,12.48Z"/>
      <path class="f9a44945-e55a-4182-a553-3dead1a6dc3b" d="M107.84,204.7,88.28,216.33,63.06,202.39h0a3.13,3.13,0,0,1,1.43-3l15.84-10.11,26.54,14.75Z"/>
      <path class="f9a44945-e55a-4182-a553-3dead1a6dc3b" d="M107.84,204.7s-3-1.36-5,.07-14.17,8.42-14.17,8.42L62.18,196.56s12.08-12.13,20-6.82Z"/>
    </g>
    <g>
      <g>
        <g>
          <path class="bcb06524-9973-4336-985b-8a71108205c7" d="M138.41,251.76v.06l-25-14.43a.34.34,0,0,0-.34,0L94.41,248.16c-.23.13,2.21,0,0,.6L120,263.53a.34.34,0,0,0,.34,0L139,252.75a.31.31,0,0,0,.16-.24h0v-.75Z"/>
          <rect class="bcb06524-9973-4336-985b-8a71108205c7" x="94.29" y="247.57" width="0.68" height="0.68" transform="translate(189.27 495.82) rotate(180)"/>
        </g>
        <path class="bcb06524-9973-4336-985b-8a71108205c7" d="M120.33,262.89,139,252.12a.35.35,0,0,0,0-.6l-25.58-14.77a.34.34,0,0,0-.34,0L94.41,247.53a.48.48,0,0,1,0,.59L120,262.89A.3.3,0,0,0,120.33,262.89Z"/>
        <polygon class="f9a44945-e55a-4182-a553-3dead1a6dc3b" points="137.45 244.19 137.45 245.67 137.45 249.91 137.45 251.38 121.2 260.8 121.2 259.32 121.2 255.09 121.2 253.61 137.45 244.19"/>
        <g>
          <path class="bcb06524-9973-4336-985b-8a71108205c7" d="M139.17,243.54h-.76v0l-25-14.43a.34.34,0,0,0-.34,0L94.41,239.91c.26.15.45.47,0,.6L120,255.28a.34.34,0,0,0,.34,0L139,244.51a.35.35,0,0,0,.18-.3h0Z"/>
          <rect class="bcb06524-9973-4336-985b-8a71108205c7" x="94.24" y="239.68" width="0.75" height="0.5" transform="translate(189.23 479.86) rotate(180)"/>
        </g>
        <path class="bcb06524-9973-4336-985b-8a71108205c7" d="M120.33,254.65,139,243.87a.34.34,0,0,0,0-.59l-25.58-14.77a.34.34,0,0,0-.34,0L94.41,239.28a.35.35,0,0,0,0,.6L120,254.65A.34.34,0,0,0,120.33,254.65Z"/>
        <path class="bcb06524-9973-4336-985b-8a71108205c7" d="M120,254.67v8.9L94.56,248.85c-.26-.15-.33-.64-.32-.94l.05-2.62v-1.86l-.05-3.86Z"/>
      </g>
      <g>
        <g>
          <path class="bcb06524-9973-4336-985b-8a71108205c7" d="M138.41,241.4v.06l-25-14.43a.34.34,0,0,0-.34,0L94.41,237.8c-.23.14,2.21,0,0,.6L120,253.17a.34.34,0,0,0,.34,0L139,242.4a.32.32,0,0,0,.16-.24h0v-.76Z"/>
          <rect class="bcb06524-9973-4336-985b-8a71108205c7" x="94.29" y="237.21" width="0.68" height="0.68" transform="translate(189.27 475.11) rotate(180)"/>
        </g>
        <path class="bcb06524-9973-4336-985b-8a71108205c7" d="M120.33,252.54,139,241.77a.35.35,0,0,0,0-.6L113.41,226.4a.34.34,0,0,0-.34,0L94.41,237.17a.49.49,0,0,1,0,.6L120,252.54A.34.34,0,0,0,120.33,252.54Z"/>
        <polygon class="f9a44945-e55a-4182-a553-3dead1a6dc3b" points="137.45 233.84 137.45 235.32 137.45 239.55 137.45 241.03 121.2 250.45 121.2 248.97 121.2 244.74 121.2 243.26 137.45 233.84"/>
        <g>
          <path class="bcb06524-9973-4336-985b-8a71108205c7" d="M120.33,244.92,139,234.15a.35.35,0,0,0,0-.6l-25.58-14.77a.34.34,0,0,0-.34,0L94.41,229.56c.26.14.45.47,0,.6L120,244.92A.3.3,0,0,0,120.33,244.92Z"/>
          <rect class="bcb06524-9973-4336-985b-8a71108205c7" x="138.41" y="233.18" width="0.75" height="0.67" transform="translate(277.58 467.03) rotate(180)"/>
          <rect class="bcb06524-9973-4336-985b-8a71108205c7" x="94.24" y="229.32" width="0.75" height="0.5" transform="translate(189.23 459.15) rotate(180)"/>
        </g>
        <path class="bcb06524-9973-4336-985b-8a71108205c7" d="M120.33,244.29,139,233.52a.35.35,0,0,0,0-.6l-25.58-14.77a.34.34,0,0,0-.34,0L94.41,228.93a.34.34,0,0,0,0,.59L120,244.29A.34.34,0,0,0,120.33,244.29Z"/>
        <path class="bcb06524-9973-4336-985b-8a71108205c7" d="M120,244.31v8.91L94.56,238.49c-.26-.15-.33-.64-.32-.94l.05-2.61v-1.86l-.05-3.86Z"/>
      </g>
    </g>
    <g>
      <g>
        <g>
          <path class="bcb06524-9973-4336-985b-8a71108205c7" d="M172.84,167.72v.07l-25-14.44a.36.36,0,0,0-.35,0l-18.66,10.77c-.23.14,2.21,0,0,.6l25.58,14.77a.36.36,0,0,0,.35,0l18.66-10.77a.33.33,0,0,0,.15-.24h0v-.76Z"/>
          <rect class="bcb06524-9973-4336-985b-8a71108205c7" x="128.72" y="163.53" width="0.68" height="0.68" transform="translate(258.11 327.75) rotate(180)"/>
        </g>
        <path class="bcb06524-9973-4336-985b-8a71108205c7" d="M154.76,178.86l18.66-10.77a.35.35,0,0,0,0-.6l-25.58-14.77a.36.36,0,0,0-.35,0l-18.66,10.77a.49.49,0,0,1,0,.6l25.58,14.77A.36.36,0,0,0,154.76,178.86Z"/>
        <polygon class="f9a44945-e55a-4182-a553-3dead1a6dc3b" points="171.87 160.16 171.87 161.64 171.87 165.87 171.87 167.35 155.62 176.77 155.62 175.29 155.62 171.06 155.62 169.58 171.87 160.16"/>
        <g>
          <path class="bcb06524-9973-4336-985b-8a71108205c7" d="M173.59,159.5h-.75v0l-25-14.43a.32.32,0,0,0-.35,0l-18.66,10.77c.26.14.45.47,0,.6l25.58,14.77a.36.36,0,0,0,.35,0l18.66-10.78a.34.34,0,0,0,.17-.3h0Z"/>
          <rect class="bcb06524-9973-4336-985b-8a71108205c7" x="128.66" y="155.65" width="0.75" height="0.5" transform="translate(258.07 311.79) rotate(180)"/>
        </g>
        <path class="bcb06524-9973-4336-985b-8a71108205c7" d="M154.76,170.61l18.66-10.77a.35.35,0,0,0,0-.6l-25.58-14.77a.36.36,0,0,0-.35,0l-18.66,10.78a.34.34,0,0,0,0,.59l25.58,14.77A.36.36,0,0,0,154.76,170.61Z"/>
        <path class="bcb06524-9973-4336-985b-8a71108205c7" d="M154.39,170.63v8.91L129,164.81c-.26-.15-.33-.63-.32-.94l.06-2.61V159.4l-.06-3.86Z"/>
      </g>
      <g>
        <g>
          <path class="bcb06524-9973-4336-985b-8a71108205c7" d="M172.84,157.37v.06l-25-14.43a.32.32,0,0,0-.35,0l-18.66,10.77c-.23.13,2.21,0,0,.6l25.58,14.77a.36.36,0,0,0,.35,0l18.66-10.78a.3.3,0,0,0,.15-.24h0v-.75Z"/>
          <rect class="bcb06524-9973-4336-985b-8a71108205c7" x="128.72" y="153.18" width="0.68" height="0.68" transform="translate(258.11 307.04) rotate(180)"/>
        </g>
        <path class="bcb06524-9973-4336-985b-8a71108205c7" d="M154.76,168.5l18.66-10.77a.35.35,0,0,0,0-.6l-25.58-14.77a.36.36,0,0,0-.35,0l-18.66,10.78a.48.48,0,0,1,0,.59l25.58,14.77A.32.32,0,0,0,154.76,168.5Z"/>
        <polygon class="f9a44945-e55a-4182-a553-3dead1a6dc3b" points="171.87 149.8 171.87 151.28 171.87 155.51 171.87 156.99 155.62 166.41 155.62 164.93 155.62 160.7 155.62 159.22 171.87 149.8"/>
        <g>
          <path class="bcb06524-9973-4336-985b-8a71108205c7" d="M154.76,160.89l18.66-10.77a.35.35,0,0,0,0-.6l-25.58-14.77a.36.36,0,0,0-.35,0l-18.66,10.77c.26.15.45.47,0,.6l25.58,14.77A.36.36,0,0,0,154.76,160.89Z"/>
          <rect class="bcb06524-9973-4336-985b-8a71108205c7" x="172.84" y="149.15" width="0.75" height="0.67" transform="translate(346.42 298.96) rotate(180)"/>
          <rect class="bcb06524-9973-4336-985b-8a71108205c7" x="128.66" y="145.29" width="0.75" height="0.5" transform="translate(258.07 291.08) rotate(180)"/>
        </g>
        <path class="bcb06524-9973-4336-985b-8a71108205c7" d="M154.76,160.26l18.66-10.78a.34.34,0,0,0,0-.59l-25.58-14.77a.36.36,0,0,0-.35,0l-18.66,10.77a.35.35,0,0,0,0,.6l25.58,14.77A.36.36,0,0,0,154.76,160.26Z"/>
        <path class="bcb06524-9973-4336-985b-8a71108205c7" d="M154.39,160.28v8.9L129,154.46c-.26-.15-.33-.64-.32-.94l.06-2.62V149l-.06-3.86Z"/>
      </g>
    </g>
    <g>
      <path class="bcb06524-9973-4336-985b-8a71108205c7" d="M208.08,201.18c-3.71,5.29-5.82,7.9-12.25,9.16-8.89,1.75-16.21-9.72-22.22-15.82-2.69-2.74,1-7.48,3.78-4.71,4.87,4.94,11.26,9.59,18.59,8,4.89-1,5.9-1,8.71-5,2.23-3.18,6.61,3.29,4.38,6.47Z"/>
      <g>
        <polygon class="bcb06524-9973-4336-985b-8a71108205c7" points="184.4 162.06 187.19 162.7 163.51 208.35 161.17 207.02 180.9 172.3 184.4 162.06"/>
        <path class="bcb06524-9973-4336-985b-8a71108205c7" d="M167.09,169.1a4.06,4.06,0,0,1,3.47-.69c2.13.49,7.32,12.4,7.32,12.4S169,182.5,169,182.12,167.09,169.1,167.09,169.1Z"/>
        <polygon class="bcb06524-9973-4336-985b-8a71108205c7" points="161.17 207.02 178.29 194.77 167.09 169.1 149.97 181.35 161.17 207.02"/>
        <polygon class="bcb06524-9973-4336-985b-8a71108205c7" points="181.44 192.77 197.92 185.47 184.4 162.06 170.09 168.37 181.44 192.77"/>
        <polygon class="bcb06524-9973-4336-985b-8a71108205c7" points="163.51 208.35 180.63 196.1 169.43 170.43 152.3 182.68 163.51 208.35"/>
        <path class="bcb06524-9973-4336-985b-8a71108205c7" d="M163.33,205.58l2.79,0,12.38-10.9L168.57,172a77.35,77.35,0,0,0-15.17,10.85Z"/>
        <polygon class="bcb06524-9973-4336-985b-8a71108205c7" points="180.63 196.1 198.85 187.46 187.19 162.7 169.43 170.43 180.63 196.1"/>
        <path class="bcb06524-9973-4336-985b-8a71108205c7" d="M169.88,171.54c4.49-2,10-4.67,16.22-7.27l.59,1.25h0l10.07,21.34c-6.58,2.78-11.79,6-16.21,7.58l-.58-1.26h0Z"/>
        <path class="f9a44945-e55a-4182-a553-3dead1a6dc3b" d="M156.19,182.87a56.26,56.26,0,0,1,13.25-9.47l9.92,22.74a53.39,53.39,0,0,0-13.24,9.48Z"/>
        <path class="f9a44945-e55a-4182-a553-3dead1a6dc3b" d="M170.16,172c4.75-1.76,9.77-4.5,15.16-6.8l.56,1.18h0l9.41,20a46.4,46.4,0,0,1-15.15,7.08l-.55-1.18h0Z"/>
        <line class="bcb06524-9973-4336-985b-8a71108205c7" x1="169.23" y1="179.04" x2="160.65" y2="184.92"/>
        <line class="bcb06524-9973-4336-985b-8a71108205c7" x1="170.74" y1="182.01" x2="162.16" y2="187.89"/>
        <line class="bcb06524-9973-4336-985b-8a71108205c7" x1="172.25" y1="184.98" x2="163.66" y2="190.86"/>
        <line class="bcb06524-9973-4336-985b-8a71108205c7" x1="173.72" y1="188.8" x2="165.14" y2="194.67"/>
        <line class="bcb06524-9973-4336-985b-8a71108205c7" x1="175.19" y1="192.61" x2="166.61" y2="198.49"/>
        <g>
          <line class="bcb06524-9973-4336-985b-8a71108205c7" x1="183.76" y1="169.5" x2="174.06" y2="174.01"/>
          <line class="bcb06524-9973-4336-985b-8a71108205c7" x1="185.47" y1="173.23" x2="175.77" y2="177.74"/>
          <line class="bcb06524-9973-4336-985b-8a71108205c7" x1="187.19" y1="176.96" x2="177.48" y2="181.47"/>
        </g>
      </g>
      <path class="bcb06524-9973-4336-985b-8a71108205c7" d="M184,233.79s.07,8.57,21.55,14.94l1.3-2-18.19-18.1Z"/>
      <path class="f9a44945-e55a-4182-a553-3dead1a6dc3b" d="M205.15,249l3.51,1.62c2.1,1.88,3,3.08,4.27,2.8l.37-.08c1.29-.29,1.5-1.44.47-2.57l-4-6a3.72,3.72,0,0,0-4.09-.87s-.77.35-1.07,2.77C204.43,248.12,204.32,248.14,205.15,249Z"/>
      <path class="f9a44945-e55a-4182-a553-3dead1a6dc3b" d="M178.52,235.91s-6.73,5.74,22.45,17.5l1.9-3.78-18.48-14.52Z"/>
      <path class="afe6d164-f4fd-4825-8dd6-bbebd173fe78" d="M213.85,223.21l-26.31,1.51s-17.86,10-3.45,15.83l20.11,6.8c4.32,1.5,8.27,1.43,11.2-2.42,2.58-3.39,2.66-11.21.93-14.67Z"/>
      <path class="f9a44945-e55a-4182-a553-3dead1a6dc3b" d="M200.77,253.37l3.52,1.62c2.09,1.88,3,3.08,4.26,2.79l.37-.08c1.29-.28,1.5-1.44.48-2.56l-4-6a3.74,3.74,0,0,0-4.08-.87s-.78.36-1.07,2.78C200.05,252.45,200,252.47,200.77,253.37Z"/>
      <path class="bcb06524-9973-4336-985b-8a71108205c7" d="M196.15,186.39c1.7,4.31,5.1,3.81,7.61.64a12.23,12.23,0,0,0,1.51-12.09c-1.69-4.31-5.11-5.25-7.63-2.09S194.46,182.07,196.15,186.39Z"/>
      <path class="a486e3c3-3d9e-4452-949f-ad18aa651647" d="M205.14,193.67l-2.87-8.31a15.2,15.2,0,0,0,.06-10.39c-1.61-4.09-4.85-5-7.25-2s-4.44,8.55-2.83,12.65a5.62,5.62,0,0,0,5.86,3.84l1.8,6.21a4.14,4.14,0,0,0,4.5,1.92l.36-.15C206,197,205.8,195.25,205.14,193.67Z"/>
      <path class="bcb06524-9973-4336-985b-8a71108205c7" d="M214.09,202.4l2,22.37s.54,6.18-12.42,7.52c-10,1-11.26-6.77-11.84-7.95L188,207.27l-9.21,5.4a29.94,29.94,0,0,1,14.62-18.83c2.22-1.2,5.5-2.62,8.18-3.73,4-1.65,5.76-1,9.36,1.37C212.84,192.74,214.09,202.4,214.09,202.4Z"/>
      <path class="a486e3c3-3d9e-4452-949f-ad18aa651647" d="M160.1,197.6h0a2.24,2.24,0,0,0-1-3l-2-1a2.23,2.23,0,0,0-3,1h0a2.23,2.23,0,0,0,1,3l2.05,1A2.24,2.24,0,0,0,160.1,197.6Z"/>
      <path class="bcb06524-9973-4336-985b-8a71108205c7" d="M197.91,191.66s3.79-2.86,6.58-2.33C204.49,189.33,204.26,193.08,197.91,191.66Z"/>
      <path class="bcb06524-9973-4336-985b-8a71108205c7" d="M194.48,202.18c0,4.92-5.3,8.17-5.73,8.61l-5.65,4.29a8.45,8.45,0,0,1-13.39-1.52l-10.56-13a2.41,2.41,0,0,1,.57-3.55h0a2.42,2.42,0,0,1,2.8.14l11.68,9.22a3.31,3.31,0,0,0,5,.11c3.3-3.64,8.91-9.36,10.71-9.83C194.09,195.57,194.48,200.1,194.48,202.18Z"/>
      <path class="bcb06524-9973-4336-985b-8a71108205c7" d="M216.08,178.54c-.46-3.21-10.07-6.88-10.07-6.88a11.74,11.74,0,0,0-10.53-1.15h0c-2.41.37-4.61,1.51-5.57,2.91-1.55,2.28-.78,7.05,3.74,7.35a3.62,3.62,0,0,1,1.31.35,19.35,19.35,0,0,0,4.85,6.09c.39,1.59.76,3.23.9,4.23.35,2.42,2.68.69,5.94,4.66s6.11-.65,9-1.66,0-5.25,2.94-8.8S216.54,181.75,216.08,178.54Z"/>
    </g>
  </g>
</svg>
