<svg xmlns="http://www.w3.org/2000/svg" xmlns:xlink="http://www.w3.org/1999/xlink" viewBox="0 0 300 300">
  <defs>
    <style>
      .e124b3c9-9b14-4ef2-a93e-85de4a81b207 {
        fill: none;
      }

      .b35893e4-82ff-4fbb-83f5-460fa100cfa6 {
        isolation: isolate;
      }

      .eba7c92e-a17c-4666-9b41-588117bdd4f1 {
        clip-path: url(#ad5e9e04-c412-4fd3-8d93-5dc22d7e22cc);
      }

      .b6adf087-3fb7-4004-93e6-3a8df3777a28, .f1e4993b-ad88-4f88-a624-52a53f233d55 {
        fill: #fff2cc;
      }

      .b9b5ee81-f773-47ce-8026-f8a51b22f07e, .f1e4993b-ad88-4f88-a624-52a53f233d55, .fdfc49c9-df25-4714-8915-dced4c4eba75 {
        stroke: #222;
        stroke-linecap: round;
        stroke-linejoin: round;
        stroke-width: 2px;
      }

      .fdfc49c9-df25-4714-8915-dced4c4eba75 {
        fill: #fc3;
      }

      .b9b5ee81-f773-47ce-8026-f8a51b22f07e {
        fill: #222;
      }
    </style>
    <clipPath id="ad5e9e04-c412-4fd3-8d93-5dc22d7e22cc">
      <polygon class="e124b3c9-9b14-4ef2-a93e-85de4a81b207" points="-26.77 200.01 149.43 97.61 326.77 200 150.57 302.4 -26.77 200.01"/>
    </clipPath>
  </defs>
  <g id="a793f46d-0a4c-416b-ba1b-f83bc7d13dd5" data-name="BASE">
    <g class="b35893e4-82ff-4fbb-83f5-460fa100cfa6">
      <g class="eba7c92e-a17c-4666-9b41-588117bdd4f1">
        <path class="b6adf087-3fb7-4004-93e6-3a8df3777a28" d="M238.1,148.8c-49-28.27-128.11-28.27-176.77,0s-48.4,74.12.57,102.39,128.12,28.27,176.77,0,48.4-74.12-.57-102.4"/>
      </g>
    </g>
  </g>
  <g id="b62462a8-91da-4b18-8f70-c8129be12251" data-name="ESCENA">
    <g>
      <g id="ee3c66f7-eed5-409c-823a-2c3ad77830e7" data-name="LWPOLYLINE">
        <polyline class="f1e4993b-ad88-4f88-a624-52a53f233d55" points="203.33 88.16 144.69 53.26 144.69 188.84 203.33 223.73 203.33 88.16"/>
        <polygon class="f1e4993b-ad88-4f88-a624-52a53f233d55" points="149.94 63.71 150.08 85.92 195.79 113.34 195.65 91.13 149.94 63.71"/>
        <polygon class="fdfc49c9-df25-4714-8915-dced4c4eba75" points="150.84 93.53 150.97 115.74 168.97 125.83 168.84 103.61 150.84 93.53"/>
        <line class="fdfc49c9-df25-4714-8915-dced4c4eba75" x1="195.65" y1="123.06" x2="174.74" y2="110.47"/>
        <line class="fdfc49c9-df25-4714-8915-dced4c4eba75" x1="195.65" y1="129.24" x2="174.74" y2="116.64"/>
        <line class="fdfc49c9-df25-4714-8915-dced4c4eba75" x1="195.65" y1="135.58" x2="174.74" y2="122.99"/>
        <polygon class="fdfc49c9-df25-4714-8915-dced4c4eba75" points="150.84 121.17 150.97 143.38 168.97 153.46 168.84 131.25 150.84 121.17"/>
        <line class="fdfc49c9-df25-4714-8915-dced4c4eba75" x1="195.65" y1="150.7" x2="174.74" y2="138.1"/>
        <line class="fdfc49c9-df25-4714-8915-dced4c4eba75" x1="195.65" y1="156.87" x2="174.74" y2="144.28"/>
        <line class="fdfc49c9-df25-4714-8915-dced4c4eba75" x1="195.65" y1="163.21" x2="174.74" y2="150.62"/>
        <polygon class="fdfc49c9-df25-4714-8915-dced4c4eba75" points="150.84 150.92 150.97 173.13 168.97 183.22 168.84 161 150.84 150.92"/>
        <line class="fdfc49c9-df25-4714-8915-dced4c4eba75" x1="195.65" y1="180.45" x2="174.74" y2="167.86"/>
        <line class="fdfc49c9-df25-4714-8915-dced4c4eba75" x1="195.65" y1="186.63" x2="174.74" y2="174.03"/>
        <line class="fdfc49c9-df25-4714-8915-dced4c4eba75" x1="195.65" y1="192.97" x2="174.74" y2="180.38"/>
      </g>
      <g>
        <g>
          <path class="b9b5ee81-f773-47ce-8026-f8a51b22f07e" d="M80.7,181.43a50.61,50.61,0,0,0,3.07,4.48c1,1.16,2.52,3.3,3.89,4.69s1.72,2.85,1.18,3.43a4.45,4.45,0,0,1-4.91,1.07c-1.12-.38-2.91-3.15-4.57-4.4s-4.19-3.25-4.3-4.54c-.22-2.55,0-3.69.58-4.63.46-.06,1,1.33,1.64.89C78.64,181.46,79.59,181.06,80.7,181.43Z"/>
          <path class="b9b5ee81-f773-47ce-8026-f8a51b22f07e" d="M82.67,184.45a4.59,4.59,0,0,0-2.53.81c-1,.8-2.14.2-1-1A3.74,3.74,0,0,1,81.71,183Z"/>
          <path class="b9b5ee81-f773-47ce-8026-f8a51b22f07e" d="M84.46,186.74A8.67,8.67,0,0,0,81.87,188c-1,.8-2.07.07-1-1.16a4.58,4.58,0,0,1,2.47-1.44Z"/>
          <path class="b9b5ee81-f773-47ce-8026-f8a51b22f07e" d="M86.27,189a7.49,7.49,0,0,0-2.63,1.18c-1,.79-2.07.07-1-1.16a4.63,4.63,0,0,1,2.48-1.44Z"/>
          <path class="b9b5ee81-f773-47ce-8026-f8a51b22f07e" d="M89.08,193.2s-1-1-2-.24-1.9,1.57-2.54,1.59-3-2.14-4.22-3.42-3.43-2.49-4-4.1A12.07,12.07,0,0,0,75,184.49a4.19,4.19,0,0,0-.2,2.54,3.69,3.69,0,0,0,2.13,2.23,16.48,16.48,0,0,1,3.72,2.93c.5.6,1.85,2.73,3.44,3.54C86,196.71,90,195.73,89.08,193.2Z"/>
          <path class="b9b5ee81-f773-47ce-8026-f8a51b22f07e" d="M81.11,182.08l.44-1.35a2.94,2.94,0,0,0-2.49-.35,7.32,7.32,0,0,0-2.13,1.07l0,1S78.1,184.16,81.11,182.08Z"/>
        </g>
        <g>
          <path class="b9b5ee81-f773-47ce-8026-f8a51b22f07e" d="M69.15,186.14a68.49,68.49,0,0,0,1.36,7.11c.65,2.11,1.85,5.07.33,6.55s-4.73,1.27-6.39-1.09-1-10.69-.69-12.32C63.83,186,69.15,186.14,69.15,186.14Z"/>
          <path class="b9b5ee81-f773-47ce-8026-f8a51b22f07e" d="M69.15,186.14s.75-1.86.15-2.16c-2.72-1.38-5.54.59-5.54.59v1.82A15.52,15.52,0,0,0,69.15,186.14Z"/>
          <path class="b9b5ee81-f773-47ce-8026-f8a51b22f07e" d="M71.42,199s-1.45-2-2.73-1.53-3.64,2.05-3.74,1.95A3.55,3.55,0,0,0,68.69,201C71.14,200.41,71.42,199,71.42,199Z"/>
          <path class="b9b5ee81-f773-47ce-8026-f8a51b22f07e" d="M65.25,193.58a6.37,6.37,0,0,1,3-.79c1.47,0,1.84.43,2,1.4s-1,.11-2.39.11c-.9,0-2.41,1.62-2.86.73A1.25,1.25,0,0,1,65.25,193.58Z"/>
          <path class="b9b5ee81-f773-47ce-8026-f8a51b22f07e" d="M65.16,190.87a5.52,5.52,0,0,1,2.63-.71c1.29,0,1.62.38,1.78,1.24s-.9.1-2.12.1c-.79,0-2.12,1.43-2.53.64A1.09,1.09,0,0,1,65.16,190.87Z"/>
          <path class="b9b5ee81-f773-47ce-8026-f8a51b22f07e" d="M64.78,188.24a5.58,5.58,0,0,1,2.63-.7c1.29,0,1.62.38,1.78,1.24s-.89.09-2.12.09c-.79,0-2.12,1.43-2.52.65A1.11,1.11,0,0,1,64.78,188.24Z"/>
        </g>
        <path class="fdfc49c9-df25-4714-8915-dced4c4eba75" d="M61.08,144.54s.75,12.69.93,16.78a101,101,0,0,1-.79,14.24c-.23,2.15.92,2.94.79,5.73,0,1,.67,2.5,0,4.33-1.18,3.25,0,5,3.44,5.54,2.83.47,5.29-2.21,5.57-3.56.55-2.6-.76-2.25-.51-4.47.15-1.25,2-4.24,2.12-5,.89-8.47,1-12.1,1.26-14.83s0-11.62,0-11.62S77,163.3,78.66,165.79c-2.06,3.09.11,3.8-1.36,6.87-2.22,4.6-3.36,8.81-1.72,10.36s5.2,4.95,8.88,2c1.83-1.47,5.12-16.62,5.24-20,.16-4.6-2.66-13.09-3.44-15.78a39.35,39.35,0,0,0-3.65-7.18Z"/>
        <path class="b9b5ee81-f773-47ce-8026-f8a51b22f07e" d="M62,121.65s-8,4.72-8.8,7.5,1.14,11.2,2.41,15.36,6,5.68,9,4.71l3-1Z"/>
        <path class="f1e4993b-ad88-4f88-a624-52a53f233d55" d="M91.39,140.59a28.83,28.83,0,0,0,5.78,5.13c3,1.84,4-1.35,2.57-3.81s-5.08-4.84-5.08-4.84Z"/>
        <path class="fdfc49c9-df25-4714-8915-dced4c4eba75" d="M77,110.9A7.58,7.58,0,0,1,82,115.12C83.7,118.71,87.2,128,87.36,129c4.2,2.67,7.18,5.56,8.53,8.65-1.39,1-2.74,2.89-4.33,4.52-4.28-1.86-11.77-10-11.77-10L77,127.25Z"/>
        <path class="fdfc49c9-df25-4714-8915-dced4c4eba75" d="M67.18,146a11.09,11.09,0,0,0,7.5,2.31,22,22,0,0,0,7.92-2.88s-.38-19.17-2.79-24.56S76,114.39,76,114.39l-5.08,1.69S69.72,142.79,67.18,146Z"/>
        <path class="fdfc49c9-df25-4714-8915-dced4c4eba75" d="M84.93,144.8a192.77,192.77,0,0,0-4.51-25.28C78.83,113.08,77,110.9,77,110.9a9.13,9.13,0,0,0-7.95.61s-6.22,4.71-6.63,7.24-.62,17.06-2.08,25.86c.93,3.13,4.32,6.39,11.17,6.39.88-10,5-26.15,1-34.71-.92-2,2-3.67,2.91-1.7,4.24,9,6.36,24,5.56,34.52C82,148.77,83.89,148,84.93,144.8Z"/>
        <path class="b9b5ee81-f773-47ce-8026-f8a51b22f07e" d="M76,112.27l5.35,11.1s.1-7.46-2.27-11.1C77,109.1,76,112.27,76,112.27Z"/>
        <path class="fdfc49c9-df25-4714-8915-dced4c4eba75" d="M78.24,122.64s-.2-6.08,2.12-9.07,6.52-10.1,3.53-13.3-6.9-1-6.9-1-2.39,12-1.83,14.11S78.24,122.64,78.24,122.64Z"/>
        <g>
          <path class="f1e4993b-ad88-4f88-a624-52a53f233d55" d="M75,110.75l.68,4.79s-2.5,2.65-4.82.54-2.62-3-2.62-3l1.35-6.45Z"/>
          <path class="f1e4993b-ad88-4f88-a624-52a53f233d55" d="M72,98.16a6.17,6.17,0,0,1,9.52,3.56c1.89,5.89-3.59,13-6.37,11.69-1.55-.73-4.79-3.29-5.63-6.39C68.58,103.54,70.21,99.46,72,98.16Z"/>
          <path class="b9b5ee81-f773-47ce-8026-f8a51b22f07e" d="M81.94,103.58c-.44.43-2.75,2.1-3.36,2.61a3.91,3.91,0,0,1-4.23.83c-4.53-1.23-4.82,0-4.82,0a6.33,6.33,0,0,1-1.36-5.74c.55-2.16,3.6-6.36,7.68-5.86s6.37,3.27,6.81,5.62A2.86,2.86,0,0,1,81.94,103.58Z"/>
        </g>
        <path class="f1e4993b-ad88-4f88-a624-52a53f233d55" d="M62,148.31a29.21,29.21,0,0,0,2.07,7.45c1.52,3.16,4.12,1.05,4.23-1.8s-1.64-6.83-1.64-6.83Z"/>
        <path class="fdfc49c9-df25-4714-8915-dced4c4eba75" d="M63.36,116.89c-1.57.36-3.93,5-5.2,10.26a44.25,44.25,0,0,0-1.36,9.29c-.21,2.43,2.6,9.17,4.42,13.06,2.86,1.18,6.44-1.25,6.44-1.25S66.48,139.6,66,136.72c-.37-2.46.87-6.45,1.93-9.78C68.76,124.44,68.56,115.72,63.36,116.89Z"/>
        <path class="b9b5ee81-f773-47ce-8026-f8a51b22f07e" d="M61.22,119.14a7.22,7.22,0,0,1,2.69-3.6c3.22-2,6.44,1.82,6.6,7a9.78,9.78,0,0,1-3.6,7.68s2.34-5.55-.24-10.72C65.14,116.48,61.22,119.14,61.22,119.14Z"/>
        <path class="fdfc49c9-df25-4714-8915-dced4c4eba75" d="M79.41,101.38c-2.18,1.42-5.27,4.82-5.45,8.85s.18,13.7.18,13.7S70.9,116.08,67,113.15c-2.47-3.26-1.83-12,2.22-16.17s8-2.13,10.16-1.68c4.48.94,5.06,5.81,5.06,5.81A4.84,4.84,0,0,0,79.41,101.38Z"/>
      </g>
      <g>
        <path class="f1e4993b-ad88-4f88-a624-52a53f233d55" d="M83.48,181s-3,5.29-3.76,9-2.13,10.57-3.47,13.38-3.16,4-2,5.91,3.12,2.53,4.69,3.87,2,1.78,4.51,1.63,6-1.28,4.63-2.32-7.23-5.23-7-6.12,7.18-18.83,7.18-18.83Z"/>
        <path class="f1e4993b-ad88-4f88-a624-52a53f233d55" d="M101.89,145.51a51,51,0,0,0,3.67,6.41c.93,1.4,3.53,4.64,4.87,6.42,1.55,2,6.18,8.33,4.32,11.18a2.59,2.59,0,0,1-3.85-.21c-.82-1.09-1.58-4.26-2.12-3.55-.93,1.24-1.19,1.69-2,1.72s.49-1.56.63-2.73a5.19,5.19,0,0,0-.65-3.52c-3.42-4-10.64-12.35-10.64-12.35Z"/>
        <path class="b9b5ee81-f773-47ce-8026-f8a51b22f07e" d="M78.62,142.8s-8.21,4.87-9.08,7.74,1.18,11.55,2.5,15.84,6.19,5.85,9.3,4.85l3.11-1Z"/>
        <path class="fdfc49c9-df25-4714-8915-dced4c4eba75" d="M94.07,131.71a7.82,7.82,0,0,1,5.2,4.36c1.72,3.7,1.94,7,3.46,7.94s2.74,2.07,2.9,3.05-1.09,3-2.68,4.13c-3.46,2.39-6,2.36-6,2.36l-2.89-5Z"/>
        <path class="fdfc49c9-df25-4714-8915-dced4c4eba75" d="M86.87,190.84a14.42,14.42,0,0,0,3.84.3c2.61-3.3,6.94-9.69,8.05-16.93a37,37,0,0,0,0-11.58s-12.87,4.69-13,4.66S81.81,180.6,80.58,185C81.83,187.81,83.4,190.09,86.87,190.84Z"/>
        <path class="f1e4993b-ad88-4f88-a624-52a53f233d55" d="M88.11,189.09s1.46,9.51,5.43,15.9c1.58,2.53,4,7.95,5.55,11.13s.12,4.16,2.47,4.91c1,.3,3.74-.74,6-1.4s6.33-3.35,6.67-4.51-1.42-1.13-4.43-.63a6,6,0,0,1-5.84-2.63c-3.2-6-6.89-24.31-6.89-24.31Z"/>
        <path class="fdfc49c9-df25-4714-8915-dced4c4eba75" d="M97.89,188.05l-4-13.86a48.39,48.39,0,0,1,1.69-8.07L79.9,163.91s-3.28,6.29.67,15.06C82,182.26,85,188.5,87,192.75,91.86,194.2,95.33,191.67,97.89,188.05Z"/>
        <path class="fdfc49c9-df25-4714-8915-dced4c4eba75" d="M94.07,131.71S96,134,97.61,140.6c.65,2.66.4,9.88,3,16.31,1.62,4.06-.17,4.27-.8,6.46-.26.9.12,2.25-.59,3.16-1.42,1.84-6,2.39-10.9,2.25-5.07-.15-8.09-1.57-9-4.79,1.5-9.08-.64-21.56-.22-24.17s6.84-7.47,6.84-7.47A9.43,9.43,0,0,1,94.07,131.71Z"/>
        <path class="b9b5ee81-f773-47ce-8026-f8a51b22f07e" d="M93,133.13l5.06,11.36s.56-7.6-1.89-11.36C94.07,129.86,93,133.13,93,133.13Z"/>
        <g>
          <path class="f1e4993b-ad88-4f88-a624-52a53f233d55" d="M92.06,131.56l.7,4.94s.27,3.48-3.71,1.28a11.58,11.58,0,0,1-4.28-4.55s1.32-1.55,1.71-6C88.16,126.71,92.06,131.56,92.06,131.56Z"/>
          <path class="f1e4993b-ad88-4f88-a624-52a53f233d55" d="M88.94,118.58a6.35,6.35,0,0,1,9.81,3.67c2,6.07-3.7,13.42-6.57,12.06-1.6-.76-4.94-3.4-5.81-6.59C85.39,124.13,87.08,119.92,88.94,118.58Z"/>
          <path class="fdfc49c9-df25-4714-8915-dced4c4eba75" d="M101.3,126a3.17,3.17,0,0,1-4-.8,11.48,11.48,0,0,1-4.94.16,12.79,12.79,0,0,1-6.28,4s-2.23-5.17-1.32-8.74c.56-2.22,1.14-4.67,5.34-4.15,3.6-2.46,6.28-1.1,8.17,1.32,1.46,1.86,3.93,5.39,5,5.58-1.34,1-2.57.9-3.41,0A3.69,3.69,0,0,0,101.3,126Z"/>
        </g>
        <path class="fdfc49c9-df25-4714-8915-dced4c4eba75" d="M80,137.9c-1.63.37-4.06,5.13-5.36,10.57s-2.4,4.77-2.61,7.28,3,3.62,3,3.62-2.28-2.83.94-3a11.4,11.4,0,0,1,4.61.49,23.64,23.64,0,0,0,4.13-8.66C85.27,145.61,85.38,136.68,80,137.9Z"/>
        <path class="fdfc49c9-df25-4714-8915-dced4c4eba75" d="M88.22,156.09c-.65,2.75-3.45,7.9-3.45,7.9a13.44,13.44,0,0,0,7.6,1.7,18.93,18.93,0,0,0,7.32-1.7s2-2.89,1.55-4.62-1.28-5.47-1.75-5.79S93.27,156.09,88.22,156.09Z"/>
        <path class="f1e4993b-ad88-4f88-a624-52a53f233d55" d="M73.91,157.52c0,2,4.49,3.95,6.84,5.86,5.77,4.67,6.25,4.47,7.66,3.06,2.54-2.53,3.37-3.42.88-4.83-1.65-4.45-5-.51-5.71-1.54s-3.49-4.74-3.49-4.74a4.18,4.18,0,0,0-3-1.2A3,3,0,0,0,73.91,157.52Z"/>
        <path class="fdfc49c9-df25-4714-8915-dced4c4eba75" d="M99.21,217.16a6.21,6.21,0,0,0,3.74.06c1.52-.57,3.44-3.56,3.44-3.56a23.89,23.89,0,0,0,4.83-.49c3.33-.58,5.18,0,4.2,2-1.52,3-4.72,4.49-9.5,5.52s-5.14.85-6.09-.07C99.23,220,99.21,217.16,99.21,217.16Z"/>
        <path class="fdfc49c9-df25-4714-8915-dced4c4eba75" d="M75.52,204.78A3.5,3.5,0,0,0,78,207.59a6.94,6.94,0,0,0,3.7-.22s4.86,3.63,6,4.21,3.05,2,.08,2.9-4.77,1.89-7.21.4-6.71-4.46-7.21-6S75.52,204.78,75.52,204.78Z"/>
        <path class="fdfc49c9-df25-4714-8915-dced4c4eba75" d="M111.22,213.17a37.42,37.42,0,0,1-7.28-1.31c-2-.57-2.6,2.34.24,3C109.47,216.15,111.22,213.17,111.22,213.17Z"/>
        <path class="fdfc49c9-df25-4714-8915-dced4c4eba75" d="M86.72,211a14.62,14.62,0,0,1-4.06-6.42c-.62-2-3.44-.6-2.23,2C82.7,211.55,86.72,211,86.72,211Z"/>
        <path class="fdfc49c9-df25-4714-8915-dced4c4eba75" d="M108.05,212.78a13,13,0,0,0-1.31,3.58c.71.19,1.36.33,1.36.33l1-3.73Z"/>
        <path class="fdfc49c9-df25-4714-8915-dced4c4eba75" d="M84.29,207.93a10.43,10.43,0,0,0-3.53,1.49c.39.62.77,1.17.77,1.17l3.27-1.78Z"/>
        <path class="b9b5ee81-f773-47ce-8026-f8a51b22f07e" d="M77.81,140.21a7.51,7.51,0,0,1,2.77-3.71c3.33-2,6.64,1.88,6.81,7.27a10.11,10.11,0,0,1-3.71,7.92s2.41-5.72-.25-11.05C81.85,137.47,77.81,140.21,77.81,140.21Z"/>
        <path class="f1e4993b-ad88-4f88-a624-52a53f233d55" d="M91,127.65s-.61-2.84-2.54-1.62.36,3.71.36,3.71Z"/>
      </g>
      <g>
        <g class="b35893e4-82ff-4fbb-83f5-460fa100cfa6">
          <polygon class="b9b5ee81-f773-47ce-8026-f8a51b22f07e" points="246.33 228.49 218.08 212.07 193.77 226.11 222.02 242.53 246.33 228.49"/>
          <path class="fdfc49c9-df25-4714-8915-dced4c4eba75" d="M217,143.86l28.24,16.42c-16.16,28-25.77,59.79-25.69,85.05v1.41l-28.25-16.42v-1.4C191.26,203.66,200.86,171.86,217,143.86Z"/>
          <polygon class="fdfc49c9-df25-4714-8915-dced4c4eba75" points="247 161.27 218.75 144.85 217.03 143.86 245.27 160.28 247 161.27"/>
          <path class="b9b5ee81-f773-47ce-8026-f8a51b22f07e" d="M245.27,160.28c-16.16,28-25.77,59.79-25.69,85.05v1.41l26.76-15.45v-2.8l-24.31,14c.28-24.32,9.56-54.56,25-81.26Z"/>
        </g>
        <polygon class="f1e4993b-ad88-4f88-a624-52a53f233d55" points="215.42 150.63 215.38 165.82 232.1 175.48 232.14 160.28 215.42 150.63"/>
        <polygon class="f1e4993b-ad88-4f88-a624-52a53f233d55" points="208.52 169.67 208.48 184.86 225.19 194.51 225.24 179.32 208.52 169.67"/>
        <polygon class="f1e4993b-ad88-4f88-a624-52a53f233d55" points="201.62 188.71 201.58 203.9 218.3 213.55 218.34 198.36 201.62 188.71"/>
        <g class="b35893e4-82ff-4fbb-83f5-460fa100cfa6">
          <polygon class="b9b5ee81-f773-47ce-8026-f8a51b22f07e" points="217.19 215.56 218.92 214.55 218.94 209.42 217.2 210.43 217.19 215.56"/>
          <polygon class="b9b5ee81-f773-47ce-8026-f8a51b22f07e" points="217.2 210.43 218.94 209.42 200.97 199.05 199.23 200.06 217.2 210.43"/>
          <polygon class="b9b5ee81-f773-47ce-8026-f8a51b22f07e" points="199.23 200.06 199.22 205.18 217.19 215.56 217.2 210.43 199.23 200.06"/>
        </g>
        <g class="b35893e4-82ff-4fbb-83f5-460fa100cfa6">
          <polygon class="b9b5ee81-f773-47ce-8026-f8a51b22f07e" points="223.96 197.15 225.69 196.14 225.71 191.01 223.97 192.02 223.96 197.15"/>
          <polygon class="b9b5ee81-f773-47ce-8026-f8a51b22f07e" points="223.97 192.02 225.71 191.01 207.74 180.64 206 181.65 223.97 192.02"/>
          <polygon class="b9b5ee81-f773-47ce-8026-f8a51b22f07e" points="206 181.65 205.99 186.77 223.96 197.15 223.97 192.02 206 181.65"/>
        </g>
        <g class="b35893e4-82ff-4fbb-83f5-460fa100cfa6">
          <polygon class="b9b5ee81-f773-47ce-8026-f8a51b22f07e" points="230.73 178.74 232.47 177.73 232.48 172.61 230.74 173.62 230.73 178.74"/>
          <polygon class="b9b5ee81-f773-47ce-8026-f8a51b22f07e" points="230.74 173.62 232.48 172.61 214.51 162.23 212.77 163.24 230.74 173.62"/>
          <polygon class="b9b5ee81-f773-47ce-8026-f8a51b22f07e" points="212.77 163.24 212.76 168.37 230.73 178.74 230.74 173.62 212.77 163.24"/>
        </g>
      </g>
    </g>
  </g>
</svg>
