<svg xmlns="http://www.w3.org/2000/svg" xmlns:xlink="http://www.w3.org/1999/xlink" viewBox="0 0 300 300">
  <defs>
    <style>
      .bf50887b-56c4-4b49-bafb-6030797a35a5 {
        fill: none;
      }

      .fe4382c7-72fa-4266-bc9e-4aaf3a7a25b7 {
        isolation: isolate;
      }

      .eebccda4-ce96-4c51-baec-1097e3e11689 {
        clip-path: url(#e9068cde-a126-42e5-8a81-240994958131);
      }

      .bfa13092-1af1-40b4-b74c-0274ff778522, .e95b0acc-44b8-4432-8c76-58671bd47291 {
        fill: #fff2cc;
      }

      .a1071376-693e-455a-a819-abbc1eb663d5 {
        fill: #fc3;
      }

      .a1071376-693e-455a-a819-abbc1eb663d5, .e95b0acc-44b8-4432-8c76-58671bd47291, .f30f6e61-5d13-49c4-977b-997a3fa8f6ce {
        stroke: #222;
        stroke-linecap: round;
        stroke-linejoin: round;
        stroke-width: 2px;
      }

      .f30f6e61-5d13-49c4-977b-997a3fa8f6ce {
        fill: #222;
      }
    </style>
    <clipPath id="e9068cde-a126-42e5-8a81-240994958131">
      <polygon class="bf50887b-56c4-4b49-bafb-6030797a35a5" points="-26.77 200 149.42 97.61 326.77 200 150.58 302.39 -26.77 200"/>
    </clipPath>
  </defs>
  <g id="bf332e9e-878d-4023-a8f5-25d679484e78" data-name="BASE">
    <g class="fe4382c7-72fa-4266-bc9e-4aaf3a7a25b7">
      <g class="eebccda4-ce96-4c51-baec-1097e3e11689">
        <path class="bfa13092-1af1-40b4-b74c-0274ff778522" d="M238.1,148.8c-49-28.27-128.12-28.27-176.77,0s-48.4,74.12.57,102.4,128.12,28.27,176.78,0,48.39-74.12-.58-102.4"/>
      </g>
    </g>
  </g>
  <g id="a3b017b6-e4b2-4e40-88e3-5ab60e224231" data-name="ESCENA">
    <g>
      <g>
        <g>
          <path class="a1071376-693e-455a-a819-abbc1eb663d5" d="M145.65,148.1A1.38,1.38,0,0,0,145,147l-16.14-9.32A106.41,106.41,0,0,1,122,100.43a1.33,1.33,0,0,0-.62-1.07.43.43,0,0,0-.43,0L95.76,113.64l2.34,21.3,4.51,15.56.86,2.33,16.74,9.84.12.15,25.14-14.32h0A.43.43,0,0,0,145.65,148.1Z"/>
          <path class="a1071376-693e-455a-a819-abbc1eb663d5" d="M103.41,153.26l16.48,9.52c.34.2.62,0,.62-.36a1.38,1.38,0,0,0-.62-1.07L103.76,152a106.29,106.29,0,0,1-7-37.29,1.36,1.36,0,0,0-.62-1.07c-.34-.2-.61,0-.61.36a107,107,0,0,0,7.3,38.58A1.31,1.31,0,0,0,103.41,153.26Z"/>
        </g>
        <g>
          <path class="f30f6e61-5d13-49c4-977b-997a3fa8f6ce" d="M144.74,187.93c1.06,1.71,12.23,6.67,13.25,4.88.52-.89-5.07-6-7.09-8.14-1.54,1.54-4.73,1.08-5.09-.85C145.2,184.41,144.78,186,144.74,187.93Z"/>
          <path class="a1071376-693e-455a-a819-abbc1eb663d5" d="M125.92,138.18l23.47,15.29a4.39,4.39,0,0,1,1.73,5.17l-1,25.84c0,1.87-3.74,1.64-4.38-.26l-3.25-22.9a1.9,1.9,0,0,0-1-2.14l-21.43-10.27Z"/>
          <path class="f30f6e61-5d13-49c4-977b-997a3fa8f6ce" d="M134.09,194.87a3.54,3.54,0,0,0,.19,1.9,16.3,16.3,0,0,0,4.11,6.72,6.44,6.44,0,0,0,3.18,1.91,1.57,1.57,0,0,0,1.67-.52,1.85,1.85,0,0,0,0-1.35,56.22,56.22,0,0,0-1.91-6.37,6.71,6.71,0,0,0-2.11-3.33,3.58,3.58,0,0,0-2.95-.52C135.45,193.52,134.33,193.94,134.09,194.87Z"/>
          <path class="f30f6e61-5d13-49c4-977b-997a3fa8f6ce" d="M110,147.83c.45,1.68,2,5.16,3.7,5.18,3.9,0,17.43-7.72,20.87-10.46,1.44-1.15-7.18-2.44-8.67-5-1.38-2.35-5.07-.38-7.27.46a27.5,27.5,0,0,0-7.52,3.87C109.42,143.31,109.49,145.82,110,147.83Z"/>
          <path class="a1071376-693e-455a-a819-abbc1eb663d5" d="M120.55,144.43,135,164.79a10,10,0,0,1,1.81,5l1.84,24.6c0,1.7-2.9,2.53-4.64.62l-4.3-20.68a15.37,15.37,0,0,0-4.14-7.67l-14-14.2C114.32,155.87,123.93,151.46,120.55,144.43Z"/>
        </g>
      </g>
      <g>
        <path class="a1071376-693e-455a-a819-abbc1eb663d5" d="M134.56,184.5l-4.73,2.75h0a3.68,3.68,0,0,0-1.63,2.55q-.91,6.88-1.75,13.75t-1.58,13.69l-.37,3.42-.34,3.4c-.23,2.27-.48,4.55-.68,6.8-.06.75-.13,1.49-.2,2.24l1.54.89c.13-.68,1-8.37,1.36-10.7l.59-3.5.56-3.48c.75-4.65,1.46-9.29,2.16-13.92q.9-6.06,1.74-12.1l3.34-1.91.77-.44v-3.88Z"/>
        <polygon class="f30f6e61-5d13-49c4-977b-997a3fa8f6ce" points="154.12 141.18 184.03 158.45 184.03 200.53 154.12 183.26 154.12 141.18"/>
        <path class="a1071376-693e-455a-a819-abbc1eb663d5" d="M214,141.18,136.25,186v-.73l-.15.08-4.73,2.75h0a3.72,3.72,0,0,0-1.63,2.54q-.9,6.88-1.74,13.75c-.55,4.58-1.09,9.14-1.58,13.7l-.37,3.41-.35,3.4c-.22,2.27-.47,4.55-.67,6.8-.07.75-.14,1.49-.2,2.24l1.34-.78.36-2c.42-2.34.79-4.66,1.19-7l.59-3.49.57-3.49q1.13-7,2.15-13.91.9-6.06,1.75-12.1h0l3.33-1.91.15-.08h0L184,161.59v38.94L214,183.26Z"/>
        <g>
          <path class="a1071376-693e-455a-a819-abbc1eb663d5" d="M104.64,167.23,99.91,170h0a3.68,3.68,0,0,0-1.63,2.55q-.9,6.89-1.74,13.75C96,190.85,95.44,195.42,95,200l-.37,3.42-.35,3.4c-.22,2.27-.47,4.55-.67,6.8l-.21,2.23,1.55.9c.12-.68.95-8.37,1.35-10.7l.59-3.5.57-3.48q1.13-7,2.15-13.92.9-6.06,1.75-12.1l3.33-1.91.77-.45v-3.87Z"/>
          <path class="a1071376-693e-455a-a819-abbc1eb663d5" d="M106.19,168.12l-4.73,2.75h0a3.73,3.73,0,0,0-1.63,2.55q-.91,6.89-1.75,13.75t-1.58,13.69l-.37,3.42-.34,3.4c-.23,2.27-.48,4.55-.68,6.8-.06.75-.13,1.49-.2,2.24l1.34-.78.36-2c.43-2.34.8-4.66,1.2-7l.59-3.49.56-3.49c.75-4.65,1.46-9.29,2.16-13.91q.9-6.06,1.74-12.1l3.34-1.92.15-.08V168Z"/>
        </g>
      </g>
      <g>
        <path class="a1071376-693e-455a-a819-abbc1eb663d5" d="M90.58,166.12l87-50.23a4.83,4.83,0,0,1,4.41,0L216.79,136h1.8v1.78h0a1.56,1.56,0,0,1-.92,1.28L129.8,189.76a4.85,4.85,0,0,1-4.42,0L89.71,169.17a1.54,1.54,0,0,1-.91-1.27h0v-1.78Z"/>
        <path class="e95b0acc-44b8-4432-8c76-58671bd47291" d="M129.8,188l87.87-50.74a1.34,1.34,0,0,0,0-2.54L182,114.1a4.89,4.89,0,0,0-4.41,0L89.71,164.84a1.34,1.34,0,0,0,0,2.54L125.38,188A4.91,4.91,0,0,0,129.8,188Z"/>
      </g>
      <g>
        <g>
          <polygon class="a1071376-693e-455a-a819-abbc1eb663d5" points="194.98 126.64 195.18 126.28 212.73 136.44 212.52 136.8 194.98 126.64"/>
          <path class="a1071376-693e-455a-a819-abbc1eb663d5" d="M200.14,141l-2.32,4-17.58-10.17h0a1.25,1.25,0,0,1-.39-1,3.65,3.65,0,0,1,1.66-2.87l13.74-8,17.48,10.12Z"/>
          <path class="a1071376-693e-455a-a819-abbc1eb663d5" d="M199,141.53a2.75,2.75,0,0,0-1.25,2.16c0,.79.56,1.11,1.25.71l13.33-7.72-.21-.12v-2.63Z"/>
          <path class="a1071376-693e-455a-a819-abbc1eb663d5" d="M198.78,141.41a2.74,2.74,0,0,0-1.24,2.16c0,.79.55,1.11,1.24.71l13.33-7.72v-2.87Z"/>
          <path class="a1071376-693e-455a-a819-abbc1eb663d5" d="M199.18,141.42a3,3,0,0,0-1.44,2.27c0,.79.65,1.06,1.44.6l13.55-7.85v.48l-13.74,8c-.92.53-1.66.1-1.66-1h0a3.67,3.67,0,0,1,1.66-2.87l13.74-8v.48Z"/>
        </g>
        <g>
          <path class="a1071376-693e-455a-a819-abbc1eb663d5" d="M194.36,135.77l-14.16-8.2-3.32,1.91V129l.42-.24v-2.87l-.42.24v-.48l13.75-8a1.25,1.25,0,0,1,1.06-.17h0l17.56,10.16Z"/>
          <polygon class="a1071376-693e-455a-a819-abbc1eb663d5" points="177.3 125.89 177.3 128.76 194.78 138.88 194.78 136.01 177.3 125.89"/>
          <path class="a1071376-693e-455a-a819-abbc1eb663d5" d="M176.88,125.65v.48l17.48,10.12v-.48Zm17.48,13.47L176.88,129v.48l17.48,10.12Z"/>
          <polygon class="a1071376-693e-455a-a819-abbc1eb663d5" points="176.88 129 177.3 128.76 194.78 138.88 194.36 139.12 176.88 129"/>
          <path class="a1071376-693e-455a-a819-abbc1eb663d5" d="M208.11,131.15a2.75,2.75,0,0,0,1.24-2.15c0-.79-.56-1.11-1.24-.72l-13.62,7.89v2.54l.29.17Z"/>
          <path class="a1071376-693e-455a-a819-abbc1eb663d5" d="M207.82,131a2.77,2.77,0,0,0,1.24-2.16,1,1,0,0,0-.23-.69c.31.07.52.38.52.86a2.75,2.75,0,0,1-1.24,2.15l-13.33,7.73-.29-.17.29-.17Z"/>
          <path class="a1071376-693e-455a-a819-abbc1eb663d5" d="M207.92,131.26a3,3,0,0,0,1.43-2.26c0-.79-.64-1.06-1.43-.61l-13.56,7.86v-.48l13.75-8c.91-.53,1.65-.1,1.65.95h0a3.67,3.67,0,0,1-1.65,2.87l-13.75,8v-.48Z"/>
        </g>
        <g>
          <path class="a1071376-693e-455a-a819-abbc1eb663d5" d="M194.67,130.26l14.16-8.2,3.32,1.91v-.47l-.42-.24v-2.87l.42.24v-.48l-10.51-6.06a1.22,1.22,0,0,0-1.06-.17h0L183,124.08Z"/>
          <polygon class="a1071376-693e-455a-a819-abbc1eb663d5" points="211.73 120.39 211.73 123.26 194.25 133.37 194.25 130.5 211.73 120.39"/>
          <polygon class="a1071376-693e-455a-a819-abbc1eb663d5" points="212.15 120.15 212.15 120.63 194.67 130.74 194.67 130.26 212.15 120.15"/>
          <polygon class="a1071376-693e-455a-a819-abbc1eb663d5" points="212.15 123.5 212.15 123.97 194.67 134.09 194.67 133.61 212.15 123.5"/>
          <polygon class="a1071376-693e-455a-a819-abbc1eb663d5" points="212.15 123.5 211.73 123.26 194.25 133.37 194.67 133.61 212.15 123.5"/>
          <path class="a1071376-693e-455a-a819-abbc1eb663d5" d="M184.16,127.55a2.75,2.75,0,0,1-1.24-2.15c0-.79.56-1.11,1.24-.72l10.38,6v2.53l-.29.17Z"/>
          <path class="a1071376-693e-455a-a819-abbc1eb663d5" d="M184.45,127.38a2.75,2.75,0,0,1-1.24-2.15,1,1,0,0,1,.23-.7c-.31.08-.52.39-.52.87a2.75,2.75,0,0,0,1.24,2.15l10.09,5.82.29-.16-.29-.17Z"/>
          <path class="a1071376-693e-455a-a819-abbc1eb663d5" d="M184.35,127.66a3,3,0,0,1-1.43-2.26c0-.79.64-1.07,1.43-.61l10.32,6v-.48l-10.51-6.06c-.91-.53-1.65-.1-1.65,1h0a3.67,3.67,0,0,0,1.65,2.87l10.51,6.06v-.48Z"/>
        </g>
      </g>
      <g>
        <polygon class="a1071376-693e-455a-a819-abbc1eb663d5" points="133.96 159.1 161.9 142.97 161.9 141.9 151.7 137.08 123.76 152.14 123.76 153.21 133.96 159.1"/>
        <polygon class="a1071376-693e-455a-a819-abbc1eb663d5" points="133.96 158.03 161.9 141.9 151.7 136.01 123.76 152.14 133.96 158.03"/>
      </g>
      <g>
        <path class="a1071376-693e-455a-a819-abbc1eb663d5" d="M123.92,166.72l20.22,11.67,10.47-6a1.13,1.13,0,0,0,0-2.13l-16.55-9.55a4,4,0,0,0-3.67,0Z"/>
        <path class="a1071376-693e-455a-a819-abbc1eb663d5" d="M123.92,166.72l20.22,11.67-10.47,6.05a4.11,4.11,0,0,1-3.68,0l-16.54-9.56a1.12,1.12,0,0,1,0-2.12Z"/>
        <g>
          <path class="a1071376-693e-455a-a819-abbc1eb663d5" d="M123.92,166.24l20.22,11.68,10.47-6a1.12,1.12,0,0,0,0-2.12l-16.55-9.55a4,4,0,0,0-3.67,0Z"/>
          <path class="a1071376-693e-455a-a819-abbc1eb663d5" d="M123.92,166.24l20.22,11.68-10.47,6a4,4,0,0,1-3.68,0l-16.54-9.55a1.12,1.12,0,0,1,0-2.12Z"/>
        </g>
        <path class="e95b0acc-44b8-4432-8c76-58671bd47291" d="M143,174.65c4.87-.32,8.18-3,11.46-5.79l-17.28-10.33c-4.35,3-7.47,1.79-11.46,5.78Z"/>
        <path class="a1071376-693e-455a-a819-abbc1eb663d5" d="M142.92,177l11.46-6.38,0-1.72c-4.35,3-7.47,1.79-11.46,5.79Z"/>
        <path class="e95b0acc-44b8-4432-8c76-58671bd47291" d="M154.41,168.86l0,1.72L142.92,177l0-2.31C146.94,170.65,150.06,171.89,154.41,168.86Z"/>
        <path class="e95b0acc-44b8-4432-8c76-58671bd47291" d="M142.92,177l-11.47,6.39,0-1.71c4.33-1.81,7.54-6.58,11.47-7Z"/>
        <path class="e95b0acc-44b8-4432-8c76-58671bd47291" d="M114.2,171.31c4.33-1.81,7.54-6.58,11.47-7L143,174.65c-3.93.41-7.14,5.18-11.47,7Z"/>
        <polygon class="a1071376-693e-455a-a819-abbc1eb663d5" points="114.2 171.31 114.17 173.02 131.45 183.35 131.48 181.64 114.2 171.31"/>
      </g>
      <g>
        <path class="a1071376-693e-455a-a819-abbc1eb663d5" d="M110.44,156.93h.15v.1l0,0,5.06-2.92a1,1,0,0,1,1,0l8.11,4.68,0,0v-.1H125V159h0a.35.35,0,0,1-.2.28l-5.06,2.92a1.08,1.08,0,0,1-1,0l-8.12-4.69a.33.33,0,0,1-.2-.27h0Z"/>
        <path class="a1071376-693e-455a-a819-abbc1eb663d5" d="M124.78,158.42l-8.11-4.68a1,1,0,0,0-1,0l-5.06,2.92a.3.3,0,0,0,0,.56l8.12,4.68a1,1,0,0,0,1,0l5.06-2.92C125.05,158.83,125.05,158.58,124.78,158.42Z"/>
        <polygon class="a1071376-693e-455a-a819-abbc1eb663d5" points="124.41 158.46 116.61 153.95 111.02 157.18 118.81 161.69 124.41 158.46"/>
      </g>
      <g>
        <path class="a1071376-693e-455a-a819-abbc1eb663d5" d="M142.93,139a1.39,1.39,0,0,1-1.12-.58L132,124.53l0,0-9.34-10.63a3.21,3.21,0,0,1,4.81-4.24l.24.32,8.11,11.89.14.21L144.12,137a1.35,1.35,0,0,1,.12,1,1.32,1.32,0,0,1-.65.81A1.41,1.41,0,0,1,142.93,139Z"/>
        <path class="f30f6e61-5d13-49c4-977b-997a3fa8f6ce" d="M131.84,115.8c-3-4.15-5.68-8-7.81-8.53-2.58-.64-4.25.72-3.53,3,.67,2.14,3.71,5.56,6.16,8.67a2.76,2.76,0,0,0,3.09.55C131.35,118.66,132.8,117,131.84,115.8Z"/>
        <path class="a1071376-693e-455a-a819-abbc1eb663d5" d="M127,113.38c-.81-1.22-4.88-4.91-3.43-6.22l.51.11c2.13.53,4.83,4.38,7.81,8.53.85,1.07-.18,2.48-1.54,3.39C128.74,117,127.74,114.56,127,113.38Z"/>
        <path class="a1071376-693e-455a-a819-abbc1eb663d5" d="M103.89,115.26c4.7-6.77,12.77-8.85,19.27-8.19a3.24,3.24,0,0,1,2.52,1.61,6.66,6.66,0,0,1,.45,4.55c-1.06,5-2,10.16-1.4,16.18.28,2.72,1.39,5.62,1.24,8.24-.38,2.41-5.36,6.27-9.38,7.17-4.55,1-5.54,1.12-6.9-.15C104.13,138,101.58,120.74,103.89,115.26Z"/>
        <path class="f30f6e61-5d13-49c4-977b-997a3fa8f6ce" d="M108.86,118.19c3.47,6.09-1,19.27,4.21,27.33-2.12.65-2.38.08-3.38-.85-5.56-6.69-8.11-23.93-5.8-29.41C103.89,115.26,108.72,116.12,108.86,118.19Z"/>
        <path class="a1071376-693e-455a-a819-abbc1eb663d5" d="M107,119.43a9.4,9.4,0,0,1,1,3.11,13.44,13.44,0,0,1,.14,3,48.38,48.38,0,0,1-.68,6c-.35,2-.76,4-1.1,5.95-.15,1-.32,2-.44,3l-.13,1.18,16.73,7.1a1.73,1.73,0,0,1-1.21,3.23l-19.2-6.32a2.44,2.44,0,0,1-1.67-2.42v-.2l.14-3c0-1,0-2,0-3,0-2-.09-4-.11-6a48.36,48.36,0,0,1,.31-6,13.45,13.45,0,0,1,.63-3,9.76,9.76,0,0,1,1.52-2.9,2.4,2.4,0,0,1,3.37-.39A2.46,2.46,0,0,1,107,119.43Z"/>
        <path class="a1071376-693e-455a-a819-abbc1eb663d5" d="M108,127.82c1.17-6,1.85-12.56-1.59-13.82-2-.74-5.44,3.6-6.69,12.15C99.35,128.54,107.12,130.45,108,127.82Z"/>
        <path class="f30f6e61-5d13-49c4-977b-997a3fa8f6ce" d="M104.35,114.64c4.42-5.84,11.45-7.92,17.48-7.66a20.39,20.39,0,0,0-16.57,9.24,47.51,47.51,0,0,0-2.1,12.59c-1.92-.48-3.63-1.51-3.46-2.66C100.58,120.1,102.56,116.17,104.35,114.64Z"/>
        <path class="a1071376-693e-455a-a819-abbc1eb663d5" d="M121.33,150.3a2,2,0,0,0,2.16,1.69c1.1-.14,1.83-1.21,2.85-1.65a1.3,1.3,0,0,1,.61-.14,1.89,1.89,0,0,1,.84.35l1.4.87c.12.07.28.15.4.07a.41.41,0,0,0,.11-.24,8.52,8.52,0,0,0,.17-1.67,1.46,1.46,0,0,0-.15-.83,1.56,1.56,0,0,0-.54-.48,7,7,0,0,0-3.59-1.44C123.94,146.7,121,148.51,121.33,150.3Z"/>
        <path class="a1071376-693e-455a-a819-abbc1eb663d5" d="M141.84,136.69c-1.34.9,1.16,3.25,2.17,3.6.76.27,1.09-.41,1.76-.08.9.45.37,1.68,1.63,1.48,2.88-.47.87-4,0-4.88C145.68,135.15,143.77,135.39,141.84,136.69Z"/>
        <path class="e95b0acc-44b8-4432-8c76-58671bd47291" d="M110.73,110.57c8.15,11.74,12.71,3.69,11.1,1a5.84,5.84,0,0,0-2.43-2.83,5.45,5.45,0,0,0-2.6-.71,11.08,11.08,0,0,0-6.07,2.52"/>
        <path class="f30f6e61-5d13-49c4-977b-997a3fa8f6ce" d="M113.73,108.79c.32,2.2,3,3,4.39,2.51,1-.34,1.15-4.51,1.25-6.83s-4.08-3.11-4.4-1.37C114.93,105.12,114.57,107.76,113.73,108.79Z"/>
        <g>
          <path class="e95b0acc-44b8-4432-8c76-58671bd47291" d="M125,106.09a4.53,4.53,0,0,1-2,3c-1.41.72-3.16.1-4.5-.72a14,14,0,0,1-6.75-12,7.14,7.14,0,0,1,1.73-4.87A7.28,7.28,0,0,1,119,89.68c1.45.07,5.26,0,6.51,5.19A22.29,22.29,0,0,1,125,106.09Z"/>
          <path class="a1071376-693e-455a-a819-abbc1eb663d5" d="M118,96.28c.93-.61,2.15-.29,3.26-.23a5.89,5.89,0,0,0,4.94-2.25,5.18,5.18,0,0,0,.49-5.34A4.61,4.61,0,0,0,122,86.07c-1.4.25-2.59,1.19-3.95,1.63-1.83.59-4,.29-5.57,1.39a4.87,4.87,0,0,0-1.82,3.14,12.82,12.82,0,0,0,0,3.71,76.68,76.68,0,0,0,1.69,9.37,2.48,2.48,0,0,0,.56,1.23c.81.8,2.32,0,2.62-1a4.16,4.16,0,0,0-.85-3.2c-.56-.88-1.19-2.13-.43-2.86a1.47,1.47,0,0,1,1.67-.1,4.67,4.67,0,0,1,.9.69C117.75,99.3,116.59,97.23,118,96.28Z"/>
        </g>
      </g>
      <g>
        <path class="a1071376-693e-455a-a819-abbc1eb663d5" d="M141.37,127.24l47.75-27.59v29.76l0,4.94,0,0h0c-4.06,4.43-11.44,10-20.93,15.48A136.12,136.12,0,0,1,141.37,162l-1-.59Z"/>
        <polygon class="a1071376-693e-455a-a819-abbc1eb663d5" points="141.37 127.25 189.17 99.65 188.15 99.06 140.35 126.66 141.37 127.25"/>
        <g>
          <polygon class="f30f6e61-5d13-49c4-977b-997a3fa8f6ce" points="161.5 154.8 172.35 148.53 176.88 156.39 170.09 160.31 161.5 154.8"/>
          <path class="a1071376-693e-455a-a819-abbc1eb663d5" d="M171.43,160.89l-.16-.28.68-2.85-2.91-10-4.34-12.28,10.31-6h0a1.79,1.79,0,0,1,1.54,1.26l6,20.07a4,4,0,0,1-.32,3.71,1.79,1.79,0,0,1-.43.36h0Z"/>
          <path class="a1071376-693e-455a-a819-abbc1eb663d5" d="M161.5,156.29l7.46,4.3c1.21.7,2.32.65,3-.12a4.06,4.06,0,0,0,.32-3.71l-6-20.07a1.77,1.77,0,0,0-1.54-1.25h0l6.38,21.21a2.57,2.57,0,0,1-.2,2.38c-.44.5-1.13.53-1.92.08l-7.46-4.31Z"/>
        </g>
        <polygon class="a1071376-693e-455a-a819-abbc1eb663d5" points="141.37 127.25 140.35 126.66 140.35 161.39 141.37 161.95 141.37 127.25"/>
      </g>
      <g>
        <path class="a1071376-693e-455a-a819-abbc1eb663d5" d="M112.25,169.85v-9.37h-9.38v9.38h0a2.34,2.34,0,0,0,1.38,1.92,7.37,7.37,0,0,0,6.63,0A2.32,2.32,0,0,0,112.25,169.85Z"/>
        <path class="a1071376-693e-455a-a819-abbc1eb663d5" d="M110.88,158.55c1.83,1,1.83,2.77,0,3.83a7.37,7.37,0,0,1-6.63,0c-1.83-1.06-1.83-2.78,0-3.83A7.31,7.31,0,0,1,110.88,158.55Z"/>
        <path class="a1071376-693e-455a-a819-abbc1eb663d5" d="M110.59,158.71c1.68,1,1.68,2.53,0,3.5a6.65,6.65,0,0,1-6,0c-1.68-1-1.68-2.53,0-3.5A6.71,6.71,0,0,1,110.59,158.71Z"/>
        <path class="e95b0acc-44b8-4432-8c76-58671bd47291" d="M110.59,160.57a6.71,6.71,0,0,0-6,0,2.75,2.75,0,0,0-.94.82,2.75,2.75,0,0,0,.94.82,6.65,6.65,0,0,0,6,0,2.85,2.85,0,0,0,.94-.82A2.85,2.85,0,0,0,110.59,160.57Z"/>
        <path class="a1071376-693e-455a-a819-abbc1eb663d5" d="M103.47,169.57a3,3,0,1,1,0-6.09.76.76,0,0,1,0,1.52,1.53,1.53,0,0,0,0,3.05.76.76,0,1,1,0,1.52Z"/>
      </g>
    </g>
  </g>
</svg>
