<svg xmlns="http://www.w3.org/2000/svg" xmlns:xlink="http://www.w3.org/1999/xlink" viewBox="0 0 300 300">
  <defs>
    <style>
      .b6b042a9-7850-4bcc-8b04-1905af98b6be {
        fill: none;
      }

      .a2d56b79-ba2e-463d-a422-329dbe6f9992 {
        isolation: isolate;
      }

      .a9ab1fc0-d515-43e3-a972-e7cf21ce2631 {
        clip-path: url(#e0d403f7-a110-4b62-9819-1872c7b9a657);
      }

      .fc37a1db-faae-477c-9c04-ba2bac2b1c03 {
        fill: #fff2cc;
      }

      .a5581efe-a402-4bbe-8993-ab1f4a56779a {
        fill: #f9eccb;
        stroke: #000;
      }

      .a1e0afd4-3302-4aa3-a60b-830dc89c1a1a, .a5581efe-a402-4bbe-8993-ab1f4a56779a, .f375116d-097c-4d13-a2c7-c5b2cf4c73f8 {
        stroke-linecap: round;
        stroke-linejoin: round;
        stroke-width: 2px;
      }

      .a1e0afd4-3302-4aa3-a60b-830dc89c1a1a {
        fill: #fc3;
      }

      .a1e0afd4-3302-4aa3-a60b-830dc89c1a1a, .f375116d-097c-4d13-a2c7-c5b2cf4c73f8 {
        stroke: #222;
      }

      .f375116d-097c-4d13-a2c7-c5b2cf4c73f8 {
        fill: #222;
      }
    </style>
    <clipPath id="e0d403f7-a110-4b62-9819-1872c7b9a657">
      <polygon class="b6b042a9-7850-4bcc-8b04-1905af98b6be" points="-26.77 210 149.43 107.61 326.78 210 150.58 312.4 -26.77 210"/>
    </clipPath>
  </defs>
  <g id="b86b6765-3310-4831-bd69-db40e93985e3" data-name="BASE">
    <g class="a2d56b79-ba2e-463d-a422-329dbe6f9992">
      <g class="a9ab1fc0-d515-43e3-a972-e7cf21ce2631">
        <path class="fc37a1db-faae-477c-9c04-ba2bac2b1c03" d="M238.1,158.8c-49-28.27-128.12-28.27-176.77,0s-48.4,74.11.57,102.39,128.13,28.27,176.78,0,48.39-74.12-.58-102.4"/>
      </g>
    </g>
  </g>
  <g id="b3b7835e-a7b2-4b00-abef-d3e226b63c06" data-name="Capa 6">
    <g>
      <g id="abfefdd2-c258-40b9-b4dc-0b0e43ef4345" data-name="LWPOLYLINE">
        <polyline class="a5581efe-a402-4bbe-8993-ab1f4a56779a" points="198.81 178.1 153.31 152.03 153.31 19.43 198.81 45.5 198.81 178.1"/>
        <line class="a1e0afd4-3302-4aa3-a60b-830dc89c1a1a" x1="160.84" y1="50.88" x2="191.66" y2="68.48"/>
        <line class="a1e0afd4-3302-4aa3-a60b-830dc89c1a1a" x1="160.84" y1="44.95" x2="191.66" y2="62.54"/>
        <line class="a1e0afd4-3302-4aa3-a60b-830dc89c1a1a" x1="160.65" y1="145.26" x2="191.47" y2="162.85"/>
        <line class="a1e0afd4-3302-4aa3-a60b-830dc89c1a1a" x1="160.65" y1="140.04" x2="191.47" y2="157.63"/>
        <line class="a1e0afd4-3302-4aa3-a60b-830dc89c1a1a" x1="160.65" y1="134.1" x2="191.47" y2="151.7"/>
        <line class="a1e0afd4-3302-4aa3-a60b-830dc89c1a1a" x1="160.07" y1="108.44" x2="173.94" y2="116.36"/>
        <line class="a1e0afd4-3302-4aa3-a60b-830dc89c1a1a" x1="160.07" y1="113.84" x2="173.94" y2="121.76"/>
        <line class="a1e0afd4-3302-4aa3-a60b-830dc89c1a1a" x1="160.07" y1="120.07" x2="173.94" y2="127.99"/>
        <line class="a1e0afd4-3302-4aa3-a60b-830dc89c1a1a" x1="160.84" y1="39.73" x2="191.66" y2="57.32"/>
        <g id="a32f1ad3-228c-438d-be04-1e3c4dcf1191" data-name="LWPOLYLINE">
          <polygon class="a1e0afd4-3302-4aa3-a60b-830dc89c1a1a" points="192.31 119.54 178.69 111.67 178.69 133.88 192.31 141.75 192.31 119.54"/>
        </g>
        <g id="bf1c3c5a-aa8c-4d90-a674-4592a5435a01" data-name="LWPOLYLINE">
          <polygon class="a1e0afd4-3302-4aa3-a60b-830dc89c1a1a" points="191.33 76.39 160.79 59.15 160.79 85.2 191.33 102.44 191.33 76.39"/>
        </g>
      </g>
      <g id="ab66985c-cc19-4eba-8871-ce094b004c4a" data-name="LWPOLYLINE">
        <polyline class="a1e0afd4-3302-4aa3-a60b-830dc89c1a1a" points="258.55 204.73 214.11 179.28 214.11 49.8 258.55 75.26 258.55 204.73"/>
        <line class="a1e0afd4-3302-4aa3-a60b-830dc89c1a1a" x1="221.47" y1="85.61" x2="251.56" y2="102.79"/>
        <line class="a1e0afd4-3302-4aa3-a60b-830dc89c1a1a" x1="221.47" y1="80.51" x2="251.56" y2="97.69"/>
        <line class="a1e0afd4-3302-4aa3-a60b-830dc89c1a1a" x1="221.47" y1="74.72" x2="251.56" y2="91.9"/>
        <line class="a1e0afd4-3302-4aa3-a60b-830dc89c1a1a" x1="221.28" y1="172.67" x2="251.38" y2="189.85"/>
        <line class="a1e0afd4-3302-4aa3-a60b-830dc89c1a1a" x1="221.28" y1="167.57" x2="251.38" y2="184.75"/>
        <line class="a1e0afd4-3302-4aa3-a60b-830dc89c1a1a" x1="221.28" y1="161.77" x2="251.38" y2="178.95"/>
        <line class="a1e0afd4-3302-4aa3-a60b-830dc89c1a1a" x1="218.87" y1="100.73" x2="232.41" y2="108.46"/>
        <line class="a1e0afd4-3302-4aa3-a60b-830dc89c1a1a" x1="218.87" y1="106.01" x2="232.41" y2="113.74"/>
        <line class="a1e0afd4-3302-4aa3-a60b-830dc89c1a1a" x1="218.87" y1="112.09" x2="232.41" y2="119.82"/>
        <line class="a1e0afd4-3302-4aa3-a60b-830dc89c1a1a" x1="238.95" y1="141.53" x2="252.5" y2="149.26"/>
        <line class="a1e0afd4-3302-4aa3-a60b-830dc89c1a1a" x1="238.95" y1="146.81" x2="252.5" y2="154.54"/>
        <line class="a1e0afd4-3302-4aa3-a60b-830dc89c1a1a" x1="238.95" y1="152.89" x2="252.5" y2="160.62"/>
        <line class="a1e0afd4-3302-4aa3-a60b-830dc89c1a1a" x1="221.47" y1="69.62" x2="251.56" y2="86.8"/>
        <g id="ee640b8f-7c81-45d1-98e9-e5efaeed90e0" data-name="LWPOLYLINE">
          <polygon class="a5581efe-a402-4bbe-8993-ab1f4a56779a" points="253.33 113.96 237.72 104.95 237.72 130.39 253.33 139.4 253.33 113.96"/>
        </g>
        <g id="be447ae5-ce58-4288-b3ce-f5ff21746d36" data-name="LWPOLYLINE">
          <polygon class="a5581efe-a402-4bbe-8993-ab1f4a56779a" points="236.04 137.25 220.44 128.24 220.44 153.68 236.04 162.69 236.04 137.25"/>
        </g>
      </g>
      <g>
        <path class="a1e0afd4-3302-4aa3-a60b-830dc89c1a1a" d="M105,107.69s-1.55-2.09-4.2,1.89c-1.11,1.68-1.48,13.55-.74,18.4a7.28,7.28,0,0,0,4.86,6s4.92-17.38,4.86-17.79S105,107.69,105,107.69Z"/>
        <g>
          <path class="f375116d-097c-4d13-a2c7-c5b2cf4c73f8" d="M116,193.65c1.9-.88,3.84-.81,4.88-1.44a4.85,4.85,0,0,0,1.73-2.56c.35-1-.28-1.39-.28-1.39a13,13,0,0,0-2.67-.17c-1.34.09-4.12.11-4.12.11a4.31,4.31,0,0,1-1.18,2.28c-1.06,1.16-3.74-.69-4.24-.29s-.67,2.5-.82,3.06c0,0,1.6.84,2.64,1.46S114.89,194.16,116,193.65Z"/>
          <path class="f375116d-097c-4d13-a2c7-c5b2cf4c73f8" d="M109.26,194.59c.27.76,1.86,1.17,2.87,1.18,2.21,0,4.25-1.35,5.31-1.49s4.11-.89,5.45-2.92.71-3.33-.56-3.1c0,0,.63.35.28,1.39a4.85,4.85,0,0,1-1.73,2.56c-1,.63-3,.56-4.88,1.44-1.11.51-3,1.68-4.06,1.06s-2.63-1.46-2.64-1.46A2.38,2.38,0,0,0,109.26,194.59Z"/>
          <path class="f375116d-097c-4d13-a2c7-c5b2cf4c73f8" d="M115.14,189.37a11.2,11.2,0,0,0,3,.11c1.18-.21,1.86-.64,1.49-1.39a33.21,33.21,0,0,0-4.12.11Z"/>
          <path class="f375116d-097c-4d13-a2c7-c5b2cf4c73f8" d="M120.36,190.76s-3.12.31-4,.55-1.28,1.25-1.94,1.63a4.17,4.17,0,0,1-2,.21,2,2,0,0,0,2.32.42c1.34-.7,1.49-1.53,2.67-1.56S120.18,191.52,120.36,190.76Z"/>
        </g>
        <g>
          <path class="f375116d-097c-4d13-a2c7-c5b2cf4c73f8" d="M105.61,186.54c1.9-.88,3.84-.81,4.88-1.43a4.85,4.85,0,0,0,1.73-2.56c.35-1-.28-1.39-.28-1.39a12.78,12.78,0,0,0-2.67-.18c-1.34.09-4.12.12-4.12.12a4.34,4.34,0,0,1-1.18,2.28c-1.06,1.15-3.74-.7-4.24-.29s-.67,2.49-.82,3.06c0,0,1.6.83,2.64,1.45S104.5,187.06,105.61,186.54Z"/>
          <path class="f375116d-097c-4d13-a2c7-c5b2cf4c73f8" d="M98.87,187.49c.27.76,1.86,1.16,2.87,1.18,2.21,0,4.25-1.35,5.31-1.49s4.11-.89,5.45-2.93.71-3.32-.56-3.09c0,0,.63.35.28,1.39a4.85,4.85,0,0,1-1.73,2.56c-1,.62-3,.55-4.88,1.43-1.11.52-3,1.69-4.06,1.06s-2.63-1.45-2.64-1.45A2.38,2.38,0,0,0,98.87,187.49Z"/>
          <path class="f375116d-097c-4d13-a2c7-c5b2cf4c73f8" d="M104.75,182.27a11.36,11.36,0,0,0,3,.1c1.18-.21,1.86-.63,1.49-1.39a32.37,32.37,0,0,0-4.12.12Z"/>
          <path class="f375116d-097c-4d13-a2c7-c5b2cf4c73f8" d="M110,183.65s-3.12.32-4,.56-1.28,1.25-1.94,1.63a4.13,4.13,0,0,1-2,.2,2,2,0,0,0,2.32.42c1.34-.69,1.49-1.52,2.67-1.56S109.79,184.42,110,183.65Z"/>
        </g>
        <path class="a1e0afd4-3302-4aa3-a60b-830dc89c1a1a" d="M98.79,183.65c2.3,1.54,5.12.66,7.23-1.24.14-3.89,1.74-10.81,2.27-17.38.42-5.11-.62-12-.4-14.19,1.29,3.95,2.33,11.69,3.3,16.32a155.85,155.85,0,0,0-1.07,23,4.24,4.24,0,0,0,6.68-1.08c.65-3.46,1.7-11.69,2.37-24.91.33-6.73-.66-18.26-1.72-25a50.67,50.67,0,0,0-1.9-7.39l-13.48.34a31.22,31.22,0,0,0-2.53,9c-.46,4.23.19,14.28,1.13,21.22C98.66,171.23,98.75,182.69,98.79,183.65Z"/>
        <path class="a5581efe-a402-4bbe-8993-ab1f4a56779a" d="M111.36,93.17c.69.48,3.26,1.07,4,6.74.63,5-.47,6.33-1.49,6.75a11.44,11.44,0,0,1-2.57.23l.08,4.24a7.18,7.18,0,0,1-4.88,0l-2.38-1a8.46,8.46,0,0,0,.78-4.39c-.2-3.45-1.42-8.36-.55-10.18A4.93,4.93,0,0,1,111.36,93.17Z"/>
        <path class="a1e0afd4-3302-4aa3-a60b-830dc89c1a1a" d="M100.79,136.06c1.14,1.35,6.28,2.46,8.06,2.68,2.68.32,6.8-.68,8.06-2.65-.5-4.52-.45-12.3-.45-12.3s1.26-5.2-.45-8.64-3-4.56-4.66-5.11-7.86-.44-7.86-.44-3.64,3.9-2.47,9C102.76,126.28,101.31,131.48,100.79,136.06Z"/>
        <path class="a5581efe-a402-4bbe-8993-ab1f4a56779a" d="M105,110.52s1.85,2.28,4.29,1.63a38.79,38.79,0,0,0,3.79-1.18,2.28,2.28,0,0,0-2-1.39,40.54,40.54,0,0,1-5.65-1.15Z"/>
        <path class="a1e0afd4-3302-4aa3-a60b-830dc89c1a1a" d="M115.52,98c-.18,2-1.78,2.53-3.2,4s-2.19,2.91-5.29,5.12c-1.13.81-.84,7.09-3,11.54-2.31,4.76-1,5.62-1,5.62s-6.57-2.12-3.89-9.46c1-2.68,4.73-4.87,4.86-7.7.06-1.3-1.68-2.61-2.24-5.07-1.75-7.74,1.84-10,5.23-10.66C113.08,90.08,115.89,94,115.52,98Z"/>
        <path class="a1e0afd4-3302-4aa3-a60b-830dc89c1a1a" d="M113.85,100.75s-1.49-2.55-2.13,0a2.59,2.59,0,0,0,1.47,3.17Z"/>
        <path class="a1e0afd4-3302-4aa3-a60b-830dc89c1a1a" d="M103.44,105.6s-.09,1.62.25,2a3.88,3.88,0,0,0,2.8.81,3.25,3.25,0,0,0,1.4-1.84A20.9,20.9,0,0,1,103.44,105.6Z"/>
        <path class="f375116d-097c-4d13-a2c7-c5b2cf4c73f8" d="M109.86,134.52c.15.33,2.07,3.5,4,1.17s1.45-9,1.45-9l1.61,1.88s-.21,9.42-3.84,10.28-4.22-2-4.22-2Z"/>
        <path class="a5581efe-a402-4bbe-8993-ab1f4a56779a" d="M122.93,142.71c-.52-.65-2.45-7.23-4-14.16-1.62-7.36-.74-15.21-4.55-15.19-2.77,0-3.4,1.43-3.67,2.86-.39,2.07,2.23,10.91,3.85,14.79,1,2.33,1.36,4.78,2.56,7.17.91,1.82,2.19,3.07,2.66,4.58.27.88-.11,2.07,0,3,.33,2.4,1.27,2.12,1,3.2s-1.37,1.69-.88,2.27,2.32-.38,2.93-2.27S124.36,144.46,122.93,142.71Z"/>
        <path class="f375116d-097c-4d13-a2c7-c5b2cf4c73f8" d="M114.41,112.43a7.3,7.3,0,0,0-5.56,5.27,31.71,31.71,0,0,0-1,10.29l2.06.88s.55-9.46,1.47-11.53c1.74-3.91,4.92-3.12,4.92-3.12Z"/>
        <g>
          <path class="a1e0afd4-3302-4aa3-a60b-830dc89c1a1a" d="M98.52,130c1.07-4.39,3.93-6.65,9.22-4.16s4.08,8.49,3.63,12.1-2.63,10.39-8.21,9.32C98.08,146.28,95.75,141.34,98.52,130Z"/>
          <path class="a1e0afd4-3302-4aa3-a60b-830dc89c1a1a" d="M100.79,132.84s-.62,1.93,1,2.35,1.66-1.51,1.66-1.51Z"/>
          <path class="a1e0afd4-3302-4aa3-a60b-830dc89c1a1a" d="M100,126.68s-1.42,4.72.79,6.16,5.51,1.66,6.95-.08a24.22,24.22,0,0,0,2.52-3.89,5.94,5.94,0,0,0-2.52,1.78,5,5,0,0,1-5.09,1.44C99.76,131.35,100,126.68,100,126.68Z"/>
          <path class="a1e0afd4-3302-4aa3-a60b-830dc89c1a1a" d="M98.94,137.14a10.88,10.88,0,0,0,4.4,1.87,20.94,20.94,0,0,0,4.64.33s-1.89,7.23-6.31,5.43C97.61,143.12,98.94,137.14,98.94,137.14Z"/>
        </g>
        <path class="a1e0afd4-3302-4aa3-a60b-830dc89c1a1a" d="M117.45,139.7a9.94,9.94,0,0,1-2.08,3.36,32.1,32.1,0,0,1-2.49,2.38l.36,1.93a11,11,0,0,0,2.44-1.93,9.43,9.43,0,0,0,2.18-3.33Z"/>
      </g>
      <g>
        <path class="a1e0afd4-3302-4aa3-a60b-830dc89c1a1a" d="M191.58,123.76c-1.75,3.27-3.87,8.46-5.44,12.23-1.11,2.66-2.12,4-1.78,6.13,3.2-1,2.55,0,4.35,2.6a8,8,0,0,0,5.09-3.06,26.61,26.61,0,0,0,3.1-8.26l1.54-12.16S194.19,118.88,191.58,123.76Z"/>
        <path class="f375116d-097c-4d13-a2c7-c5b2cf4c73f8" d="M188.23,210.55s-1.4,1.52-3.26,3.33-2.26,2.17-3.86,3.73c-.93.91-.16,1.75,1.62,1.68a32.07,32.07,0,0,0,7.09-1.53,36.81,36.81,0,0,0,5.31-2.77,3.51,3.51,0,0,0,1.58-2v-4.42Z"/>
        <path class="f375116d-097c-4d13-a2c7-c5b2cf4c73f8" d="M209.73,218.36s-.32,2.88-.52,6.49.31,6.8,1.41,7.19,4.25.35,6-4.66a19.91,19.91,0,0,0,.72-9.88Z"/>
        <path class="a1e0afd4-3302-4aa3-a60b-830dc89c1a1a" d="M213.94,166.2c.66-10.29-5-15.7-5-15.7.45-3.47-15.63,1.38-15.63,1.38s-3.45,18.64-4.9,28.46c-1.66,11.15-2.13,28.24-2.13,28.24a5.31,5.31,0,0,0,5.27,3.17c3.19,0,5.81-2.6,5.81-2.6L198,188l3.69-18.33s.63,17.11,3,22c4.28,9,3.27,27.31,3.27,27.31a14.4,14.4,0,0,0,7.76,1.51c3-.37,4.29-3.71,4.29-3.71s.08-16.33-4.67-27C214.91,181.65,213.64,170.92,213.94,166.2Z"/>
        <path class="a1e0afd4-3302-4aa3-a60b-830dc89c1a1a" d="M215.3,151.16c-1.09-5.4,2.33-14.33,1.88-20.61-.74-2.41-3.14-3.44-4.9-4.59a41,41,0,0,1-3.63-2.62l-8.49-.15s-1.26-2.57-3.94,0c-5.66,5.43-5,18.43-4.66,24.27.3,5.32-.68,5.77.8,8-.2,2.14,12.48,6.7,19.45,4.35C216.47,158.21,215.49,152.13,215.3,151.16Z"/>
        <path class="a1e0afd4-3302-4aa3-a60b-830dc89c1a1a" d="M200.58,128.84s-2.31,8.93-1.68,11.31,1.7,7.42,1.54,10.47-.49,6.68,0,8a4.32,4.32,0,0,0,1.4,2,24.46,24.46,0,0,1-.63-6.22,25.71,25.71,0,0,0,0-7.78c-.28-1.8-.7-3.14-1-4.49a12.49,12.49,0,0,1-.21-4.36,84.71,84.71,0,0,1,1.73-8.53Z"/>
        <path class="a1e0afd4-3302-4aa3-a60b-830dc89c1a1a" d="M199.49,127.46a15,15,0,0,0-.15,3.1c.14,1.18,1,1.76,2.39.78a9.69,9.69,0,0,0,2.37-2.46Z"/>
        <path class="f375116d-097c-4d13-a2c7-c5b2cf4c73f8" d="M200.45,129.77a20.7,20.7,0,0,0-2.07,5.71,73.05,73.05,0,0,0-1.44,11.1c-.23,3.78-.72,4.81-.72,4.81l1.54,4.36,3.31-2.05s.54-6.48.65-10-.69-6.78-.69-9.43,0-3.54,0-3.54Z"/>
        <g>
          <path class="a5581efe-a402-4bbe-8993-ab1f4a56779a" d="M201.12,122l-.77,4.45a6.72,6.72,0,0,0,.77,2.79,23.94,23.94,0,0,0,4.56-1.77,11.85,11.85,0,0,0,3.25-2.58l-1.37-7.57Z"/>
          <path class="a5581efe-a402-4bbe-8993-ab1f4a56779a" d="M208.32,109a6.42,6.42,0,0,0-10.55.77c-3.6,5.34-.2,14.06,3,13.55,1.77-.28,5.75-1.9,7.49-4.74C210.19,115.34,209.75,110.78,208.32,109Z"/>
          <path class="a1e0afd4-3302-4aa3-a60b-830dc89c1a1a" d="M195.43,111a8.71,8.71,0,0,0,6.14,3.44,11.63,11.63,0,0,0,4.37-.43l-.37,2.44a2.73,2.73,0,0,0,.9-.09c.36-1.22,1.46-1.1,1.81-.41a5.41,5.41,0,0,1-.06,2.65,6.6,6.6,0,0,0,3-5.35c.08-2.31-.25-8.06-6-7.32C201.12,103.67,196.37,104.83,195.43,111Z"/>
        </g>
        <path class="a1e0afd4-3302-4aa3-a60b-830dc89c1a1a" d="M215.22,127.87c-1.67,0-4,5.44-4.88,9.82a80.69,80.69,0,0,1-3.46,10.88c2.15.12.68,5.4,2.42,6.86,1.95.23,4.85-2.08,5.27-2.86,1.84-3.43,4.88-9.44,5.46-12.58C221.37,132.74,219.31,127.87,215.22,127.87Z"/>
        <path class="a1e0afd4-3302-4aa3-a60b-830dc89c1a1a" d="M199,122.71l-2.32,3.39,4.44,3.12a22.11,22.11,0,0,1-.21-6A1.89,1.89,0,0,1,199,122.71Z"/>
        <path class="a1e0afd4-3302-4aa3-a60b-830dc89c1a1a" d="M208.43,122.11s-2.78,2.48-4.21,3.62a21,21,0,0,0-3.1,3.49l5.76.23s2.45-4.8,2.42-5.46A5.59,5.59,0,0,0,208.43,122.11Z"/>
        <path class="a1e0afd4-3302-4aa3-a60b-830dc89c1a1a" d="M183.84,137.1c.85-.86,3.2-1,4.82.29s2.09,6.67-.14,8-3.66.86-4.51-.11a7.23,7.23,0,0,1-1.42-5.68A5.83,5.83,0,0,1,183.84,137.1Z"/>
        <path class="a1e0afd4-3302-4aa3-a60b-830dc89c1a1a" d="M204.21,147.92c.85-.86,3.48-1.13,5.09.19s2.47,6.64.25,8-4.32,1-5.17,0a7.27,7.27,0,0,1-1.42-5.69A5.68,5.68,0,0,1,204.21,147.92Z"/>
        <path class="a1e0afd4-3302-4aa3-a60b-830dc89c1a1a" d="M197,119.84a4.59,4.59,0,0,0,3.31,2.21,4.32,4.32,0,0,0,3.83-2.21,28.65,28.65,0,0,0,1.39-3.44l.9-.09s-.69,6.47-5.11,7.39S197,119.84,197,119.84Z"/>
        <path class="a1e0afd4-3302-4aa3-a60b-830dc89c1a1a" d="M192.36,155.43l-.1,2.13s6.15,4.19,13.3,3.93,8.07-1.07,8.07-1.07l.35-2.06s-2.17,1.42-9.8.78S192.36,155.43,192.36,155.43Z"/>
        <polygon class="a1e0afd4-3302-4aa3-a60b-830dc89c1a1a" points="204.27 135.17 203.97 136.43 209.07 137.69 209.3 136.43 204.27 135.17"/>
        <path class="a5581efe-a402-4bbe-8993-ab1f4a56779a" d="M184.5,138.56s-4.13,1.54-6.94,2.43-5.25,1.72-6.56,1.71a14.81,14.81,0,0,1-4.52-.49c-1-.39-1.06.38-.07,1.14s2.11.67,2,1.3-2.62.67-4.06,3.13c-.85,1.45-.46,3.53,1.9,3.28s5.76-3.28,6.82-3.8a19.93,19.93,0,0,1,5.89-1.38c1.89-.26,7.95-1.35,7.95-1.35S188.3,139.8,184.5,138.56Z"/>
        <path class="a5581efe-a402-4bbe-8993-ab1f4a56779a" d="M205.4,149.25s-4.2,1.25-7,2.43a19.1,19.1,0,0,1-6.55,1.71,30.66,30.66,0,0,0-5,0c-1.18.25-.39.91.92,1.17s2.29.87,1.83,1.13-3.2,1.1-4.58,3.23c-.91,1.41-.72,3.37,1.63,3.12s5.54-3,7.28-3.81c1.06-.52,2.23-.78,5.37-1.21,1.89-.26,8.4-1.8,8.4-1.8S209.19,150.49,205.4,149.25Z"/>
      </g>
      <g>
        <g>
          <path class="f375116d-097c-4d13-a2c7-c5b2cf4c73f8" d="M127.86,235a6.8,6.8,0,0,0-1.43,3c-.4,1.61.17,2.92,1.32,3.36s3.14-.49,4.11-1.43c1.22-1.18,2.72-1.41,5-2.67s3.78-3.45,2.51-4.85c-.93-1-1.95-1.26-3.81-.72-1,.28-5.93,2.8-5.93,2.8Z"/>
          <path class="f375116d-097c-4d13-a2c7-c5b2cf4c73f8" d="M131.2,233.79s1.87-.73,2.94-1.12c1.25-.45,2.21.36.7,1.38s-3.6,2.24-3.6,2.24Z"/>
          <path class="f375116d-097c-4d13-a2c7-c5b2cf4c73f8" d="M128.3,240.37a2,2,0,0,0,2.28.11,18.48,18.48,0,0,0,2.49-1.92,17.7,17.7,0,0,0,4.15-1.72,7.59,7.59,0,0,0,2.65-3.05s.38,1.79-2.15,3.43a13.19,13.19,0,0,1-4.31,2c-.88.31-3.47,3.14-5.9,2.25a2,2,0,0,1-1.21-2.33A5.69,5.69,0,0,1,128.3,240.37Z"/>
          <path class="f375116d-097c-4d13-a2c7-c5b2cf4c73f8" d="M138.44,234.42s-2.53.76-3.86,1.36-2,1.69-3.08,2.54a7,7,0,0,1-2.29,1.14,4.09,4.09,0,0,0,3.32-1.14,7.81,7.81,0,0,1,3.8-1.92A4.11,4.11,0,0,0,138.44,234.42Z"/>
        </g>
        <g>
          <path class="f375116d-097c-4d13-a2c7-c5b2cf4c73f8" d="M141.45,242.35a6.8,6.8,0,0,0-1.43,3c-.4,1.62.17,2.92,1.32,3.36s3.14-.49,4.11-1.43c1.23-1.18,2.73-1.41,5.05-2.66s3.79-3.45,2.51-4.85c-.92-1-1.95-1.26-3.81-.72-1,.28-5.93,2.8-5.93,2.8Z"/>
          <path class="f375116d-097c-4d13-a2c7-c5b2cf4c73f8" d="M144.79,241.16s1.87-.74,2.94-1.12c1.25-.45,2.21.35.7,1.38s-3.6,2.24-3.6,2.24Z"/>
          <path class="f375116d-097c-4d13-a2c7-c5b2cf4c73f8" d="M141.89,247.74a2,2,0,0,0,2.28.1,17.19,17.19,0,0,0,2.49-1.91,18.49,18.49,0,0,0,4.15-1.73,7.53,7.53,0,0,0,2.65-3s.39,1.79-2.15,3.43a12.75,12.75,0,0,1-4.31,1.95c-.88.32-3.47,3.15-5.89,2.25a2,2,0,0,1-1.22-2.32A5.6,5.6,0,0,1,141.89,247.74Z"/>
          <path class="f375116d-097c-4d13-a2c7-c5b2cf4c73f8" d="M152,241.78a39.81,39.81,0,0,0-3.87,1.37c-1.33.6-2,1.69-3.08,2.53a6.89,6.89,0,0,1-2.29,1.15,4.11,4.11,0,0,0,3.32-1.15,7.68,7.68,0,0,1,3.8-1.91A4.15,4.15,0,0,0,152,241.78Z"/>
        </g>
        <path class="a1e0afd4-3302-4aa3-a60b-830dc89c1a1a" d="M129.91,168.59a62.28,62.28,0,0,1,0,6.82c-.23,2.53.15,4,1.8,4.75s7.14-2.9,7.14-2.9l-1.75-8.67Z"/>
        <path class="f375116d-097c-4d13-a2c7-c5b2cf4c73f8" d="M138.85,159.81s-1.62-5-5.57-3.58c-2.73,1-3.84,2.94-4.07,7.5a46.83,46.83,0,0,0,0,6.63s2.26,2.85,4.77,1.91a4.8,4.8,0,0,0,3-3.09Z"/>
        <path class="a5581efe-a402-4bbe-8993-ab1f4a56779a" d="M150.5,167.5s2.8-2.13,3.48.29-.23,3.17.46,4.27,2.71,8.45,1,11.48-7.17-5.38-7.17-5.38Z"/>
        <path class="a1e0afd4-3302-4aa3-a60b-830dc89c1a1a" d="M148.7,189.86h-7.35L132,184.7a54.68,54.68,0,0,0-2.16,6.79c-.68,3-.06,4.73.82,7.43.54,1.64.86,11.7.78,14.68-2.39,5.73-4.09,22.13-4.09,22.13a5.87,5.87,0,0,0,3.86,2.32,4.74,4.74,0,0,0,5-2.32s.83-3.88,1.5-9.36c.55-4.48,2-9,2.05-10.56.12-3.68,0-8.15.51-12.89.5,3,2.51,14,2.61,15.89-.16.87-.66,2.29-1.2,5.45a163,163,0,0,0-1.4,17.86s1.28,3.2,3.81,3.27c4,.11,5.2-2.66,5.2-2.66s2.59-21.61,2.84-25.13S148.7,189.86,148.7,189.86Z"/>
        <path class="a1e0afd4-3302-4aa3-a60b-830dc89c1a1a" d="M137.7,157.53a5.48,5.48,0,0,0-4.77,1.47c-1.85,1.57-2.68,6.34-1.66,12.46s0,14.95,0,14.95a19.1,19.1,0,0,0,7.17,5.45c6.43,2.57,10.49-.17,10.49-.17s1.53-13.63,1.53-18.46c0-3.56-.56-7.06-3-9.54a16.21,16.21,0,0,0-3.78-2.22A25.33,25.33,0,0,1,137.7,157.53Z"/>
        <path class="a1e0afd4-3302-4aa3-a60b-830dc89c1a1a" d="M137.7,158.69a7.5,7.5,0,0,0-1.79,1.59c-.61.85-1.54,2.44,1.19,3.35a7.12,7.12,0,0,0,5.81-.4,22.31,22.31,0,0,0,1.92-1.22l-4.17-2.58Z"/>
        <path class="a1e0afd4-3302-4aa3-a60b-830dc89c1a1a" d="M131.44,185.06l-.51,2.47s5,8,13.25,7.06a14,14,0,0,0,4.94-1.85l-.07-1.8s-1.35.85-5.31.62a18.2,18.2,0,0,1-9-3A10.1,10.1,0,0,1,131.44,185.06Z"/>
        <path class="a5581efe-a402-4bbe-8993-ab1f4a56779a" d="M143.07,142.93a6.16,6.16,0,0,0-6.11,3.55c-.84,1.76.34,6.49.53,9.81a8.05,8.05,0,0,1-.75,4.23s-.83,1.41,1.55,2.13,5.44-1.18,5.44-1.18l-.07-4.09a11.19,11.19,0,0,0,2.91-.76c1-1,1.59-3.8,1.11-7.47C147,143.69,144.66,142.94,143.07,142.93Z"/>
        <path class="a1e0afd4-3302-4aa3-a60b-830dc89c1a1a" d="M137.49,156.29s4.39-1.24,5.67-2.94a13.88,13.88,0,0,0,1.91-4.44,20.16,20.16,0,0,0,3.81-1.49,8.44,8.44,0,0,0,1.69-2h-2.11l1.27-1.47s-2.54-.43-3.49-1.54-4-2.34-6-1.3a6.34,6.34,0,0,0-2.72,3.59,5.39,5.39,0,0,0-3.21,2c-.95,1.52.53,5.33,1.8,6.6A5.35,5.35,0,0,1,137.49,156.29Z"/>
        <path class="f375116d-097c-4d13-a2c7-c5b2cf4c73f8" d="M149.58,182.54s-1,7.27-4.48,8.91a21.77,21.77,0,0,1-4.54,1.8l.73,1.85s4.24,0,6.69-2.9,3.47-9.66,3.47-9.66Z"/>
        <path class="a1e0afd4-3302-4aa3-a60b-830dc89c1a1a" d="M147.07,164.87c-1.68.52-3.33,3.81-3.33,7.5,0,2,1.37,3.67,2.25,5.75,2.48,5.85,3.39,7.11,5.47,7.86,1,.36,1.91.89,2.87.13s1.28-3.14,1.28-5c0-2.18-2.27-5.27-3.22-8.3S149.91,164,147.07,164.87Z"/>
        <path class="a1e0afd4-3302-4aa3-a60b-830dc89c1a1a" d="M148.28,163.63a5.58,5.58,0,0,1,2.29,2.38,23.17,23.17,0,0,1,2.05,5.17,19.13,19.13,0,0,0,1.36,3.18,6.51,6.51,0,0,1-3.53,3.44,12.72,12.72,0,0,1-4.87,1.18,26.32,26.32,0,0,1-2.9-6.1c-.56-2.44-.25-6.13,1.32-7.6A7.89,7.89,0,0,1,148.28,163.63Z"/>
        <path class="f375116d-097c-4d13-a2c7-c5b2cf4c73f8" d="M146,162.62a7.87,7.87,0,0,0-5.18,4.85,30.42,30.42,0,0,0-1.61,10.33l2.45.36s-.28-8.38,2.08-11.18a10,10,0,0,1,4.54-3.35A2.22,2.22,0,0,0,146,162.62Z"/>
        <path class="a1e0afd4-3302-4aa3-a60b-830dc89c1a1a" d="M139,175.08c-1.55,0-3.93,1.7-5.05,3.64s-1.29,10.15-.95,13.71,3.64,6.87,7.53,6.49,6.27-3.08,6.1-5.22-2.41-8.42-2.66-12.35S143.71,175.23,139,175.08Z"/>
        <path class="a1e0afd4-3302-4aa3-a60b-830dc89c1a1a" d="M134.87,187.27s-.65,2.13.72,2.48,1.51-2.22,1.51-2.22Z"/>
        <path class="a1e0afd4-3302-4aa3-a60b-830dc89c1a1a" d="M133,184.35a6.5,6.5,0,0,0,3.9,2.1c2.16.12,3.92-1,4.26-2.44s-.23-4.22.68-5,.49,1.11.45,2.14,1.27,3.73-2.51,5.9a4.91,4.91,0,0,1-6.84-1.54Z"/>
      </g>
      <g>
        <g>
          <path class="f375116d-097c-4d13-a2c7-c5b2cf4c73f8" d="M76.43,243.24a7.49,7.49,0,0,0-1.58,3.29c-.45,1.79.18,3.23,1.46,3.72s3.47-.54,4.56-1.58c1.35-1.31,3-1.56,5.58-3s4.2-3.82,2.79-5.37c-1-1.14-2.16-1.4-4.23-.79-1.06.31-6.56,3.1-6.56,3.1Z"/>
          <path class="f375116d-097c-4d13-a2c7-c5b2cf4c73f8" d="M80.13,241.91s2.08-.81,3.26-1.24c1.39-.49,2.45.4.78,1.53s-4,2.48-4,2.48Z"/>
          <path class="f375116d-097c-4d13-a2c7-c5b2cf4c73f8" d="M76.92,249.2a2.18,2.18,0,0,0,2.53.12,22,22,0,0,0,2.76-2.12,20.34,20.34,0,0,0,4.59-1.91,8.34,8.34,0,0,0,2.93-3.38s.43,2-2.38,3.8a14.33,14.33,0,0,1-4.77,2.17c-1,.35-3.85,3.49-6.53,2.49a2.21,2.21,0,0,1-1.35-2.57A6.29,6.29,0,0,1,76.92,249.2Z"/>
          <path class="f375116d-097c-4d13-a2c7-c5b2cf4c73f8" d="M88.16,242.61a44.73,44.73,0,0,0-4.28,1.51c-1.48.67-2.21,1.87-3.42,2.81a7.77,7.77,0,0,1-2.54,1.27s1.61.4,3.68-1.27a8.71,8.71,0,0,1,4.22-2.13A4.53,4.53,0,0,0,88.16,242.61Z"/>
        </g>
        <g>
          <path class="f375116d-097c-4d13-a2c7-c5b2cf4c73f8" d="M63.25,236.63a7.64,7.64,0,0,0-1.59,3.29c-.44,1.79.19,3.24,1.47,3.73s3.47-.55,4.55-1.59c1.36-1.3,3-1.56,5.59-2.95s4.2-3.82,2.79-5.38c-1-1.13-2.16-1.39-4.23-.79-1.06.31-6.56,3.1-6.56,3.1Z"/>
          <path class="f375116d-097c-4d13-a2c7-c5b2cf4c73f8" d="M67,235.31s2.07-.81,3.26-1.24c1.38-.5,2.45.39.78,1.53s-4,2.48-4,2.48Z"/>
          <path class="f375116d-097c-4d13-a2c7-c5b2cf4c73f8" d="M63.74,242.6a2.2,2.2,0,0,0,2.52.12A19.67,19.67,0,0,0,69,240.59a19.81,19.81,0,0,0,4.6-1.91,8.28,8.28,0,0,0,2.93-3.37s.43,2-2.38,3.8a14.25,14.25,0,0,1-4.78,2.17c-1,.34-3.84,3.48-6.52,2.49a2.22,2.22,0,0,1-1.35-2.58A6.32,6.32,0,0,1,63.74,242.6Z"/>
          <path class="f375116d-097c-4d13-a2c7-c5b2cf4c73f8" d="M75,236s-2.8.85-4.28,1.51-2.2,1.88-3.41,2.81a7.54,7.54,0,0,1-2.54,1.27s1.61.41,3.68-1.27a8.65,8.65,0,0,1,4.21-2.12A4.57,4.57,0,0,0,75,236Z"/>
        </g>
        <path class="a1e0afd4-3302-4aa3-a60b-830dc89c1a1a" d="M66.18,172.07s-2.09,8.56-1.92,12.07,6.86,3,8.45,2.48,1.84-13.28,1.84-13.28Z"/>
        <path class="a1e0afd4-3302-4aa3-a60b-830dc89c1a1a" d="M67.54,190.86s-1.07,5.65-1.3,8.39.43,13.13-.18,16.41c-2.09,5.47-4,15.42-4,20.69,0,1.32.3,2.63,4,3,3.3.35,5.5-3.38,5.5-3.38s1.82-12.11,2.73-16.13S75.41,207,75.41,207s2,11.52,2.5,15A99.12,99.12,0,0,0,75,244.22c.61,1.2.83,2,5.12,2,3.69,0,4.89-3.63,4.89-3.63s2.14-16.86,2-23-2.12-24.17-2.12-24.17Z"/>
        <path class="f375116d-097c-4d13-a2c7-c5b2cf4c73f8" d="M74.09,164s-4.3-2.48-6.43,1.42a23.31,23.31,0,0,0-2.46,8.23s3.36,3.58,6.47,2.77S74.09,164,74.09,164Z"/>
        <path class="a5581efe-a402-4bbe-8993-ab1f4a56779a" d="M83.18,152c-2.82-5.5-2.1-3.6-2.84-4.11a5.33,5.33,0,0,0-7.61,2.6c-.93,2,.39,7.29.6,11l-.84,4.74,2.58,1.07a3.83,3.83,0,0,0,4.24-.75l-.09-4.59a23.7,23.7,0,0,0,2.8-.66C83.12,160.81,85.09,155.69,83.18,152Z"/>
        <path class="a1e0afd4-3302-4aa3-a60b-830dc89c1a1a" d="M66.83,195.27c1.57,1.57,5.42,4.73,12.27,3.57,3.28-.56,5.66-1.4,6.94-4.09-.26-2.59-.8-4.06-.68-6.59.3-6.84,1.86-14.18,0-17.23-2.55-4.17-4.52-4.66-6.6-5.17s-8.31,0-8.31,0-2.8,2.34-2.34,9.1C69,187.18,66.86,189.34,66.83,195.27Z"/>
        <path class="a1e0afd4-3302-4aa3-a60b-830dc89c1a1a" d="M70.45,165.76s2.82,3.79,5.85,2.65a49.2,49.2,0,0,0,4.69-2,2.9,2.9,0,0,0-2.69-1.51,38.19,38.19,0,0,1-7-.9Z"/>
        <path class="a1e0afd4-3302-4aa3-a60b-830dc89c1a1a" d="M74.17,146.44s4.21-3.06,7.65.65S84,152.15,83,153.23c0,2.8-2.42,3.9-5.21,6.23-3,2.54-4.49,2-4.49,2S64.57,150.64,74.17,146.44Z"/>
        <path class="a1e0afd4-3302-4aa3-a60b-830dc89c1a1a" d="M81.82,156s-1.61-2.76-2.3,0a2.81,2.81,0,0,0,1.59,3.43Z"/>
        <path class="f375116d-097c-4d13-a2c7-c5b2cf4c73f8" d="M81.82,166.94c-2.36.4-4.55,1.19-6.33,6.6s-3.83,16-.95,18.38c4.67,3.81,9.69.4,11-1.64a1.54,1.54,0,0,0-.2-2.12s-4.85,3.46-7.45,2.62-1.14-4.41-1-8.47c.07-2.86,0-6.86,1.38-10.1,1.29-3,5.45-4,5.45-4S83.1,166.72,81.82,166.94Z"/>
        <path class="a1e0afd4-3302-4aa3-a60b-830dc89c1a1a" d="M66.83,170.53a48.24,48.24,0,0,1,7.72,2.81c2.6,1.31,3.67,2.75,3,7.15s.53,9.63.63,11.71-1.77,6.58-5.37,6.48-9.45-2-10.48-6.48.28-12.78.76-16.71S65.43,170.11,66.83,170.53Z"/>
        <path class="a1e0afd4-3302-4aa3-a60b-830dc89c1a1a" d="M61.47,192.2c-.13-1.44.36-6.63,5.36-4.82s5.06,3.59,5.57,6.05.52,3.27,1.36,4.08a1.48,1.48,0,0,0,1.79.23s-3,3.14-9.57.71C61.66,196.85,61.64,194,61.47,192.2Z"/>
        <path class="a1e0afd4-3302-4aa3-a60b-830dc89c1a1a" d="M67.72,169.09c-1.35.54-3.16,2-3.75,5.25s-.11,5.35,2.86,6.7,4.5.29,5.57-2.53,3-5,3.78-4.15a9.8,9.8,0,0,1,1.38,2.19s1.53-3.62-1.84-5.35S69.31,168.45,67.72,169.09Z"/>
        <path class="a1e0afd4-3302-4aa3-a60b-830dc89c1a1a" d="M65.73,179.7a6.75,6.75,0,0,0-.24,1.92c.09,1.12,1.51,2.07,1.88.55s.25-1.76.25-1.76Z"/>
        <path class="a1e0afd4-3302-4aa3-a60b-830dc89c1a1a" d="M62.51,188.16s1-1.17,4.32,0c3,1,3.71,2.15,4,4s.3,3.59,1.13,5.31a3.42,3.42,0,0,0,1.48,1.58l-1.13.19s-.92-.13-1.48-1.77a38.38,38.38,0,0,1-1-5.56c-.27-1.57-2-2.67-3.59-3.24A12.77,12.77,0,0,0,62.51,188.16Z"/>
        <path class="a1e0afd4-3302-4aa3-a60b-830dc89c1a1a" d="M64.89,172.65s-1.22,3.45-.53,5.27a3.62,3.62,0,0,0,2.73,2.68c1.48.56,2.75.47,3.36-.63s1-2.54,1.36-3.27,1.13-2,1.13-2a30,30,0,0,0-4.06-1.85A8.45,8.45,0,0,0,64.89,172.65Z"/>
        <path class="a1e0afd4-3302-4aa3-a60b-830dc89c1a1a" d="M67.15,191.53c-.14.58-1,.87-1.94.64s-1.55-.89-1.41-1.47,1-.87,1.94-.64S67.29,191,67.15,191.53Z"/>
        <path class="a1e0afd4-3302-4aa3-a60b-830dc89c1a1a" d="M75.72,175.49c-.59.12-1.77,2.77-2.15,6.13A61.79,61.79,0,0,0,74.15,194c.41,2.55,1.84,2.64,2.73,1.09s.38-3.16,0-5a57.24,57.24,0,0,1-.34-11.57C76.92,176.26,76.45,175.34,75.72,175.49Z"/>
        <path class="a5581efe-a402-4bbe-8993-ab1f4a56779a" d="M82.89,177.81s1.09,3.45,1.8,5A17.46,17.46,0,0,0,87,187c-.47.76-3.83,6.22-4.77,7.57a3.13,3.13,0,0,0-.12,3.49c.47.85,1.75,1.24,2.36,2a10.37,10.37,0,0,1,1.13,2.88s1.78-.51,1.69-1.88-2.67-4.44-2-5.15,5.43-4.71,6.75-6.57,0-3.77-.9-6.51a68.29,68.29,0,0,0-2.95-7.1Z"/>
        <path class="a1e0afd4-3302-4aa3-a60b-830dc89c1a1a" d="M90.74,179.53c-.15-1.7-1.24-3.86-2-6.21-1.79-5.34-5-5.13-5-5.13-3.36-.18-3.49,5-2.82,8.87a26,26,0,0,0,1.7,5.44C85.71,183.18,89.44,183,90.74,179.53Z"/>
      </g>
    </g>
  </g>
</svg>
