<svg xmlns="http://www.w3.org/2000/svg" xmlns:xlink="http://www.w3.org/1999/xlink" viewBox="0 0 300 300">
  <defs>
    <style>
      .bafa0e06-a98a-496f-8a2d-55a838189a91 {
        fill: none;
      }

      .ba5b13e8-233d-4212-964c-21bf731d0538 {
        isolation: isolate;
      }

      .bbfed81e-5403-4eaf-b558-bc7da1ce4348 {
        clip-path: url(#ac4e5823-253e-4fff-a9f1-77594b8ceeab);
      }

      .a679acf5-4279-47b2-b56d-99ddae87a067, .fb82ea90-f9ac-4d17-9874-badb47e74dfd {
        fill: #fff2cc;
      }

      .a679acf5-4279-47b2-b56d-99ddae87a067, .b64d6a3b-b913-4781-9472-35b9a7638bae, .f5227558-422b-46cd-8d45-d9926450832a {
        stroke: #222;
        stroke-linecap: round;
        stroke-linejoin: round;
        stroke-width: 2px;
        fill-rule: evenodd;
      }

      .b64d6a3b-b913-4781-9472-35b9a7638bae {
        fill: #fc3;
      }

      .f5227558-422b-46cd-8d45-d9926450832a {
        fill: #222;
      }
    </style>
    <clipPath id="ac4e5823-253e-4fff-a9f1-77594b8ceeab">
      <polygon class="bafa0e06-a98a-496f-8a2d-55a838189a91" points="-26.77 200 149.42 97.61 326.77 200 150.58 302.39 -26.77 200"/>
    </clipPath>
  </defs>
  <g id="bfe10772-332a-4e70-8c3c-9a1f9d7dbdbc" data-name="BASE">
    <g class="ba5b13e8-233d-4212-964c-21bf731d0538">
      <g class="bbfed81e-5403-4eaf-b558-bc7da1ce4348">
        <path class="fb82ea90-f9ac-4d17-9874-badb47e74dfd" d="M238.1,148.8c-49-28.27-128.12-28.27-176.78,0s-48.39,74.12.58,102.4,128.12,28.27,176.77,0,48.4-74.12-.57-102.4"/>
      </g>
    </g>
    <path class="a679acf5-4279-47b2-b56d-99ddae87a067" d="M217.53,196.48q-14.15,8.18-34.09,8.17t-34.08-8.17q-14.15-8.16-14.14-19.68t14.14-19.68Q163.51,149,183.44,149t34.08,8.17q14.14,8.17,14.15,19.68T217.53,196.48Z"/>
    <polygon class="a679acf5-4279-47b2-b56d-99ddae87a067" points="85.68 196.39 132.09 224.01 110.16 236.74 63.75 209.12 85.68 196.39"/>
  </g>
  <g id="e513f1a1-56cf-45ed-bf8b-1405f58fb90a" data-name="ESCENA">
    <g>
      <path class="b64d6a3b-b913-4781-9472-35b9a7638bae" d="M126.07,158.76c0,.19.06.47.13.82s.11.65.13.82a10.67,10.67,0,0,0,.1,5.1c.25,1.12.75,2.78,1.48,5A1.92,1.92,0,0,0,129,171.8a3,3,0,0,0,1.77.26c0,.29,0,.51,0,.65a1.76,1.76,0,0,1-.88,1.18,1.25,1.25,0,0,1-1.41,0,1.64,1.64,0,0,1-.83-1.21,2.56,2.56,0,0,0-.68-1.37,6.77,6.77,0,0,1-2.4-4.4,9.16,9.16,0,0,1-.22-5.27,3.26,3.26,0,0,1,.81-1.45A3.82,3.82,0,0,0,126.07,158.76Zm14.75,6a7.38,7.38,0,0,1-.17,1,6.15,6.15,0,0,0-.14.94q0,.77-.09,1.08a3.35,3.35,0,0,1-.29,1,8.51,8.51,0,0,1-4.87,4.46l.35.4a7.64,7.64,0,0,1-1.88.93c-.9.29-1.56.52-2,.69a4.51,4.51,0,0,1-.59-1.67,4.59,4.59,0,0,1,0-1.77,9.11,9.11,0,0,0,2.53-2.65c.86-1.4,1.54-2.41,2-3.05a2,2,0,0,1,.2,1.3s-.1.47-.29,1.3a13.9,13.9,0,0,0,.53-1.37c.24-.68.41-1.15.51-1.4a3.86,3.86,0,0,1,1.89-2.14q.38,0,1.11-.15Q140.88,163.6,140.82,164.78Z"/>
      <path class="a679acf5-4279-47b2-b56d-99ddae87a067" d="M203.54,134.4c-.29.65-.75,1.85-1.37,3.6-.56,1.53-1,2.73-1.47,3.59a18.73,18.73,0,0,1-1.95,3.33,11.6,11.6,0,0,0-.84,1.33c-.36.65-.62,1.12-.8,1.42a6.42,6.42,0,0,1-2.09,2.4,36.35,36.35,0,0,0-5.54,4.08,38.28,38.28,0,0,1-5.59,4.08,11.14,11.14,0,0,0,.88-6.52,9.08,9.08,0,0,0-3.15-5.73c.3-.06,1.84-.48,4.62-1.28a26.42,26.42,0,0,1,4.66-.93,8,8,0,0,1,2.57-6.17,19.86,19.86,0,0,0,2.8-2.84c.71-.86,1.51-1.93,2.39-3.2a9.85,9.85,0,0,0,3.33,0q1.11-.14,3.33-.54A22.5,22.5,0,0,0,203.54,134.4Z"/>
      <g>
        <path class="f5227558-422b-46cd-8d45-d9926450832a" d="M171.86,139.64l4.08.84A22.92,22.92,0,0,0,181,139a13.49,13.49,0,0,1,1.36-1.16,4.25,4.25,0,0,1,.15,2.58l-.93,2.39a15.08,15.08,0,0,1-1.2,2.22,6.19,6.19,0,0,0-2.88-.18A11.94,11.94,0,0,1,176,145a4.45,4.45,0,0,1-1.42-.22c-.71-1.84-1.2-3-1.46-3.51A6.6,6.6,0,0,0,171.86,139.64Z"/>
        <path class="a679acf5-4279-47b2-b56d-99ddae87a067" d="M182.36,137.86A13.49,13.49,0,0,0,181,139a22.92,22.92,0,0,1-5.06,1.46l-4.08-.84a4.74,4.74,0,0,0-1.37-.89A10.5,10.5,0,0,1,168,134.8l-.84-2.17a14,14,0,0,0-1-2.18,4.53,4.53,0,0,0,1.87-2.88,14.64,14.64,0,0,0,.35-3.55c1.36,1.83,2.2,3,2.53,3.37a15.12,15.12,0,0,0,3.11,2.84c1.15.8,2.05,1.44,2.7,1.91,1,.71,1.85,1.37,2.62,2a9.24,9.24,0,0,1,2.53,2.75A6.16,6.16,0,0,1,182.36,137.86Z"/>
      </g>
      <path class="a679acf5-4279-47b2-b56d-99ddae87a067" d="M148.26,183c-.33.56-1,1.8-2.09,3.73-.89,1.53-1.63,2.75-2.22,3.63a3.84,3.84,0,0,1-2,1.42,3.45,3.45,0,0,1-2.44-.08,44.06,44.06,0,0,1-4.21-8c-.74-1.86-1.31-3.27-1.69-4.21-.68-1.66-1.27-3.05-1.78-4.17l2-.67a9.08,9.08,0,0,0,1.9-.93q3,5.5,5.55,9.67a16.69,16.69,0,0,1,1.15-4.26c.39-.91.68-1.61.89-2.08.33-.83.58-1.53.76-2.09,1.27.86,2.26,1.49,3,1.91a34.45,34.45,0,0,0,3.11,1.69,12.56,12.56,0,0,0-.8,2.3A5.68,5.68,0,0,1,148.26,183Z"/>
      <g>
        <path class="a679acf5-4279-47b2-b56d-99ddae87a067" d="M130.86,172.7c0,.68-.06,1.74-.09,3.19a19.47,19.47,0,0,1-.31,3.33,7.34,7.34,0,0,1-3.28,5.28,2.69,2.69,0,0,1-2.22-.84,11.74,11.74,0,0,1-1.55-2,2,2,0,0,1-.22-1.86c.14-.45.25-.77.31-1a3.67,3.67,0,0,0,.17-1c0-.2,0-.42,0-.65v.2q1.14-1.72,1.66-7.41a4.2,4.2,0,0,0-.18-1.15m-.42-1.18c-.08-.25-.15-.5-.22-.73l.11-.05A6.37,6.37,0,0,0,124.76,167.66Z"/>
        <path class="a679acf5-4279-47b2-b56d-99ddae87a067" d="M124.76,167.66l0,0a5.47,5.47,0,0,0,.38,1.07.64.64,0,0,1,0,.07,4.2,4.2,0,0,1,.18,1.15q-.52,5.69-1.66,7.41v-.2l0-1.64c0-.14,0-.28,0-.42,0-1.19-.06-2.07-.09-2.66a21,21,0,0,1,.49-5.33l.51-.22C124.61,167.16,124.68,167.41,124.76,167.66Z"/>
      </g>
      <path class="b64d6a3b-b913-4781-9472-35b9a7638bae" d="M167.65,160.32a7.25,7.25,0,0,1-.54,5.19,24.27,24.27,0,0,0-6.47,2.22c-.68.32-1.71.86-3.07,1.59s-2.39,1.23-3.1,1.56c-.42.89-1,2.23-1.73,4a16.24,16.24,0,0,1-2.18,3.77l-.48-.13a34.45,34.45,0,0,1-3.11-1.69c-.56-.33-1.29-.79-2.2-1.4-.25-.28-.58-.22-1,.18s-1.37.45-2.86.18a15,15,0,0,1-5.39-2.6c2.15-1.62,3.48-3,4-4.06a21.69,21.69,0,0,0,1-2.42,2,2,0,0,0,1.59-.44,1.54,1.54,0,0,0,.45-1.6,2.87,2.87,0,0,1,0-1.24,7.37,7.37,0,0,1,.35-1.2,5.29,5.29,0,0,0,.31-1.2,2,2,0,0,0-.18-1.2,7.07,7.07,0,0,0-2.26-7.67,5.59,5.59,0,0,1,2.18,0,28.82,28.82,0,0,0,4.46,0q3-.13,4.17-2.22a11.36,11.36,0,0,1,1.39-2.27,3.71,3.71,0,0,1,1.47-.22,3.5,3.5,0,0,1,1.46.31,24.71,24.71,0,0,1,5.55,2.89,12.37,12.37,0,0,1,4.08,4.66A18.46,18.46,0,0,1,167.65,160.32Zm-42.42-.14a3.21,3.21,0,0,0-.8,1.42,9.28,9.28,0,0,0,.22,5.28l-.62.27-.22,0a16.37,16.37,0,0,1,0-6.17,8.69,8.69,0,0,1,3-5.24,8.25,8.25,0,0,1-.71,2.93A3.79,3.79,0,0,1,125.23,160.18Z"/>
      <path class="b64d6a3b-b913-4781-9472-35b9a7638bae" d="M193.74,163.07a1.69,1.69,0,0,1-.18,1c-.3.42-1,.63-2.17.63-.27,0-.52,0-.74,0a6.11,6.11,0,0,1-2,.29,21.36,21.36,0,0,1-4.48-.71,25.14,25.14,0,0,0-5.81-.71,14.12,14.12,0,0,0-3.64.45c-1.12.35-1.91.59-2.35.71a8.6,8.6,0,0,0-2.35.93,2.3,2.3,0,0,1-1.11.22,1.32,1.32,0,0,1-1-.38,2.22,2.22,0,0,1-.74.07,7.25,7.25,0,0,0,.54-5.19,18.46,18.46,0,0,0-2.09-5,12.37,12.37,0,0,0-4.08-4.66,11.57,11.57,0,0,0-1.47-.93,21.39,21.39,0,0,0-2.39-1.25s-.05,0-.05,0h0c-.5-.24-1-.46-1.6-.67a3.5,3.5,0,0,0-1.46-.31,3.71,3.71,0,0,0-1.47.22,11.44,11.44,0,0,1,4.57-6.61,13,13,0,0,1,8-1.86c.53-.12,1.35-.33,2.44-.62a4,4,0,0,1,2.49.13h0a.48.48,0,0,1,.13.09h.05s0,0,0,0h.09v.05a.12.12,0,0,1,.09,0h0V139h.09l.09.09h0s0,0,0,0a.12.12,0,0,0,.09,0l1.33,1.34.09.08h0a.42.42,0,0,1,.06.14l.36.53c.26.5.75,1.67,1.46,3.51l.4.08a3.54,3.54,0,0,0,1,.14,11.94,11.94,0,0,0,1.47-.14,6.19,6.19,0,0,1,2.88.18,6.8,6.8,0,0,1,1.24.93,8.53,8.53,0,0,1,1.89,2.18c.15.2.29.41.42.62a9.91,9.91,0,0,1,1.55,4.75q.5,3,4.44,5.9c1.15.85,2,1.52,2.66,2,.47.37.79.64,1,.8s.15.17.15.2v.17A2.3,2.3,0,0,1,193.74,163.07Z"/>
      <path class="b64d6a3b-b913-4781-9472-35b9a7638bae" d="M162.22,110.13a1.55,1.55,0,0,1,.84.57,15.15,15.15,0,0,1,2.51,5.18s.26,1,.78,2.81c.32,1.12.61,2,.89,2.76a11.51,11.51,0,0,0,.69,1.7,8.16,8.16,0,0,1,.66,1.71,13.2,13.2,0,0,1-.29,3.08,4,4,0,0,1-1.6,2.52,3.4,3.4,0,0,1-1.35.18,3.88,3.88,0,0,1-1.33-.33,8.87,8.87,0,0,0,1.64-.36,2.31,2.31,0,0,0,1.27-1,3.85,3.85,0,0,0,.3-2.34c0-.33-.23-1.11-.56-2.35a21.83,21.83,0,0,1-.84-3.26c-.26-1.48-.45-2.59-.58-3.33a28.93,28.93,0,0,0-.76-3.27,13.6,13.6,0,0,0-1.37-3.08,2.38,2.38,0,0,0-.78-.93,1.69,1.69,0,0,0-1.15-.31A2.1,2.1,0,0,1,162.22,110.13Z"/>
      <path class="b64d6a3b-b913-4781-9472-35b9a7638bae" d="M159,111.69a4.66,4.66,0,0,1,2.19-1.56,1.69,1.69,0,0,1,1.14.32,2.24,2.24,0,0,1,.78.93,12.91,12.91,0,0,1,1.37,3.07,26.9,26.9,0,0,1,.76,3.27c.13.74.33,1.85.59,3.33a21.92,21.92,0,0,0,.83,3.26c.33,1.24.52,2,.56,2.35a3.92,3.92,0,0,1-.29,2.34,2.3,2.3,0,0,1-1.27,1,9.07,9.07,0,0,1-1.64.36,2,2,0,0,1-1.54-.42l-.09-.07a7.18,7.18,0,0,1-1.87-3.84,3.34,3.34,0,0,1-.19-1.34c-.15-.31-.58-1.15-1.3-2.52a26.8,26.8,0,0,1-1.22-2.61,7.47,7.47,0,0,1-.23-5.53A11.72,11.72,0,0,1,159,111.69Z"/>
      <path class="f5227558-422b-46cd-8d45-d9926450832a" d="M197.59,127.82a3,3,0,0,0,1.75,0c1.16-.18,2.91-.43,5.25-.72a.91.91,0,0,0,.35-.22,9.3,9.3,0,0,1,1.7-.77,22,22,0,0,1,2.71-.9c.83-.21,1.66-.4,2.5-.57a8.07,8.07,0,0,0,2-.64,5.23,5.23,0,0,0,2.93-3.2,2,2,0,0,1,.1,1.29,2.28,2.28,0,0,1-.61,1.13,12.47,12.47,0,0,1-3.36,2.58c-.4.22-.91.49-1.53.79l-2.27,1.11a27.47,27.47,0,0,0-2.91,2.75l-.15.15a2,2,0,0,1-1.25.68,3.5,3.5,0,0,1-.48.06q-2,.36-3,.51a8.6,8.6,0,0,1-3,0,1.58,1.58,0,0,1-.72-.33,1.46,1.46,0,0,1-.46-.64,18.5,18.5,0,0,1-1-2.09,2.58,2.58,0,0,1,.17-2.18A1.74,1.74,0,0,0,197.59,127.82Z"/>
      <path class="b64d6a3b-b913-4781-9472-35b9a7638bae" d="M195.84,125.09a1.31,1.31,0,0,1,.81-1.43,9.42,9.42,0,0,1,2.41-.89l2.49-.62a.57.57,0,0,1,.71.29,6.6,6.6,0,0,1,.41.79,17.88,17.88,0,0,0,5.46-2.18,13.75,13.75,0,0,1,3.52-1.43,17.15,17.15,0,0,1,3.78-.47,1.06,1.06,0,0,1,1,.65,3,3,0,0,1,.25,1.24,5.24,5.24,0,0,1-2.93,3.2,20,20,0,0,1-2.07.86,39.52,39.52,0,0,1-12.8,3c-1.93.1-2.94-.9-3-3Z"/>
      <path class="a679acf5-4279-47b2-b56d-99ddae87a067" d="M140.09,162a3.2,3.2,0,0,0,1.34-1,2,2,0,0,1,1.44-.87l0,0a.45.45,0,0,1,.11-.26,1.07,1.07,0,0,1,.14.36c.1,0,.14.16.14.4a2.16,2.16,0,0,1-.14.76,6.83,6.83,0,0,1-.25.87,6.58,6.58,0,0,0-.36,1.19,2.67,2.67,0,0,0,0,1.26,1.54,1.54,0,0,1-.44,1.59,2,2,0,0,1-1.62.44,4.17,4.17,0,0,1,.18-.91,7.14,7.14,0,0,0,.14-1.08c0-.51-.11-.83-.4-1a6.19,6.19,0,0,1-2.27.4,4,4,0,0,0-1.41,1.88,10.54,10.54,0,0,0-.54,1.37c-.2.58-.36,1-.51,1.38.19-.85.29-1.28.29-1.31a1.79,1.79,0,0,0-.22-1.26,29.74,29.74,0,0,0-2,3,10.75,10.75,0,0,1-2.53,2.67,1,1,0,0,1-.4.11,2.92,2.92,0,0,1-1.77-.25,1.92,1.92,0,0,1-1.15-1.34c-.73-2.19-1.22-3.84-1.49-5a11,11,0,0,1-.07-5.13,2.72,2.72,0,0,0,.58,1.05,1.25,1.25,0,0,1,.83-1.55l1.16-.4c.62-.89,2.3-.8,5,.29a30.5,30.5,0,0,1,5,2.53A4.94,4.94,0,0,0,140.09,162Z"/>
      <path class="f5227558-422b-46cd-8d45-d9926450832a" d="M154.22,155.41c-.27.31-.62.73-1.06,1.27a11.75,11.75,0,0,1-5.48,3.64,10.75,10.75,0,0,0,3.73,0,24.53,24.53,0,0,0,2.86-.53,2.83,2.83,0,0,0,1-.47,1.89,1.89,0,0,1,1.19-.44,1.2,1.2,0,0,1,1.07.44,1,1,0,0,1,.22.58q0,1.5-5,2T146,163.8a12.39,12.39,0,0,0-3,3.82,6.92,6.92,0,0,0-.73,4.72c-.18,2-.26,3-.26,3.15-.15,1.63-.6,2.44-1.34,2.44-1.15,0-1.73-1.33-1.73-4a18.1,18.1,0,0,1,.62-4.7,5.61,5.61,0,0,1,1.45-2.78c.13-.26.3-.56.51-.91a5.59,5.59,0,0,0,1-2.57,1.48,1.48,0,0,0-.06-.36,2.28,2.28,0,0,0,0-.26q0-2.49-1.2-.45l-.2.38-.07-.33a11.57,11.57,0,0,1-1.37,1.77h.18q-.72.14-1.11.18a2,2,0,0,0-1.07-.49,10.62,10.62,0,0,0-1.11,0c-.53,0-.91,0-1.15,0a2.37,2.37,0,0,1-.84-.26c-.1.16-.2.34-.31.53a3.49,3.49,0,0,0-.18.31,4,4,0,0,1-.27.44c-2.76-1.23-4.11-3-4-5.41a7.21,7.21,0,0,1-1.86.8,1.3,1.3,0,0,0-.84,1.55,3.2,3.2,0,0,1-.58-1c0-.15-.07-.41-.13-.8,0-.09,0-.18,0-.26a2.44,2.44,0,0,1-1.37-1.6c-.21-1.15-.31-1.75-.31-1.78a3.81,3.81,0,0,1,1.46-3.1l.13-.11a2,2,0,0,1,.47-.31,8.72,8.72,0,0,1,2.91-1.09,9.52,9.52,0,0,1,1.62-.22l.11-.05c1.92-.53,3-.83,3.15-.89a7,7,0,0,1,3.24,0,14,14,0,0,1,3.19,2,6.45,6.45,0,0,1,1.95,2.5,3.39,3.39,0,0,0,3.35,2,6.35,6.35,0,0,0,3.31-1.13,4.66,4.66,0,0,1,2.88-1,2.11,2.11,0,0,1,1.87.71Z"/>
      <path class="b64d6a3b-b913-4781-9472-35b9a7638bae" d="M134.94,152.33a36.85,36.85,0,0,1,2.67,2.57,4,4,0,0,1,1.15,2.58c.06.56.1,1.42.13,2.57l0,.09c.09,0,.06,0-.09,0-.15-.56-.3-1.18-.44-1.86a6.34,6.34,0,0,0-1.11-2.57,30.58,30.58,0,0,0-3.91-3.55,4.83,4.83,0,0,0-2.48-.49c-.42,0-.62-.15-.62-.45s.23-.4.71-.48A4.15,4.15,0,0,1,133,151,14.75,14.75,0,0,1,134.94,152.33Z"/>
      <path class="b64d6a3b-b913-4781-9472-35b9a7638bae" d="M190.47,164.11a7.43,7.43,0,0,1-4.12-.76,7.48,7.48,0,0,0-1.91-.62q-6.12-1.64-9.76-.67a6.16,6.16,0,0,0,.09,1.73,4.87,4.87,0,0,1,.08,1.78c.21.09.4.16.58.22a5.14,5.14,0,0,1,1.24.62,3.74,3.74,0,0,1,1.42,1.6,3.21,3.21,0,0,1,.31,2,7.81,7.81,0,0,1-.71,2.09c0,.11-.06.22-.08.31s-.2.43-.32.66a.51.51,0,0,1-.13.18,2.25,2.25,0,0,1-.35.22,7.28,7.28,0,0,1-1.76,0l-3.08,2c2.92-.06,4.2.61,3.86,2a4.3,4.3,0,0,0,.44,3.55,10.85,10.85,0,0,0,2.4,2,4.78,4.78,0,0,0,2.88.84,2.36,2.36,0,0,0,1.51-1.77c.12-.42-1.44-4.75,0-.71a7.84,7.84,0,0,1,2,1.57q1.32,1.31,6.54-2.73t8.81-3.61a14.68,14.68,0,0,0,5.22,0c1.08-.31,1.47-1.23,1.17-2.77a22.63,22.63,0,0,0-1.2-4.17,8.6,8.6,0,0,0-2-3.42,12.77,12.77,0,0,0-3.1-2.48c-1.42-.83-2.4-1.37-2.93-1.6a5.54,5.54,0,0,0-3.11-.4,2.19,2.19,0,0,0-1.11.93,3.06,3.06,0,0,1-1.55,1.2,1.57,1.57,0,0,0-.4.13A2.77,2.77,0,0,1,190.47,164.11Z"/>
      <path class="a679acf5-4279-47b2-b56d-99ddae87a067" d="M160.21,165a1.5,1.5,0,0,0-.18,1.07,1.57,1.57,0,0,0,0,1.09,4.44,4.44,0,0,0,.52.94,5.3,5.3,0,0,1,.56.92,1.62,1.62,0,0,1,.09,1.06,5.18,5.18,0,0,1-.27,1.86c-.1.72.24,1.06,1,1a3.08,3.08,0,0,1,.74,2.94q-.12.54-.45,1.56c-.24.7-.39,1.22-.47,1.54a10.9,10.9,0,0,1-1.16,1.91,2.8,2.8,0,0,0-.47,2.1c.36,1.17.6,1.86.7,2.08a2.3,2.3,0,0,0,1.54,1.36,3.55,3.55,0,0,0,2.76-2.31c.1-.23.35-.84.73-1.84a9.33,9.33,0,0,1,.8-1.71q.84,1.93,2.44,5.85a36,36,0,0,0,2.91,5.61,1.85,1.85,0,0,0,1.65,1,2.5,2.5,0,0,0,1.87-.61,17.25,17.25,0,0,0,2.32-2.76c1.07-1.51,1.79-2.47,2.16-2.91a4.93,4.93,0,0,0,.85-1.42,11.74,11.74,0,0,1,.76-1.49,5,5,0,0,1-2.92-.83,11.67,11.67,0,0,1-2.37-2c-.26.67-.71,1.65-1.33,2.94a10.72,10.72,0,0,0-1,3.06q-.78-1.75-2.29-4.6c-1.18-2.24-2-3.76-2.35-4.56a6.13,6.13,0,0,1-2.56,1q-1.6.16-1.53-1.47a1.1,1.1,0,0,1-1.65-.15,1.79,1.79,0,0,1-.4-.83,1.7,1.7,0,0,1,0-.95,4.17,4.17,0,0,0,1.11.55,1.26,1.26,0,0,0,1.16-.17,2.34,2.34,0,0,0,.64-1,8.53,8.53,0,0,0,.25-1.2,9.44,9.44,0,0,1,.25-1.2,2.34,2.34,0,0,1,.64-1,1,1,0,0,1,.4-.94.68.68,0,0,1,.93.14c.25-.38.54-.48.87-.28a1,1,0,0,1,.51.89,1.06,1.06,0,0,1,.49-.81.83.83,0,0,1,.92,0,4.19,4.19,0,0,1,.22,1.93c-.08,1.26-.13,1.91-.13,2,.21-.39.41-.79.59-1.21l.68,0a2.37,2.37,0,0,1-.52,1.81s.67-.3,1.89-.88a4.25,4.25,0,0,1,2-.5,1,1,0,0,0,1-.28c.1,0,.3-.37.59-1.14a9.36,9.36,0,0,0,.68-2.1,3.14,3.14,0,0,0-.28-2.07,4,4,0,0,0-1.45-1.59,6.4,6.4,0,0,0-1.23-.61l-.28-.1-.31-.12a9.07,9.07,0,0,0-.33,2.1c-.16.83-.58,1.25-1.26,1.25a2.81,2.81,0,0,0-.07-1.56,1.32,1.32,0,0,0-1.12-1c-.37,0-.67.25-.89.73l-.25.57a1.14,1.14,0,0,1-.35.43,10.32,10.32,0,0,0-3-1,7.17,7.17,0,0,1-2.9-1.17,2.33,2.33,0,0,1-1,1.67l-.08-.95c-.07.11-.18.3-.31.55a.89.89,0,0,1-.48.41,6.78,6.78,0,0,0-.55-1.91,4.33,4.33,0,0,1-.41-1.95l-.73,1A.78.78,0,0,0,160.21,165ZM210.77,136c.28,3.22.44,5.2.49,5.92.15,2.24.19,4.22.14,5.94a6.66,6.66,0,0,0,1.22,3.55,13.23,13.23,0,0,0,2.6,2.77,10.67,10.67,0,0,0-2.87.54c-.68.21-1.59.57-2.75,1.07a3,3,0,0,1,2.26,1.1,5,5,0,0,1,1.09,2.32,3,3,0,0,0,1.49.62,8,8,0,0,0,1.61,0,12.84,12.84,0,0,1,1.61,0,3.26,3.26,0,0,1,1.53.49,4.27,4.27,0,0,1,2.17,2.52,12.46,12.46,0,0,1,.62,3.38c0,1.19,0,2.15,0,2.88a12.73,12.73,0,0,1-.48,2.82,21.07,21.07,0,0,0,7-3.78,20.55,20.55,0,0,0,3.75-2.15,8.71,8.71,0,0,0,2.75-3.27,75,75,0,0,0,6.06-8.34q1.94-3,2.85-4.3A49.92,49.92,0,0,1,247,146a5.35,5.35,0,0,0-4.52-2,35.56,35.56,0,0,1-3.34,3.68q-1.14,1.13-3.65,3.37a9.23,9.23,0,0,0-3.55,3.45,14.85,14.85,0,0,0-1.76,4.68c-.06.73-.72,1.09-2,1.09a22.6,22.6,0,0,0-3.82.23c-.84.11-2.11.3-3.79.55a10.94,10.94,0,0,0,1.68-3.11,4.27,4.27,0,0,0-.26-3.42,96.43,96.43,0,0,1-4.72-10.56,51.64,51.64,0,0,1-2.82-11.2A10.5,10.5,0,0,1,210.77,136Z"/>
      <path class="a679acf5-4279-47b2-b56d-99ddae87a067" d="M165.25,177.36q-.08,1.63,1.53,1.47a6.13,6.13,0,0,0,2.56-1l-.19-.29a4.69,4.69,0,0,0,3.09-2.62,2.37,2.37,0,0,0,.52-1.81c-.19-.27-.42-.28-.68,0-.18.42-.38.82-.59,1.21,0-.06,0-.71.13-2a4.19,4.19,0,0,0-.22-1.93.83.83,0,0,0-.92,0,1.06,1.06,0,0,0-.49.81,1,1,0,0,0-.51-.89c-.33-.2-.62-.1-.87.28a.68.68,0,0,0-.93-.14,1,1,0,0,0-.4.94,2.34,2.34,0,0,0-.64,1,9.44,9.44,0,0,0-.25,1.2,8.53,8.53,0,0,1-.25,1.2,2.34,2.34,0,0,1-.64,1"/>
      <path class="f5227558-422b-46cd-8d45-d9926450832a" d="M192.25,167.21q-4.08,0-7.81-4.88c-1.95-3.28-2.93-5-2.93-5q-1.9-5.76-7.28-5.32a7,7,0,0,0-3.64,1.33A3.42,3.42,0,0,0,169,156a4,4,0,0,0,.2,1.35,8.17,8.17,0,0,0-1.31-.11,9.72,9.72,0,0,0-2.79.31,9.6,9.6,0,0,0-1.78.62A14,14,0,0,0,162,159l0,0c-.22-.06-.44-.12-.67-.16q-3.9-.66-3.9,3.07,0,2.75,2,3.39a2.75,2.75,0,0,0,.6.82c0-.27.26-.5.67-.71a3.25,3.25,0,0,0,1.2-1.6,5,5,0,0,0,.4,2,7.71,7.71,0,0,1,.57,1.9,1,1,0,0,0,.49-.39,3.18,3.18,0,0,1,.31-.58l.09,1a2.26,2.26,0,0,0,.93-1.68,7.31,7.31,0,0,0,2.93,1.2,9.12,9.12,0,0,1,2.93,1,.83.83,0,0,0,.35-.44c.12-.24.21-.43.27-.58.24-.47.53-.71.89-.71a1.23,1.23,0,0,1,1.11.93,2.85,2.85,0,0,1,.09,1.6c.68,0,1.09-.43,1.24-1.29.06-.47.16-1.06.31-1.77a12.17,12.17,0,0,0,.18-1.69,7.42,7.42,0,0,0-.49-2.84,1,1,0,0,0,.62-.71,4.46,4.46,0,0,1-.27-1.68v-.09s.27.68.71,1.95a9.56,9.56,0,0,0,1.91,3.33q4.13,4.57,15.22,4.57a2.16,2.16,0,0,0,1.55-.58l.49-.62,0-.44s-.09-.05-.18-.14a1,1,0,0,0-.58-.17,2.7,2.7,0,0,0-.84.22A2.57,2.57,0,0,1,192.25,167.21Z"/>
      <g>
        <path class="b64d6a3b-b913-4781-9472-35b9a7638bae" d="M203.34,155.87l-.13,0a13.09,13.09,0,0,0-5.19,2.39,23.71,23.71,0,0,0-3,2.71l-.51.53-.2.22a5.36,5.36,0,0,1,3.24.36c.53.23,1.51.77,2.93,1.6a12.77,12.77,0,0,1,3.1,2.48,8.6,8.6,0,0,1,2,3.42,13.86,13.86,0,0,1,.94,3.28,5.59,5.59,0,0,1-.54,3.33,7.47,7.47,0,0,1,1.2-.22q1.23-.25,2.46-.45a55.22,55.22,0,0,0,8.15-.4,19.2,19.2,0,0,1,3.63-.44,37.38,37.38,0,0,1,9.19,1.33q5.24,1.29,5.72,1.29,1.65,0,1.38-1c0-.65-.83-1.29-2.49-1.91-2-.74-3.15-1.41-3.59-2a23.13,23.13,0,0,1-2.57-4.39,12.56,12.56,0,0,0-1-4.39c-.95-2-3.36-3-7.24-3-.68,0-1.56-.68-2.66-2a23.43,23.43,0,0,0-1.86-2.39,10,10,0,0,0-6.35-1.69,8.13,8.13,0,0,0-4.35,1.06A15.7,15.7,0,0,0,203.34,155.87Z"/>
        <path class="f5227558-422b-46cd-8d45-d9926450832a" d="M194.49,161.53,195,161a23.71,23.71,0,0,1,3-2.71,13.09,13.09,0,0,1,5.19-2.39l.13,0c-.58-.22-1.28-.45-2.08-.69-3-.88-4.69-.9-5.2,0a16.92,16.92,0,0,0-2.17,5.68l.13.53q-.14.18.45.18Z"/>
      </g>
      <path class="f5227558-422b-46cd-8d45-d9926450832a" d="M217.21,123.64a8.6,8.6,0,0,0,.33-3.15,10.38,10.38,0,0,1-1,3.37q-.3.67-1.65,3.12a19.29,19.29,0,0,0-1.08,2.84A3.78,3.78,0,0,1,212,132a5.55,5.55,0,0,1-2.17-.08,2.17,2.17,0,0,1-1.62-1.27,4.68,4.68,0,0,0,.48,3,5.24,5.24,0,0,0,2.13,2.24,10.5,10.5,0,0,0,3.74-3.23,8.88,8.88,0,0,1,.42-3.12c.2-.64.58-1.63,1.15-3A25.92,25.92,0,0,0,217.21,123.64Zm40.41,21.1c-.28-.13-.69-.32-1.23-.59a5,5,0,0,0-1.28-.4,22.52,22.52,0,0,1-7.82-3.21,11.22,11.22,0,0,0-1.17-.5c-.58-.22-1-.38-1.2-.49a3.13,3.13,0,0,1-1.75-1.76,3,3,0,0,0-1.78,2.32,20.22,20.22,0,0,0-.33,3.09,1,1,0,0,0,.63.49,7.4,7.4,0,0,1,.81.27,5.35,5.35,0,0,1,4.52,2,1.22,1.22,0,0,0,.54.18,29.08,29.08,0,0,1,6.24-.53,33.67,33.67,0,0,1,4.22.57l.19,0a1.93,1.93,0,0,0,1.21-.15,1.29,1.29,0,0,0,.76-.9A3.79,3.79,0,0,1,257.62,144.74Z"/>
      <path class="b64d6a3b-b913-4781-9472-35b9a7638bae" d="M217.54,119.08a1,1,0,0,0-.87-.92,7.73,7.73,0,0,0-3.44.17,7,7,0,0,0-3,1.67,4.08,4.08,0,0,0-1,1.89c-.08.31-.21,1-.37,2.16,0,.49-.18,1.59-.44,3.31a16.94,16.94,0,0,0-.23,3.31,2.17,2.17,0,0,0,1.62,1.27A5.55,5.55,0,0,0,212,132a3.78,3.78,0,0,0,1.9-2.2,19.29,19.29,0,0,1,1.08-2.84q1.35-2.45,1.65-3.12a10.38,10.38,0,0,0,1-3.37A7.72,7.72,0,0,0,217.54,119.08Zm31.06,17.65a22.67,22.67,0,0,0-3.07-1.15,1.2,1.2,0,0,0-1.54.55,8,8,0,0,0-.53,1l-.29.65.09.21a3.42,3.42,0,0,0,1.45,1.67q.31.22.72.48a29.74,29.74,0,0,0,5.23,2.37c2.29.84,4.67,1.61,7.17,2.31a3.68,3.68,0,0,0,2.35.33,1.34,1.34,0,0,0,.57-1,1.24,1.24,0,0,0-.49-1.08,13.17,13.17,0,0,0-2.8-1.94,9.36,9.36,0,0,0-3.24-1,16.32,16.32,0,0,1-1.86-.33,9.88,9.88,0,0,1-1.79-.6A3.53,3.53,0,0,0,248.6,136.73Z"/>
      <g>
        <path class="b64d6a3b-b913-4781-9472-35b9a7638bae" d="M90.63,185.42,74.49,153.81v-.54l.39-.26,47.29,27.53-21.24,10.73ZM77.12,214l15.46,8.77a1.5,1.5,0,0,0,.66,1.41c-.56-.26-1-.47-1.2-.61q-1.67-1-7.08-4.12-5.67-3.28-6.32-3.68L77.48,215Z"/>
        <path class="f5227558-422b-46cd-8d45-d9926450832a" d="M122.17,180.54,74.88,153l2.86-1.44L125,179.06Zm-32.66,6.32,1.12-1.44,10.3,5.85-.15.11c-.21.31-.45.65-.72,1a4,4,0,0,0-.32.43Z"/>
        <path class="f5227558-422b-46cd-8d45-d9926450832a" d="M122.17,221.61V180.54l2.78-1.48V220Zm-15.79-6.17a1.14,1.14,0,0,1-.47,1.41L95.22,223q-2.28,1-1.44-2l2-9.43,2.82-.65a55.16,55.16,0,0,1,7.22,4,.8.8,0,0,1,.54.4Z"/>
        <polygon class="b64d6a3b-b913-4781-9472-35b9a7638bae" points="74.49 153.81 90.63 185.42 89.51 186.86 89.04 188.09 74.49 194.41 74.49 153.81"/>
        <polygon class="b64d6a3b-b913-4781-9472-35b9a7638bae" points="99.74 192.82 92.58 222.73 77.12 213.96 83.81 199.83 89.04 188.09 89.51 186.86 99.74 192.82"/>
        <path class="b64d6a3b-b913-4781-9472-35b9a7638bae" d="M92.58,222.73l7.16-29.91a4,4,0,0,1,.32-.43c.27-.36.51-.7.72-1l.15-.11,21.24-10.73v41.07l-20.34-26.76-1-3.47L96.67,207.6l-.87,4-2,9.43q-.84,2.93,1.44,2l10.69-6.17a1.14,1.14,0,0,0,.47-1.41,3.5,3.5,0,0,1,.18.43,10.63,10.63,0,0,1-.1,1.23,23.83,23.83,0,0,1-2.71,1.8L101,220.53c-3.74,2.14-5.86,3.35-6.36,3.61a2.65,2.65,0,0,1-1.37,0A1.5,1.5,0,0,1,92.58,222.73Z"/>
        <path class="b64d6a3b-b913-4781-9472-35b9a7638bae" d="M96.67,207.6l4.11-16.22,1,3.47,20.34,26.76-.58.08q-5.85-3.33-11.92-6.72Q97.57,208.07,96.67,207.6ZM74.49,194.41,89,188.09l-5.23,11.74a49.47,49.47,0,0,1-4.92-2.71A44.31,44.31,0,0,1,74.49,194.41Z"/>
      </g>
      <g>
        <polygon class="f5227558-422b-46cd-8d45-d9926450832a" points="140.03 245.01 140.02 252.69 121.99 242.31 122 234.62 140.03 245.01"/>
        <polygon class="a679acf5-4279-47b2-b56d-99ddae87a067" points="140.03 245.04 140.05 252.69 164.29 238.74 164.27 231.09 140.03 245.04"/>
        <polygon class="b64d6a3b-b913-4781-9472-35b9a7638bae" points="122.03 234.61 140.04 245 164.25 231.05 146.24 220.66 122.03 234.61"/>
      </g>
    </g>
  </g>
</svg>
