<svg id="b580c133-532e-45cb-b45e-e011c0f2934c" data-name="Layer 1" xmlns="http://www.w3.org/2000/svg" viewBox="0 0 214.86 33.07">
  <defs>
    <style>
      .b415322b-42a5-4b62-ab87-bb70a60c3eed {
        fill: #222;
      }

      .b415322b-42a5-4b62-ab87-bb70a60c3eed, .bf669f90-b2b0-439e-b98d-706270aa52ce {
        stroke: #222;
        stroke-linecap: round;
        stroke-linejoin: round;
      }

      .bf669f90-b2b0-439e-b98d-706270aa52ce {
        fill: #fff2cc;
      }
    </style>
  </defs>
  <g>
    <g>
      <polygon class="b415322b-42a5-4b62-ab87-bb70a60c3eed" points="18.27 3.46 18.27 13.62 10.47 1.54 3.05 1.54 1.14 3.46 1.14 31.36 8.59 31.36 10.51 29.44 10.51 19.41 18.27 31.36 25.76 31.36 27.68 29.44 27.68 1.54 20.19 1.54 18.27 3.46"/>
      <path class="b415322b-42a5-4b62-ab87-bb70a60c3eed" d="M59.29,5.12A15.34,15.34,0,0,0,54.55,2,14.89,14.89,0,0,0,43,2a15.36,15.36,0,0,0-4.72,3.17L36.34,7a14.9,14.9,0,0,0-3.18,4.7A14.33,14.33,0,0,0,32,17.5a14.33,14.33,0,0,0,1.17,5.76A14.9,14.9,0,0,0,36.34,28a15.13,15.13,0,0,0,4.72,3.15,15.13,15.13,0,0,0,11.57,0A15.11,15.11,0,0,0,57.37,28c.34-.34,1.61-1.62,1.92-1.92a14.9,14.9,0,0,0,3.18-4.7,14.33,14.33,0,0,0,1.17-5.76,14.33,14.33,0,0,0-1.17-5.76A14.9,14.9,0,0,0,59.29,5.12ZM52.78,22a8.12,8.12,0,0,1-1.07.63,7.15,7.15,0,0,1-5.87,0,7.39,7.39,0,0,1-2.32-1.68A7.65,7.65,0,0,1,42,18.5a7.9,7.9,0,0,1-.56-2.92A7.79,7.79,0,0,1,42,12.65a7.59,7.59,0,0,1,.86-1.56,8.12,8.12,0,0,1,1.07-.63,7.15,7.15,0,0,1,5.87,0,7.39,7.39,0,0,1,2.32,1.68,7.6,7.6,0,0,1,1.53,2.43,7.79,7.79,0,0,1,.56,2.93,7.9,7.9,0,0,1-.56,2.92A8.18,8.18,0,0,1,52.78,22Z"/>
      <polygon class="b415322b-42a5-4b62-ab87-bb70a60c3eed" points="64.39 3.46 64.39 10.43 72.56 10.37 72.56 31.4 80.16 31.4 82.08 29.48 82.08 10.37 87.82 10.37 89.74 8.45 90.25 7.95 90.25 1.54 66.31 1.54 64.39 3.46"/>
      <polygon class="b415322b-42a5-4b62-ab87-bb70a60c3eed" points="95.24 3.46 95.24 31.4 102.76 31.4 104.68 29.48 104.68 1.54 97.16 1.54 95.24 3.46"/>
      <path class="b415322b-42a5-4b62-ab87-bb70a60c3eed" d="M129.18,22a6.77,6.77,0,0,1-3.22.8,6.47,6.47,0,0,1-2.79-.6A7.19,7.19,0,0,1,121,20.64a7.47,7.47,0,0,1-1.47-2.31,7.37,7.37,0,0,1,0-5.54,7.67,7.67,0,0,1,.77-1.41,7.72,7.72,0,0,1,1-.58,6.87,6.87,0,0,1,2.8-.57,7.54,7.54,0,0,1,4.4,1.47l5.76-5s1.92-1.92,1.92-1.92a16.49,16.49,0,0,0-4.79-3,14.63,14.63,0,0,0-5.4-1,14.29,14.29,0,0,0-5.78,1.17,14.81,14.81,0,0,0-4.68,3.2L113.58,7a15.37,15.37,0,0,0-3.15,4.72,14.27,14.27,0,0,0-1.15,5.7,14.28,14.28,0,0,0,1.15,5.71,15.37,15.37,0,0,0,3.15,4.72,14.81,14.81,0,0,0,4.68,3.2A14.29,14.29,0,0,0,124,32.26a14.65,14.65,0,0,0,6.5-1.49c1.93-.95,6.53-5.35,7.19-6.15l-5.94-4.83A7.89,7.89,0,0,1,129.18,22Z"/>
      <polygon class="b415322b-42a5-4b62-ab87-bb70a60c3eed" points="142.76 3.46 142.76 31.4 150.28 31.4 152.2 29.48 152.2 1.54 144.68 1.54 142.76 3.46"/>
      <path class="b415322b-42a5-4b62-ab87-bb70a60c3eed" d="M174.49,1.54H167.9L166,3.46,155.65,31.4h7.88l1.92-1.92.72-1.94h7.4L175,31.4h7.89l1.92-1.92ZM172,19.11h-3l1.51-5Z"/>
      <path class="b415322b-42a5-4b62-ab87-bb70a60c3eed" d="M213.47,19.32a6.58,6.58,0,0,0-1.9-3.7,9.45,9.45,0,0,0-2-1.4,14.48,14.48,0,0,0-2.34-1c-.82-.27-1.65-.52-2.46-.73s-1.65-.41-2.41-.56-1.48-.32-2.13-.49a9.79,9.79,0,0,1-1.64-.55,2.1,2.1,0,0,1-.91-.7,1.61,1.61,0,0,1-.22-.87v0l.33,0A11.28,11.28,0,0,1,199,9.18a13.39,13.39,0,0,1,4.23.65c1.31.43,4,1.66,4,1.66l1.92-1.92,1.71-3c.57-1,1.15-2,1.75-3a17.77,17.77,0,0,0-5.15-2.19A22.78,22.78,0,0,0,198.61,1a14.37,14.37,0,0,0-3.23.87,10,10,0,0,0-2.79,1.69,31,31,0,0,0-4,4.66A8,8,0,0,0,188,10a8.74,8.74,0,0,0-.2,1.82,8.19,8.19,0,0,0,.92,4.16,7,7,0,0,0,2.46,2.51,10.43,10.43,0,0,0,1.64.81q.89.35,1.86.63c.62.2,1.27.36,1.94.51s1.36.3,2,.47c.53.12,1.06.23,1.59.32a9.27,9.27,0,0,1,1.54.43,6.41,6.41,0,0,1,.69.29,4.29,4.29,0,0,1,.68.42,2,2,0,0,1,.54.54,1.14,1.14,0,0,1,.22.7,1.52,1.52,0,0,1,0,.21,6.57,6.57,0,0,1-.66.09c-.47,0-.91.05-1.32.05a15.94,15.94,0,0,1-4.15-.52,21.3,21.3,0,0,1-3.91-1.49c-.29-.17-.9-.44-.9-.44l-1.92,1.92s-.4.7-.76,1.3-.74,1.24-1.15,1.9q-.28.51-.57,1c-.2.32-.36.61-.51.86s-.26.46-.36.62a1.83,1.83,0,0,0-.14.29c0,.05.09.13.29.25a1.06,1.06,0,0,0,.36.14,27.2,27.2,0,0,0,5.27,1.85,23.81,23.81,0,0,0,5.56.66,25.81,25.81,0,0,0,4.54-.41,13,13,0,0,0,4.07-1.44,27,27,0,0,0,4.83-4.71,8.19,8.19,0,0,0,1.12-4.49A12.23,12.23,0,0,0,213.47,19.32Z"/>
    </g>
    <g>
      <path class="bf669f90-b2b0-439e-b98d-706270aa52ce" d="M20.19,29.44l-9.68-14.9v14.9H3.05V1.54h7.42l9.72,15.05v-15h7.49v27.9Z"/>
      <path class="bf669f90-b2b0-439e-b98d-706270aa52ce" d="M48.77,30.34A14.56,14.56,0,0,1,43,29.19,15.13,15.13,0,0,1,38.26,26a14.9,14.9,0,0,1-3.18-4.7,14.33,14.33,0,0,1-1.17-5.76,14.33,14.33,0,0,1,1.17-5.76,14.9,14.9,0,0,1,3.18-4.7A15.36,15.36,0,0,1,43,2,14.89,14.89,0,0,1,54.55,2a15.34,15.34,0,0,1,4.74,3.17,14.9,14.9,0,0,1,3.18,4.7,14.33,14.33,0,0,1,1.17,5.76,14.33,14.33,0,0,1-1.17,5.76A14.9,14.9,0,0,1,59.29,26a15.11,15.11,0,0,1-4.74,3.15A14.62,14.62,0,0,1,48.77,30.34Zm0-22.43a6.85,6.85,0,0,0-2.93.63,7.39,7.39,0,0,0-2.32,1.68A7.6,7.6,0,0,0,42,12.65a7.79,7.79,0,0,0-.56,2.93A7.9,7.9,0,0,0,42,18.5a7.65,7.65,0,0,0,1.53,2.44,7.39,7.39,0,0,0,2.32,1.68,7.15,7.15,0,0,0,5.87,0A7.39,7.39,0,0,0,54,20.94a7.65,7.65,0,0,0,1.53-2.44,7.9,7.9,0,0,0,.56-2.92,7.79,7.79,0,0,0-.56-2.93A7.6,7.6,0,0,0,54,10.22a7.39,7.39,0,0,0-2.32-1.68A6.87,6.87,0,0,0,48.77,7.91Z"/>
      <path class="bf669f90-b2b0-439e-b98d-706270aa52ce" d="M89.74,8.45H82.07v21H74.48v-21H66.81l-.5-.5V1.54H90.25V8Z"/>
      <path class="bf669f90-b2b0-439e-b98d-706270aa52ce" d="M97.16,29.48V1.54h7.52V29.48Z"/>
      <path class="bf669f90-b2b0-439e-b98d-706270aa52ce" d="M126,30.34a14.29,14.29,0,0,1-5.78-1.17A14.81,14.81,0,0,1,115.5,26a15.37,15.37,0,0,1-3.15-4.72,14.28,14.28,0,0,1-1.15-5.71,14.27,14.27,0,0,1,1.15-5.7,15.37,15.37,0,0,1,3.15-4.72,14.81,14.81,0,0,1,4.68-3.2A14.29,14.29,0,0,1,126,.75a14.63,14.63,0,0,1,5.4,1,16.49,16.49,0,0,1,4.79,3l-5.76,5A7.54,7.54,0,0,0,126,8.31a6.78,6.78,0,0,0-5,2.16,7.63,7.63,0,0,0-1.47,2.32,7.37,7.37,0,0,0,0,5.54A7.47,7.47,0,0,0,121,20.64a7.19,7.19,0,0,0,2.22,1.58,6.47,6.47,0,0,0,2.79.6,6.77,6.77,0,0,0,3.22-.8,7.89,7.89,0,0,0,2.61-2.23l5.94,4.83a15.85,15.85,0,0,1-5.27,4.23A14.65,14.65,0,0,1,126,30.34Z"/>
      <path class="bf669f90-b2b0-439e-b98d-706270aa52ce" d="M144.68,29.48V1.54h7.52V29.48Z"/>
      <path class="bf669f90-b2b0-439e-b98d-706270aa52ce" d="M176.93,29.48l-1.44-3.86h-8.6l-1.44,3.86h-7.88L167.9,1.54h6.59l10.33,27.94Zm-5.72-17.75L169,19.11h4.43Z"/>
      <path class="bf669f90-b2b0-439e-b98d-706270aa52ce" d="M201,30.34a23.81,23.81,0,0,1-5.56-.66,27,27,0,0,1-5.27-1.85,1.06,1.06,0,0,1-.36-.14c-.2-.12-.29-.2-.29-.25a1.83,1.83,0,0,1,.14-.29c.1-.16.22-.37.36-.62s.31-.54.51-.86l.57-1c.41-.66.79-1.3,1.15-1.9s.62-1,.76-1.3a6.24,6.24,0,0,1,.9.44,21.3,21.3,0,0,0,3.91,1.49,15.94,15.94,0,0,0,4.15.52c.41,0,.85,0,1.32-.05a5,5,0,0,0,1.28-.27,2.32,2.32,0,0,0,.95-.67,2,2,0,0,0,.38-1.28,1.14,1.14,0,0,0-.22-.7,2,2,0,0,0-.54-.54,4.29,4.29,0,0,0-.68-.42,6.41,6.41,0,0,0-.69-.29,9.27,9.27,0,0,0-1.54-.43c-.53-.09-1.06-.2-1.59-.32-.69-.17-1.38-.33-2.05-.47s-1.32-.31-1.94-.51-1.27-.4-1.86-.63a10.43,10.43,0,0,1-1.64-.81A7,7,0,0,1,190.67,14a8.19,8.19,0,0,1-.92-4.16,8.74,8.74,0,0,1,.2-1.82,8,8,0,0,1,.59-1.75,8.29,8.29,0,0,1,2.05-2.74,10,10,0,0,1,2.79-1.69A14.37,14.37,0,0,1,198.61,1a22.78,22.78,0,0,1,8.85.42,17.77,17.77,0,0,1,5.15,2.19c-.6,1-1.18,2-1.75,3l-1.71,3a33.32,33.32,0,0,0-4.05-1.66,13.39,13.39,0,0,0-4.23-.65,11.28,11.28,0,0,0-1.13.06,3.29,3.29,0,0,0-1.1.27,2,2,0,0,0-.83.63,1.74,1.74,0,0,0-.32,1.09,1.61,1.61,0,0,0,.22.87,2.1,2.1,0,0,0,.91.7,9.79,9.79,0,0,0,1.64.55c.65.17,1.36.33,2.13.49s1.57.34,2.41.56,1.64.46,2.46.73a14.48,14.48,0,0,1,2.34,1,9.45,9.45,0,0,1,2,1.4,6.58,6.58,0,0,1,1.9,3.7,12.23,12.23,0,0,1,.15,1.89,8.19,8.19,0,0,1-1.12,4.49,8.1,8.1,0,0,1-2.91,2.79,13,13,0,0,1-4.07,1.44A25.81,25.81,0,0,1,201,30.34Z"/>
    </g>
  </g>
</svg>
