<svg id="af424cb8-2269-4f62-bec9-8702372a8b1f" data-name="Layer 1" xmlns="http://www.w3.org/2000/svg" viewBox="0 0 249.88 76.13">
  <defs>
    <style>
      .ed53b305-5a6e-4a8c-b45e-376a7f416189 {
        fill: #222;
      }

      .b10aa3a8-4a19-492d-ac91-2e75a5f69c5b, .ed53b305-5a6e-4a8c-b45e-376a7f416189 {
        stroke: #222;
        stroke-linecap: round;
        stroke-linejoin: round;
      }

      .b10aa3a8-4a19-492d-ac91-2e75a5f69c5b {
        fill: #fc3;
      }
    </style>
  </defs>
  <g>
    <g>
      <path class="ed53b305-5a6e-4a8c-b45e-376a7f416189" d="M112.79,25.94a10.35,10.35,0,0,0,2.39-6.66V1.57h-7.77l-1.85,1.85V20.66a3.17,3.17,0,0,1-.3,1.38l-.28.14a4.16,4.16,0,0,1-1.5.27,4,4,0,0,1-1.45-.27,3.88,3.88,0,0,1-1.25-.76,3.65,3.65,0,0,1-.86-1.15,3.22,3.22,0,0,1-.32-1.46V1.57H91.82L90,3.42V21.13a10.25,10.25,0,0,0,.63,3.6,10.37,10.37,0,0,0,1.77,3.06,11.47,11.47,0,0,0,2.68,2.36,13.23,13.23,0,0,0,3.35,1.53,12.44,12.44,0,0,0,1.6.39,8.93,8.93,0,0,0,1.64.15,9.21,9.21,0,0,0,1.65-.15,12,12,0,0,0,1.62-.39,13.23,13.23,0,0,0,3.35-1.53A39.39,39.39,0,0,0,112.79,25.94Z"/>
      <polygon class="ed53b305-5a6e-4a8c-b45e-376a7f416189" points="175.7 29.51 175.7 22.59 161.01 22.59 161.01 1.57 153.27 1.57 151.43 3.42 151.43 31.35 173.85 31.35 175.7 29.51"/>
      <path class="ed53b305-5a6e-4a8c-b45e-376a7f416189" d="M208.42,29.51,198.09,1.57H191.5l-1.84,1.85L179.32,31.35h7.89l1.84-1.84.75-2h7.45l1.44,3.85h7.89ZM195.54,19.14h-3l1.49-4.93Z"/>
      <path class="ed53b305-5a6e-4a8c-b45e-376a7f416189" d="M26.05,60.77a6,6,0,0,0-1.37-1.92,9.28,9.28,0,0,0-2-1.4,14.48,14.48,0,0,0-2.34-1c-.83-.27-1.65-.52-2.47-.73s-1.64-.41-2.41-.56-1.48-.32-2.12-.49a9.48,9.48,0,0,1-1.64-.55,2.14,2.14,0,0,1-.92-.7,1.7,1.7,0,0,1-.22-.87s0,0,0-.08l.4-.07c.39,0,.77,0,1.13,0a13.48,13.48,0,0,1,4.23.65c1.31.43,4.05,1.65,4.05,1.65l1.85-1.84s1.14-2,1.71-3,1.14-2,1.74-3a17.45,17.45,0,0,0-5.14-2.19,22.83,22.83,0,0,0-8.86-.42,14.29,14.29,0,0,0-3.22.87,9.73,9.73,0,0,0-2.79,1.69,29.68,29.68,0,0,0-3.9,4.59,7.84,7.84,0,0,0-.59,1.75,9.37,9.37,0,0,0,.72,6A7,7,0,0,0,4.4,61.62,10.43,10.43,0,0,0,6,62.43c.59.23,1.21.44,1.85.63s1.28.36,2,.5l2.05.47,1.58.33a8.28,8.28,0,0,1,1.55.43,4.87,4.87,0,0,1,.69.29,5.84,5.84,0,0,1,.68.41,2.31,2.31,0,0,1,.54.54,1.24,1.24,0,0,1,.22.71,2.34,2.34,0,0,1,0,.26,5.32,5.32,0,0,1-.73.11c-.47,0-.9,0-1.31,0a16,16,0,0,1-4.16-.52A21.3,21.3,0,0,1,7,65.15c-.28-.17-.9-.44-.9-.44L4.26,66.56s-.4.7-.76,1.3l-1.15,1.9c-.19.33-.38.66-.58,1l-.5.86-.36.63a1,1,0,0,0-.14.29s.09.13.28.25a1.69,1.69,0,0,0,.36.14,27.27,27.27,0,0,0,5.28,1.84,23.75,23.75,0,0,0,5.56.67A25,25,0,0,0,16.79,75a12.47,12.47,0,0,0,4.06-1.44,26.53,26.53,0,0,0,4.77-4.63,8.28,8.28,0,0,0,1.11-4.49,13.58,13.58,0,0,0-.14-1.89A6.68,6.68,0,0,0,26.05,60.77Z"/>
      <path class="ed53b305-5a6e-4a8c-b45e-376a7f416189" d="M57.69,48.35A15.17,15.17,0,0,0,53,45.18a14.91,14.91,0,0,0-11.58,0,15.2,15.2,0,0,0-4.71,3.17L34.82,50.2a14.9,14.9,0,0,0-3.18,4.7,14.76,14.76,0,0,0,0,11.52,14.76,14.76,0,0,0,7.9,7.84,15,15,0,0,0,11.57,0,14.77,14.77,0,0,0,4.74-3.15l1.84-1.84a14.76,14.76,0,0,0,3.19-4.7,14.76,14.76,0,0,0,0-11.52A14.76,14.76,0,0,0,57.69,48.35ZM51.21,65.21a8.35,8.35,0,0,1-1.1.64,7.13,7.13,0,0,1-5.86,0,7.44,7.44,0,0,1-2.33-1.68,8,8,0,0,1-1.53-2.44,7.89,7.89,0,0,1-.55-2.92,7.79,7.79,0,0,1,.55-2.93,8.25,8.25,0,0,1,.91-1.62,7.37,7.37,0,0,1,1.1-.64,7.15,7.15,0,0,1,5.87,0,7.53,7.53,0,0,1,2.32,1.67,7.91,7.91,0,0,1,1.53,8.28A7.92,7.92,0,0,1,51.21,65.21Z"/>
      <polygon class="ed53b305-5a6e-4a8c-b45e-376a7f416189" points="76.38 44.77 68.64 44.77 66.79 46.62 66.79 74.55 89.22 74.55 91.06 72.71 91.06 65.79 76.38 65.79 76.38 44.77"/>
      <polygon class="ed53b305-5a6e-4a8c-b45e-376a7f416189" points="95.23 46.62 95.23 74.55 102.75 74.55 104.6 72.71 104.6 44.77 97.08 44.77 95.23 46.62"/>
      <path class="ed53b305-5a6e-4a8c-b45e-376a7f416189" d="M135.85,48.86a14.31,14.31,0,0,0-4.47-3,13.74,13.74,0,0,0-5.47-1.1H113.42l-1.85,1.85V74.55h12.49a13.62,13.62,0,0,0,5.48-1.1,14.24,14.24,0,0,0,4.46-3l1.85-1.85a13.86,13.86,0,0,0,3-4.45,14,14,0,0,0,0-10.87A13.92,13.92,0,0,0,135.85,48.86ZM123.2,53.42A7.22,7.22,0,0,1,126,54a7,7,0,0,1,2.28,1.53,7.16,7.16,0,0,1,2.09,5.07,7.06,7.06,0,0,1-.56,2.79,7.84,7.84,0,0,1-.69,1.28,7.15,7.15,0,0,1-1.28.69,7,7,0,0,1-2.82.56h-4.29V53.42Z"/>
      <path class="ed53b305-5a6e-4a8c-b45e-376a7f416189" d="M159.89,44.77h-6.58l-1.85,1.85L141.13,74.55H149l1.85-1.84.75-2h7.45l1.44,3.85h7.88l1.85-1.84Zm-2.55,17.57h-3l1.48-4.92Z"/>
      <path class="ed53b305-5a6e-4a8c-b45e-376a7f416189" d="M196.39,61.24l.17-.21a8.8,8.8,0,0,0,2.5-2.87,8,8,0,0,0,1-3.89,10.05,10.05,0,0,0-.37-2.64,8,8,0,0,0-1.1-2.43,10.89,10.89,0,0,0-1.41-1.62,11.84,11.84,0,0,0-1.8-1.42,9.71,9.71,0,0,0-2-1,6.07,6.07,0,0,0-2.05-.38h-14l-1.84,1.85V74.55h7.7L185,72.71l0-6.8h2.86l4.86,8.64h8.39l1.84-1.84Zm-9.15-8.4a3.17,3.17,0,0,1,1.23.24,3.21,3.21,0,0,1,1,.64,3.37,3.37,0,0,1,.68,1,2.71,2.71,0,0,1,.25,1.18,3,3,0,0,1-.17.95,3.17,3.17,0,0,1-1.15.21h-4.36V52.84Z"/>
      <polygon class="ed53b305-5a6e-4a8c-b45e-376a7f416189" points="206.83 46.62 206.83 74.55 214.35 74.55 216.2 72.71 216.2 44.77 208.68 44.77 206.83 46.62"/>
      <path class="ed53b305-5a6e-4a8c-b45e-376a7f416189" d="M248.81,72.71,238.48,44.77h-6.59l-1.84,1.85L219.72,74.55h7.88l1.85-1.84.75-2h7.44l1.44,3.85H247ZM235.92,62.34H233l1.49-4.92Z"/>
      <polygon class="ed53b305-5a6e-4a8c-b45e-376a7f416189" points="25.26 29.51 25.26 22.88 10.24 22.88 10.24 20.73 22.55 20.73 24.39 18.89 24.39 12.23 10.24 12.23 10.24 10.08 23.41 10.08 25.26 8.23 25.26 1.57 2.97 1.57 1.13 3.42 1.13 31.35 23.41 31.35 25.26 29.51"/>
      <path class="ed53b305-5a6e-4a8c-b45e-376a7f416189" d="M40.94,32.22a24.91,24.91,0,0,0,4.54-.42,12.53,12.53,0,0,0,4.07-1.44,26.47,26.47,0,0,0,4.76-4.63,8.28,8.28,0,0,0,1.11-4.49,12.2,12.2,0,0,0-.14-1.89,6.57,6.57,0,0,0-.54-1.78,6,6,0,0,0-1.37-1.92,9,9,0,0,0-2-1.4,14.48,14.48,0,0,0-2.34-1c-.83-.27-1.65-.52-2.47-.73S45,12.1,44.19,12s-1.47-.32-2.12-.49a9.48,9.48,0,0,1-1.64-.55,2.2,2.2,0,0,1-.92-.7,1.7,1.7,0,0,1-.21-.87s0-.05,0-.08l.39-.07c.4,0,.77,0,1.13,0a13.39,13.39,0,0,1,4.23.65c1.31.43,4,1.65,4,1.65L51,9.6l1.71-3c.56-1,1.15-2,1.75-3a17.62,17.62,0,0,0-5.15-2.19A22.5,22.5,0,0,0,43.8.78,22.75,22.75,0,0,0,40.41,1a14.29,14.29,0,0,0-3.22.87A9.73,9.73,0,0,0,34.4,3.59a29.68,29.68,0,0,0-3.9,4.59,7.84,7.84,0,0,0-.59,1.75,8.67,8.67,0,0,0-.2,1.82,8.22,8.22,0,0,0,.92,4.16,7,7,0,0,0,2.46,2.51,10.43,10.43,0,0,0,1.64.81q.89.35,1.86.63c.62.19,1.27.36,1.94.5s1.36.3,2,.47q.8.18,1.59.33a8.4,8.4,0,0,1,1.54.43,4.87,4.87,0,0,1,.69.29,5.11,5.11,0,0,1,.68.41,2.31,2.31,0,0,1,.54.54,1.17,1.17,0,0,1,.22.71,2.34,2.34,0,0,1,0,.26,5.32,5.32,0,0,1-.73.11c-.46,0-.9.05-1.31.05a16.07,16.07,0,0,1-4.16-.52A20.94,20.94,0,0,1,35.7,22c-.29-.17-.9-.44-.9-.44L33,23.36s-.4.7-.76,1.3L31,26.56l-.57,1L30,28.4,29.6,29a1.46,1.46,0,0,0-.14.29s.09.13.29.25a1.36,1.36,0,0,0,.36.14,27.18,27.18,0,0,0,5.27,1.84A23.82,23.82,0,0,0,40.94,32.22Z"/>
      <path class="ed53b305-5a6e-4a8c-b45e-376a7f416189" d="M73.67,32.22a14.45,14.45,0,0,0,6.49-1.5c1.92-.94,6.48-5.28,7.12-6.07l-5.94-4.83a7.89,7.89,0,0,1-2.61,2.23,6.74,6.74,0,0,1-3.22.8,6.47,6.47,0,0,1-2.79-.6,7,7,0,0,1-2.21-1.58A7.31,7.31,0,0,1,69,18.36a7.37,7.37,0,0,1,0-5.54,7.8,7.8,0,0,1,.82-1.47,7.55,7.55,0,0,1,1-.59,6.93,6.93,0,0,1,2.81-.58,7.5,7.5,0,0,1,4.39,1.48L85.7,4.77a16.35,16.35,0,0,0-4.79-3,14.63,14.63,0,0,0-5.4-1A14.32,14.32,0,0,0,69.73,2a15,15,0,0,0-4.68,3.2c-.26.27-.51.56-.76.85s-.74.65-1.08,1a15.32,15.32,0,0,0-3.15,4.71,14.28,14.28,0,0,0-1.15,5.71,14.28,14.28,0,0,0,1.15,5.71,15.32,15.32,0,0,0,3.15,4.71,14.67,14.67,0,0,0,4.68,3.21A14.29,14.29,0,0,0,73.67,32.22Z"/>
      <polygon class="ed53b305-5a6e-4a8c-b45e-376a7f416189" points="145.03 29.51 145.03 22.88 130.02 22.88 130.02 20.73 142.32 20.73 144.16 18.89 144.16 12.23 130.02 12.23 130.02 10.08 143.18 10.08 145.03 8.23 145.03 1.57 122.74 1.57 120.9 3.42 120.9 31.35 143.18 31.35 145.03 29.51"/>
    </g>
    <g>
      <path class="b10aa3a8-4a19-492d-ac91-2e75a5f69c5b" d="M3,29.51V1.57H25.26V8.23h-15v4H24.39v6.66H10.24v4h15v6.63Z"/>
      <path class="b10aa3a8-4a19-492d-ac91-2e75a5f69c5b" d="M42.79,30.37a23.74,23.74,0,0,1-5.56-.66A27.3,27.3,0,0,1,32,27.86a1.06,1.06,0,0,1-.36-.14c-.19-.12-.29-.2-.29-.25a1.49,1.49,0,0,1,.15-.29l.36-.62.5-.86c.19-.32.39-.65.58-1L34,22.81c.36-.6.61-1,.76-1.3a6.24,6.24,0,0,1,.9.44,20.94,20.94,0,0,0,3.9,1.49,16.07,16.07,0,0,0,4.16.52c.41,0,.85,0,1.31-.05a4.91,4.91,0,0,0,1.28-.27,2.35,2.35,0,0,0,1-.67,2,2,0,0,0,.37-1.28,1.2,1.2,0,0,0-.21-.7,2.31,2.31,0,0,0-.54-.54,4.89,4.89,0,0,0-.69-.42,6.29,6.29,0,0,0-.68-.29A9.12,9.12,0,0,0,44,19.31c-.53-.1-1-.2-1.58-.32-.7-.17-1.38-.33-2-.47s-1.32-.31-2-.51-1.26-.4-1.85-.63a10,10,0,0,1-1.64-.81,7.07,7.07,0,0,1-2.47-2.51,8.2,8.2,0,0,1-.91-4.16,8.73,8.73,0,0,1,.19-1.82,8,8,0,0,1,.6-1.75,8.19,8.19,0,0,1,2-2.74A9.73,9.73,0,0,1,37.19,1.9,14.29,14.29,0,0,1,40.41,1,22.75,22.75,0,0,1,43.8.78a22.5,22.5,0,0,1,5.47.67,17.62,17.62,0,0,1,5.15,2.19c-.6,1-1.19,2-1.75,3L51,9.6a33.32,33.32,0,0,0-4.05-1.66,13.48,13.48,0,0,0-4.23-.65,11.13,11.13,0,0,0-1.13.06,3.23,3.23,0,0,0-1.1.27,2,2,0,0,0-.83.63,1.68,1.68,0,0,0-.32,1.09,1.7,1.7,0,0,0,.21.87,2.2,2.2,0,0,0,.92.7,9.48,9.48,0,0,0,1.64.55c.65.17,1.35.33,2.12.49s1.57.34,2.41.56,1.64.46,2.47.73a14.48,14.48,0,0,1,2.34,1,9,9,0,0,1,2,1.4,6,6,0,0,1,1.37,1.92,6.57,6.57,0,0,1,.54,1.78,12.2,12.2,0,0,1,.14,1.89,7.76,7.76,0,0,1-4,7.28A12.92,12.92,0,0,1,47.32,30,25.7,25.7,0,0,1,42.79,30.37Z"/>
      <path class="b10aa3a8-4a19-492d-ac91-2e75a5f69c5b" d="M75.51,30.37a14.32,14.32,0,0,1-5.78-1.17A15,15,0,0,1,65.05,26a15.37,15.37,0,0,1-3.15-4.72,14.73,14.73,0,0,1,0-11.41,15.37,15.37,0,0,1,3.15-4.72A15,15,0,0,1,69.73,2,14.32,14.32,0,0,1,75.51.78a14.63,14.63,0,0,1,5.4,1,16.35,16.35,0,0,1,4.79,3l-5.76,5a7.51,7.51,0,0,0-4.39-1.47,6.73,6.73,0,0,0-5,2.16A7.48,7.48,0,0,0,69,12.82a7.37,7.37,0,0,0,0,5.54,7.31,7.31,0,0,0,1.48,2.31,7,7,0,0,0,2.21,1.58,6.47,6.47,0,0,0,2.79.6,6.74,6.74,0,0,0,3.22-.8,7.89,7.89,0,0,0,2.61-2.23l5.94,4.83A15.66,15.66,0,0,1,82,28.88,14.62,14.62,0,0,1,75.51,30.37Z"/>
      <path class="b10aa3a8-4a19-492d-ac91-2e75a5f69c5b" d="M115.18,19.28a10.35,10.35,0,0,1-2.39,6.66,11.68,11.68,0,0,1-2.68,2.36,13.23,13.23,0,0,1-3.35,1.53,12.77,12.77,0,0,1-1.62.4,10.24,10.24,0,0,1-1.66.14,9.87,9.87,0,0,1-1.63-.14A14.36,14.36,0,0,1,96.9,28.3a11.53,11.53,0,0,1-2.69-2.36,10.57,10.57,0,0,1-1.76-3.06,10.25,10.25,0,0,1-.63-3.6V1.57H99.6V18.81a3.22,3.22,0,0,0,.32,1.46,3.65,3.65,0,0,0,.86,1.15,3.88,3.88,0,0,0,1.25.76,4,4,0,0,0,1.45.27,4.16,4.16,0,0,0,1.5-.27,3.84,3.84,0,0,0,1.24-.76,3.51,3.51,0,0,0,.86-1.15,3.23,3.23,0,0,0,.33-1.46V1.57h7.77Z"/>
      <path class="b10aa3a8-4a19-492d-ac91-2e75a5f69c5b" d="M122.74,29.51V1.57H145V8.23H130v4h14.14v6.66H130v4h15v6.63Z"/>
      <path class="b10aa3a8-4a19-492d-ac91-2e75a5f69c5b" d="M153.27,29.51V1.57H161v21H175.7v6.92Z"/>
      <path class="b10aa3a8-4a19-492d-ac91-2e75a5f69c5b" d="M200.54,29.51l-1.44-3.86h-8.61l-1.44,3.86h-7.88L191.5,1.57h6.59l10.33,27.94Zm-5.73-17.75-2.23,7.38H197Z"/>
      <path class="b10aa3a8-4a19-492d-ac91-2e75a5f69c5b" d="M14.1,73.57a23.83,23.83,0,0,1-5.57-.66,27.44,27.44,0,0,1-5.27-1.85,1.06,1.06,0,0,1-.36-.14c-.19-.12-.29-.2-.29-.25a1.49,1.49,0,0,1,.15-.29l.36-.62.5-.86.58-1L5.35,66c.36-.6.61-1,.75-1.3a5.36,5.36,0,0,1,.9.44,21.3,21.3,0,0,0,3.91,1.49,16,16,0,0,0,4.16.52c.41,0,.84,0,1.31,0a4.91,4.91,0,0,0,1.28-.27,2.32,2.32,0,0,0,.95-.67A1.9,1.9,0,0,0,19,64.89a1.2,1.2,0,0,0-.21-.7,2.31,2.31,0,0,0-.54-.54,4.89,4.89,0,0,0-.69-.42,7.27,7.27,0,0,0-.68-.29,9.38,9.38,0,0,0-1.55-.43c-.53-.09-1.06-.2-1.58-.32-.7-.17-1.38-.33-2.06-.47s-1.32-.31-1.94-.51-1.27-.4-1.85-.63a10,10,0,0,1-1.64-.81,7,7,0,0,1-2.47-2.51,8.19,8.19,0,0,1-.92-4.16,8.74,8.74,0,0,1,.2-1.82,7.54,7.54,0,0,1,.6-1.75,8.05,8.05,0,0,1,2.05-2.74A9.73,9.73,0,0,1,8.5,45.1a14.29,14.29,0,0,1,3.22-.87,22.83,22.83,0,0,1,8.86.42,17.45,17.45,0,0,1,5.14,2.19c-.6,1-1.18,2-1.74,3s-1.14,2-1.71,3a33.32,33.32,0,0,0-4.05-1.66A13.48,13.48,0,0,0,14,50.49q-.54,0-1.14.06a3.23,3.23,0,0,0-1.09.27,1.94,1.94,0,0,0-.83.63,1.9,1.9,0,0,0-.11,2,2.14,2.14,0,0,0,.92.7,9.48,9.48,0,0,0,1.64.55c.64.17,1.35.33,2.12.49s1.57.34,2.41.56,1.64.46,2.47.73a14.48,14.48,0,0,1,2.34,1,9.28,9.28,0,0,1,2,1.4,6,6,0,0,1,1.37,1.92,6.68,6.68,0,0,1,.54,1.78,13.58,13.58,0,0,1,.14,1.89,8.28,8.28,0,0,1-1.11,4.49,8.21,8.21,0,0,1-2.92,2.79,13,13,0,0,1-4.07,1.44A25.7,25.7,0,0,1,14.1,73.57Z"/>
      <path class="b10aa3a8-4a19-492d-ac91-2e75a5f69c5b" d="M47.18,73.57a14.61,14.61,0,0,1-5.8-1.15,15,15,0,0,1-4.71-3.15,14.76,14.76,0,0,1-3.19-4.7,14.76,14.76,0,0,1,0-11.52,14.76,14.76,0,0,1,3.19-4.7,15.2,15.2,0,0,1,4.71-3.17,14.91,14.91,0,0,1,11.58,0,15.17,15.17,0,0,1,4.73,3.17,14.76,14.76,0,0,1,3.19,4.7,14.76,14.76,0,0,1,0,11.52,14.76,14.76,0,0,1-3.19,4.7A15,15,0,0,1,53,72.42,14.62,14.62,0,0,1,47.18,73.57Zm0-22.43a6.82,6.82,0,0,0-2.93.63,7.44,7.44,0,0,0-2.33,1.68,8,8,0,0,0-1.53,2.43,7.79,7.79,0,0,0-.55,2.93,7.89,7.89,0,0,0,.55,2.92,8,8,0,0,0,1.53,2.44,7.44,7.44,0,0,0,2.33,1.68,7.13,7.13,0,0,0,5.86,0,7.44,7.44,0,0,0,2.33-1.68A8,8,0,0,0,54,61.73a7.89,7.89,0,0,0,.55-2.92A7.79,7.79,0,0,0,54,55.88a8,8,0,0,0-1.53-2.43,7.44,7.44,0,0,0-2.33-1.68A6.82,6.82,0,0,0,47.18,51.14Z"/>
      <path class="b10aa3a8-4a19-492d-ac91-2e75a5f69c5b" d="M68.64,72.71V44.77h7.74v21H91.06v6.92Z"/>
      <path class="b10aa3a8-4a19-492d-ac91-2e75a5f69c5b" d="M97.08,72.71V44.77h7.52V72.71Z"/>
      <path class="b10aa3a8-4a19-492d-ac91-2e75a5f69c5b" d="M125.91,72.71H113.42V44.77h12.49a13.74,13.74,0,0,1,5.47,1.1,14.31,14.31,0,0,1,4.47,3,13.92,13.92,0,0,1,3,4.44,14,14,0,0,1,0,10.87,13.86,13.86,0,0,1-3,4.45,14.31,14.31,0,0,1-4.47,3A13.74,13.74,0,0,1,125.91,72.71Zm-.86-21.14h-4.29V65.9h4.29a7,7,0,0,0,2.82-.56,7.17,7.17,0,0,0-2.82-13.77Z"/>
      <path class="b10aa3a8-4a19-492d-ac91-2e75a5f69c5b" d="M162.34,72.71l-1.44-3.86h-8.6l-1.44,3.86H143l10.33-27.94h6.58l10.34,27.94ZM156.62,55l-2.23,7.38h4.42Z"/>
      <path class="b10aa3a8-4a19-492d-ac91-2e75a5f69c5b" d="M194.53,72.71l-4.86-8.64H185l0,8.64h-7.71V44.77h14a6.07,6.07,0,0,1,2.05.38,9.71,9.71,0,0,1,2,1,11.84,11.84,0,0,1,1.8,1.42,10.89,10.89,0,0,1,1.41,1.62,8,8,0,0,1,1.1,2.43,10.05,10.05,0,0,1,.37,2.64,8,8,0,0,1-1,3.89,8.89,8.89,0,0,1-2.7,3l6.55,11.52ZM189.09,51h-4.36v6h4.36a3.31,3.31,0,0,0,1.22-.23,3.13,3.13,0,0,0,1-.65,3.17,3.17,0,0,0,.69-.94,2.93,2.93,0,0,0,0-2.37,3.35,3.35,0,0,0-.69-1,3.24,3.24,0,0,0-2.23-.87Z"/>
      <path class="b10aa3a8-4a19-492d-ac91-2e75a5f69c5b" d="M208.67,72.71V44.77h7.53V72.71Z"/>
      <path class="b10aa3a8-4a19-492d-ac91-2e75a5f69c5b" d="M240.93,72.71l-1.44-3.86h-8.6l-1.44,3.86h-7.89l10.33-27.94h6.59l10.33,27.94ZM235.21,55,233,62.34h4.43Z"/>
    </g>
  </g>
</svg>
