<svg id="f4ba3809-f88a-4208-83a5-c15ef8a0b723" data-name="Layer 1" xmlns="http://www.w3.org/2000/svg" viewBox="0 0 246.2 33.67">
  <defs>
    <style>
      .b54d28e7-0280-4f7e-bd1b-91b31e0bcfdb {
        fill: #222;
      }

      .b54d28e7-0280-4f7e-bd1b-91b31e0bcfdb, .ee2ba1b0-fe9e-438b-92c2-d302f7cc20b1 {
        stroke: #222;
        stroke-linejoin: round;
      }

      .ee2ba1b0-fe9e-438b-92c2-d302f7cc20b1 {
        fill: #fff;
        stroke-linecap: round;
      }
    </style>
  </defs>
  <g>
    <g>
      <path class="b54d28e7-0280-4f7e-bd1b-91b31e0bcfdb" d="M21.65,18.39A4.08,4.08,0,0,0,22,18a8.59,8.59,0,0,0,2.33-2.73,8.05,8.05,0,0,0,1-3.89,10.08,10.08,0,0,0-.38-2.64,7.74,7.74,0,0,0-1.1-2.43,9.89,9.89,0,0,0-1.4-1.62,13,13,0,0,0-1.8-1.43,9.73,9.73,0,0,0-2-1,5.83,5.83,0,0,0-2.05-.38h-14L1,3.41V31.35h7.7l1.54-1.54,0-7.1h3.17l4.86,8.64h8.39l1.54-1.54ZM12.79,9.64A3.31,3.31,0,0,1,14,9.87a3.24,3.24,0,0,1,1,.65,3.06,3.06,0,0,1,.68,1A2.68,2.68,0,0,1,16,12.65a2.72,2.72,0,0,1-.24,1.15l-.16.09a3.4,3.4,0,0,1-1.23.23H10V9.64Z"/>
      <polygon class="b54d28e7-0280-4f7e-bd1b-91b31e0bcfdb" points="33.09 3.42 33.09 31.35 55.37 31.35 56.91 29.81 56.91 23.19 41.9 23.19 41.9 20.73 54.51 20.73 56.05 19.19 56.05 12.53 41.9 12.53 41.9 10.07 55.37 10.07 56.91 8.54 56.91 1.88 34.63 1.88 33.09 3.42"/>
      <path class="b54d28e7-0280-4f7e-bd1b-91b31e0bcfdb" d="M80.15,22.36a6.76,6.76,0,0,1-3.22.79,6.46,6.46,0,0,1-2.79-.59A7.23,7.23,0,0,1,71.92,21a7.47,7.47,0,0,1-1.47-2.31,7.22,7.22,0,0,1-.54-2.79,7.13,7.13,0,0,1,.54-2.75,7.3,7.3,0,0,1,1-1.71,6.83,6.83,0,0,1,4-1.24,7.46,7.46,0,0,1,4.39,1.48l7.29-6.58a16.44,16.44,0,0,0-4.78-3,14.63,14.63,0,0,0-5.4-1,14.29,14.29,0,0,0-5.78,1.17,14.65,14.65,0,0,0-4.68,3.2c-.21.22-1.24,1.23-1.54,1.54a15.2,15.2,0,0,0-3.15,4.71,14.28,14.28,0,0,0-1.15,5.71,14.23,14.23,0,0,0,1.15,5.7,15.37,15.37,0,0,0,3.15,4.72A14.65,14.65,0,0,0,69.61,31a14.32,14.32,0,0,0,5.78,1.17,14.52,14.52,0,0,0,6.5-1.49c1.85-.91,6.21-5,6.81-5.77l-5.94-4.82A8.22,8.22,0,0,1,80.15,22.36Z"/>
      <path class="b54d28e7-0280-4f7e-bd1b-91b31e0bcfdb" d="M107.29,3.41V20.66a3.82,3.82,0,0,1-.9,1.83,4.1,4.1,0,0,1-1.49.27,4,4,0,0,1-1.46-.27,3.9,3.9,0,0,1-2.11-1.91,3.36,3.36,0,0,1-.32-1.46V1.88H93.23L91.7,3.41V21.13a10.25,10.25,0,0,0,.63,3.6,10.84,10.84,0,0,0,1.76,3.06,11.64,11.64,0,0,0,2.68,2.35,13.39,13.39,0,0,0,3.35,1.53,12.9,12.9,0,0,0,1.6.4,9,9,0,0,0,1.64.14,9.3,9.3,0,0,0,1.66-.14,12.77,12.77,0,0,0,1.62-.4A13.39,13.39,0,0,0,110,30.14a11.64,11.64,0,0,0,2.68-2.35l.07-.09a11.12,11.12,0,0,0,1.46-1.45A10.37,10.37,0,0,0,116,23.19a10.25,10.25,0,0,0,.63-3.6V1.88h-7.78Z"/>
      <path class="b54d28e7-0280-4f7e-bd1b-91b31e0bcfdb" d="M143.22,18.39a4.08,4.08,0,0,0,.31-.39,8.75,8.75,0,0,0,2.34-2.73,8.16,8.16,0,0,0,1-3.89,10.08,10.08,0,0,0-.38-2.64,7.74,7.74,0,0,0-1.1-2.43A9.89,9.89,0,0,0,144,4.69a11.9,11.9,0,0,0-1.8-1.43,9.73,9.73,0,0,0-2-1,5.79,5.79,0,0,0-2-.38h-14l-1.54,1.53V31.35h7.7l1.54-1.54,0-7.1h3.17l4.86,8.64h8.39l1.54-1.54Zm-8.86-8.75a3.31,3.31,0,0,1,1.22.23,3.13,3.13,0,0,1,1,.65,2.91,2.91,0,0,1,.68,1,2.69,2.69,0,0,1,.26,1.18,2.73,2.73,0,0,1-.25,1.15l-.16.09a3.36,3.36,0,0,1-1.23.23h-4.35V9.64Z"/>
      <path class="b54d28e7-0280-4f7e-bd1b-91b31e0bcfdb" d="M178.27,17.88A6.17,6.17,0,0,0,176.9,16a9.28,9.28,0,0,0-2-1.4,15.29,15.29,0,0,0-2.34-1c-.83-.27-1.66-.52-2.47-.74s-1.64-.4-2.41-.55-1.48-.32-2.13-.49a9.59,9.59,0,0,1-1.63-.56,2,2,0,0,1-.92-.7,1.57,1.57,0,0,1-.22-.86,3.31,3.31,0,0,1,0-.33,3.72,3.72,0,0,1,.68-.13c.39,0,.77,0,1.13,0a13.2,13.2,0,0,1,4.23.65c1.31.43,4,1.65,4,1.65l1.54-1.53s1.14-2,1.71-3,1.14-2,1.74-3a17.5,17.5,0,0,0-5.15-2.19,22.78,22.78,0,0,0-8.85-.42,14.82,14.82,0,0,0-3.22.86,9.85,9.85,0,0,0-2.79,1.7c-.42.36-1.41,1.43-1.54,1.54a8.11,8.11,0,0,0-2,2.73,8.22,8.22,0,0,0-.6,1.75,8.8,8.8,0,0,0-.19,1.82,8.24,8.24,0,0,0,.91,4.17,7.13,7.13,0,0,0,2.47,2.5,9.3,9.3,0,0,0,1.64.82c.59.22,1.2.43,1.85.63s1.27.36,2,.5l2,.47c.53.12,1.05.23,1.58.33a8.28,8.28,0,0,1,1.55.43,5.8,5.8,0,0,1,1.37.7,2.76,2.76,0,0,1,.54.54,1.23,1.23,0,0,1,.21.7,2.34,2.34,0,0,1-.06.49,4.52,4.52,0,0,1-1,.2c-.47,0-.91.05-1.31.05a16,16,0,0,1-4.16-.52,20.65,20.65,0,0,1-3.91-1.5c-.29-.16-.9-.43-.9-.43l-1.53,1.54s-.4.69-.76,1.29-.74,1.24-1.15,1.91l-.58,1-.5.86q-.23.38-.36.63a1.28,1.28,0,0,0-.15.28c0,.05.1.14.29.26a1.36,1.36,0,0,0,.36.14,27.27,27.27,0,0,0,5.28,1.84,23.74,23.74,0,0,0,5.56.66,24.78,24.78,0,0,0,4.53-.41,12.44,12.44,0,0,0,4.07-1.44A24.66,24.66,0,0,0,177.83,26,8.19,8.19,0,0,0,179,21.55a13.58,13.58,0,0,0-.14-1.89A6.57,6.57,0,0,0,178.27,17.88Z"/>
      <path class="b54d28e7-0280-4f7e-bd1b-91b31e0bcfdb" d="M209.91,5.46a15.29,15.29,0,0,0-4.73-3.17,14.91,14.91,0,0,0-11.58,0,15.2,15.2,0,0,0-4.71,3.17L187.35,7a14.88,14.88,0,0,0-3.19,4.69A14.33,14.33,0,0,0,183,17.45a14.33,14.33,0,0,0,1.17,5.76,14.8,14.8,0,0,0,7.91,7.85,15.13,15.13,0,0,0,11.57,0,15,15,0,0,0,4.73-3.15l1.54-1.53a15.21,15.21,0,0,0,3.19-4.7,14.76,14.76,0,0,0,0-11.52A15.09,15.09,0,0,0,209.91,5.46Zm-6.35,16.78a8.26,8.26,0,0,1-1.23.72,7.15,7.15,0,0,1-5.87,0,7.39,7.39,0,0,1-2.32-1.68,7.59,7.59,0,0,1-1.53-2.45,7.92,7.92,0,0,1,0-5.85,8.39,8.39,0,0,1,1.08-1.84,6.92,6.92,0,0,1,1.24-.72,7.15,7.15,0,0,1,5.87,0,7.37,7.37,0,0,1,2.32,1.67,7.91,7.91,0,0,1,1.53,8.28A8,8,0,0,1,203.56,22.24Z"/>
      <path class="b54d28e7-0280-4f7e-bd1b-91b31e0bcfdb" d="M243.53,19.66a5.94,5.94,0,0,0-.54-1.78A5.86,5.86,0,0,0,241.62,16a9,9,0,0,0-2-1.4,14.48,14.48,0,0,0-2.34-1c-.82-.27-1.65-.52-2.46-.74s-1.65-.4-2.41-.55-1.48-.32-2.13-.49a9.73,9.73,0,0,1-1.64-.56,2,2,0,0,1-.92-.7,1.66,1.66,0,0,1-.21-.86,3.31,3.31,0,0,1,0-.33,3.78,3.78,0,0,1,.67-.13c.4,0,.78,0,1.14,0a13.2,13.2,0,0,1,4.23.65c1.3.43,4.05,1.65,4.05,1.65l1.53-1.53,1.71-3c.57-1,1.15-2,1.75-3a17.5,17.5,0,0,0-5.15-2.19,22.44,22.44,0,0,0-5.47-.67,22.75,22.75,0,0,0-3.39.25,15,15,0,0,0-3.22.86,10,10,0,0,0-2.79,1.7c-.42.36-1.4,1.43-1.53,1.54a8.11,8.11,0,0,0-2.05,2.73,7.7,7.7,0,0,0-.6,1.75,8.82,8.82,0,0,0-.2,1.82,8.23,8.23,0,0,0,.92,4.17,7,7,0,0,0,2.47,2.5,9.3,9.3,0,0,0,1.64.82c.58.22,1.2.43,1.85.63s1.27.36,1.94.5,1.36.3,2,.47q.8.18,1.59.33a8.5,8.5,0,0,1,1.55.43,5.32,5.32,0,0,1,.68.29,4.23,4.23,0,0,1,.68.41,2.31,2.31,0,0,1,.54.54,1.16,1.16,0,0,1,.22.7,2.34,2.34,0,0,1-.06.49,4.64,4.64,0,0,1-1,.2c-.47,0-.91.05-1.32.05a15.94,15.94,0,0,1-4.15-.52,20.65,20.65,0,0,1-3.91-1.5c-.29-.16-.9-.43-.9-.43l-1.54,1.54s-.39.69-.75,1.29l-1.15,1.91-.58,1-.5.86q-.22.38-.36.63a1.28,1.28,0,0,0-.15.28c0,.05.1.14.29.26a1.36,1.36,0,0,0,.36.14,27.41,27.41,0,0,0,5.27,1.84,23.83,23.83,0,0,0,5.57.66A24.78,24.78,0,0,0,234,31.8a12.53,12.53,0,0,0,4.07-1.44A24.66,24.66,0,0,0,242.56,26a8.28,8.28,0,0,0,1.12-4.49A12.23,12.23,0,0,0,243.53,19.66Z"/>
    </g>
    <g>
      <path class="ee2ba1b0-fe9e-438b-92c2-d302f7cc20b1" d="M19.76,29.81,14.9,21.17H10.18l0,8.64H2.51V1.88h14a5.83,5.83,0,0,1,2.05.38,9.73,9.73,0,0,1,2,1,13,13,0,0,1,1.8,1.43,9.89,9.89,0,0,1,1.4,1.62,7.74,7.74,0,0,1,1.1,2.43,10.08,10.08,0,0,1,.38,2.64,8.05,8.05,0,0,1-1,3.89,8.57,8.57,0,0,1-2.7,3l6.56,11.52ZM14.32,8.11H10v6h4.35a3.4,3.4,0,0,0,1.23-.23,3.25,3.25,0,0,0,1.69-1.6,2.68,2.68,0,0,0,.25-1.18,2.71,2.71,0,0,0-.25-1.18A3.22,3.22,0,0,0,16.55,9a3.06,3.06,0,0,0-1-.64A3.2,3.2,0,0,0,14.32,8.11Z"/>
      <path class="ee2ba1b0-fe9e-438b-92c2-d302f7cc20b1" d="M34.63,29.81V1.88H56.91V8.54h-15v4H56.05v6.66H41.9v4h15v6.62Z"/>
      <path class="ee2ba1b0-fe9e-438b-92c2-d302f7cc20b1" d="M76.93,30.68a14.29,14.29,0,0,1-5.78-1.17,14.67,14.67,0,0,1-4.68-3.21,15.2,15.2,0,0,1-3.15-4.71,14.28,14.28,0,0,1-1.15-5.71,14.23,14.23,0,0,1,1.15-5.7,15.37,15.37,0,0,1,3.15-4.72,14.65,14.65,0,0,1,4.68-3.2,14.29,14.29,0,0,1,5.78-1.17,14.63,14.63,0,0,1,5.4,1,16.44,16.44,0,0,1,4.78,3l-5.76,5A7.49,7.49,0,0,0,77,8.65a6.92,6.92,0,0,0-2.81.57,6.83,6.83,0,0,0-2.23,1.59,7.63,7.63,0,0,0-1.47,2.32,7.13,7.13,0,0,0-.54,2.75,7.22,7.22,0,0,0,.54,2.79A7.47,7.47,0,0,0,71.92,21a7.23,7.23,0,0,0,2.22,1.58,6.46,6.46,0,0,0,2.79.59,6.76,6.76,0,0,0,3.22-.79,8.22,8.22,0,0,0,2.61-2.23L88.7,25a15.55,15.55,0,0,1-5.28,4.23A14.45,14.45,0,0,1,76.93,30.68Z"/>
      <path class="ee2ba1b0-fe9e-438b-92c2-d302f7cc20b1" d="M116.6,19.59a10.25,10.25,0,0,1-.63,3.6,10.37,10.37,0,0,1-1.77,3.06,11.47,11.47,0,0,1-2.68,2.36,13.23,13.23,0,0,1-3.35,1.53,10.64,10.64,0,0,1-1.62.39,9.21,9.21,0,0,1-1.65.15,9,9,0,0,1-1.64-.15,11.3,11.3,0,0,1-1.6-.39,13.23,13.23,0,0,1-3.35-1.53,11.47,11.47,0,0,1-2.68-2.36,10.37,10.37,0,0,1-1.77-3.06,10.25,10.25,0,0,1-.63-3.6V1.88H101V19.12a3.36,3.36,0,0,0,.32,1.46,3.9,3.9,0,0,0,2.11,1.91,4,4,0,0,0,1.46.27,4.1,4.1,0,0,0,1.49-.27,3.9,3.9,0,0,0,2.11-1.91,3.36,3.36,0,0,0,.32-1.46V1.88h7.78Z"/>
      <path class="ee2ba1b0-fe9e-438b-92c2-d302f7cc20b1" d="M141.33,29.81l-4.86-8.64h-4.72l0,8.64h-7.7V1.88h14a5.79,5.79,0,0,1,2,.38,9.73,9.73,0,0,1,2,1A11.9,11.9,0,0,1,144,4.69a9.89,9.89,0,0,1,1.4,1.62,7.74,7.74,0,0,1,1.1,2.43,10.08,10.08,0,0,1,.38,2.64,8.16,8.16,0,0,1-1,3.89,8.76,8.76,0,0,1-2.7,3l6.55,11.52Zm-5.44-21.7h-4.35v6h4.35a3.36,3.36,0,0,0,1.23-.23,3.16,3.16,0,0,0,1.69-1.6,2.68,2.68,0,0,0,.25-1.18,2.71,2.71,0,0,0-.25-1.18,3.37,3.37,0,0,0-.68-.95,3.21,3.21,0,0,0-1-.64A3.17,3.17,0,0,0,135.89,8.11Z"/>
      <path class="ee2ba1b0-fe9e-438b-92c2-d302f7cc20b1" d="M166.31,30.68a23.81,23.81,0,0,1-5.56-.66,27.44,27.44,0,0,1-5.27-1.85,1.36,1.36,0,0,1-.36-.14c-.2-.12-.29-.2-.29-.25a1.46,1.46,0,0,1,.14-.29c.1-.16.22-.37.36-.62s.31-.54.51-.86l.57-1c.41-.67.8-1.3,1.16-1.9s.61-1,.75-1.3a7.43,7.43,0,0,1,.9.43,20.65,20.65,0,0,0,3.91,1.5,16,16,0,0,0,4.16.52c.4,0,.84,0,1.31-.05a5,5,0,0,0,1.28-.27,2.32,2.32,0,0,0,1-.67,2,2,0,0,0,.38-1.28,1.12,1.12,0,0,0-.22-.7,2,2,0,0,0-.54-.54,4.29,4.29,0,0,0-.68-.42,5.32,5.32,0,0,0-.68-.29,9.66,9.66,0,0,0-1.55-.43q-.79-.15-1.59-.33c-.69-.16-1.38-.32-2-.46s-1.32-.32-1.94-.51-1.27-.4-1.86-.63a10.32,10.32,0,0,1-1.63-.81A7,7,0,0,1,156,14.37a8.19,8.19,0,0,1-.92-4.16,8.74,8.74,0,0,1,.2-1.82,8.3,8.3,0,0,1,2.65-4.49,9.85,9.85,0,0,1,2.79-1.7,14.82,14.82,0,0,1,3.22-.86,22.78,22.78,0,0,1,8.85.42A17.5,17.5,0,0,1,177.94,4c-.6,1-1.18,2-1.74,3s-1.14,2-1.71,3a33,33,0,0,0-4.05-1.66,13.48,13.48,0,0,0-4.23-.65q-.54,0-1.14.06a3.35,3.35,0,0,0-1.1.27,2,2,0,0,0-.82.63,1.69,1.69,0,0,0-.33,1.09,1.57,1.57,0,0,0,.22.86,2,2,0,0,0,.92.7,9.59,9.59,0,0,0,1.63.56c.65.17,1.36.33,2.13.49s1.57.34,2.41.55,1.64.47,2.47.74a15.29,15.29,0,0,1,2.34,1,9.28,9.28,0,0,1,2,1.4,6.17,6.17,0,0,1,1.37,1.92,6.57,6.57,0,0,1,.54,1.78,13.58,13.58,0,0,1,.14,1.89,7.81,7.81,0,0,1-4,7.28,12.75,12.75,0,0,1-4.07,1.43A24.82,24.82,0,0,1,166.31,30.68Z"/>
      <path class="ee2ba1b0-fe9e-438b-92c2-d302f7cc20b1" d="M199.4,30.68a14.75,14.75,0,0,1-5.8-1.15,14.83,14.83,0,0,1-7.9-7.85,14.33,14.33,0,0,1-1.17-5.76,14.33,14.33,0,0,1,1.17-5.76,14.76,14.76,0,0,1,3.19-4.7,15.2,15.2,0,0,1,4.71-3.17,14.91,14.91,0,0,1,11.58,0,15.29,15.29,0,0,1,4.73,3.17,15.09,15.09,0,0,1,3.19,4.7,14.76,14.76,0,0,1,0,11.52,14.77,14.77,0,0,1-7.92,7.85A14.83,14.83,0,0,1,199.4,30.68Zm0-22.43a6.87,6.87,0,0,0-2.94.63,7.53,7.53,0,0,0-2.32,1.67,7.91,7.91,0,0,0-1.53,8.28,7.59,7.59,0,0,0,1.53,2.45A7.39,7.39,0,0,0,196.46,23a7.15,7.15,0,0,0,5.87,0,7.28,7.28,0,0,0,2.32-1.68,8,8,0,0,0,2.09-5.36,7.69,7.69,0,0,0-.56-2.94,7.83,7.83,0,0,0-1.53-2.43,7.41,7.41,0,0,0-2.32-1.67A6.85,6.85,0,0,0,199.4,8.25Z"/>
      <path class="ee2ba1b0-fe9e-438b-92c2-d302f7cc20b1" d="M231,30.68a23.81,23.81,0,0,1-5.56-.66,27,27,0,0,1-5.27-1.85,1.36,1.36,0,0,1-.36-.14c-.2-.12-.29-.2-.29-.25a1,1,0,0,1,.14-.29c.1-.16.22-.37.36-.62s.31-.54.51-.86l.57-1,1.15-1.9c.36-.6.62-1,.76-1.3a7.43,7.43,0,0,1,.9.43,20.65,20.65,0,0,0,3.91,1.5,15.94,15.94,0,0,0,4.15.52c.41,0,.85,0,1.32-.05a5.1,5.1,0,0,0,1.28-.27,2.32,2.32,0,0,0,.95-.67,2,2,0,0,0,.38-1.28,1.12,1.12,0,0,0-.22-.7,2,2,0,0,0-.54-.54,4.79,4.79,0,0,0-.68-.42,4.87,4.87,0,0,0-.69-.29,9.12,9.12,0,0,0-1.55-.43l-1.58-.33c-.7-.16-1.38-.32-2.05-.46s-1.32-.32-1.94-.51-1.27-.4-1.86-.63a10.43,10.43,0,0,1-1.64-.81,7,7,0,0,1-2.46-2.51,8.19,8.19,0,0,1-.92-4.16,8.12,8.12,0,0,1,.2-1.82,8,8,0,0,1,.59-1.75,8.19,8.19,0,0,1,2.05-2.74,10,10,0,0,1,2.79-1.7,15,15,0,0,1,3.22-.86,22.75,22.75,0,0,1,3.39-.25,22.44,22.44,0,0,1,5.47.67A17.5,17.5,0,0,1,242.67,4c-.6,1-1.18,2-1.75,3l-1.71,3a31.79,31.79,0,0,0-4.05-1.66,13.44,13.44,0,0,0-4.23-.65,11.28,11.28,0,0,0-1.13.06,3.29,3.29,0,0,0-1.1.27,2,2,0,0,0-.83.63,1.74,1.74,0,0,0-.32,1.09,1.66,1.66,0,0,0,.21.86,2,2,0,0,0,.92.7,9.73,9.73,0,0,0,1.64.56c.65.17,1.36.33,2.13.49s1.57.34,2.41.55,1.64.47,2.46.74a14.48,14.48,0,0,1,2.34,1,9,9,0,0,1,2,1.4A5.86,5.86,0,0,1,243,17.88a5.94,5.94,0,0,1,.54,1.78,12.23,12.23,0,0,1,.15,1.89A8.28,8.28,0,0,1,242.56,26a8.19,8.19,0,0,1-2.91,2.79,12.84,12.84,0,0,1-4.07,1.43A24.91,24.91,0,0,1,231,30.68Z"/>
    </g>
  </g>
</svg>
