<?xml version="1.0" encoding="utf-8"?>
<!-- Generator: Adobe Illustrator 24.0.3, SVG Export Plug-In . SVG Version: 6.00 Build 0)  -->
<svg version="1.1" id="Layer_1" xmlns="http://www.w3.org/2000/svg" xmlns:xlink="http://www.w3.org/1999/xlink" x="0px" y="0px"
	 viewBox="0 0 186.2 48.9" style="enable-background:new 0 0 186.2 48.9;" xml:space="preserve">
<style type="text/css">
	.st0{fill:#FFFFFF;}
	.st1{fill-rule:evenodd;clip-rule:evenodd;fill:#FFFFFF;}
</style>
<title>Recurso 2</title>
<path class="st0" d="M14.1,46.8l0.2,0.1c2.6,1.1,5.4,1.8,8.3,1.9c2,0.1,4-0.1,6-0.6c5.2-1.2,9.7-4.2,12.9-8.4
	c3.2-4.1,5-9.1,5.2-14.3c0.1-1.8-0.1-3.7-0.4-5.5c-0.7-3.8-2.3-7.5-4.6-10.6c-0.2-0.3-0.3-0.2-0.5,0c-1.4,1.7-2.9,3.3-4.4,4.9
	c-3.7,3.9-7.6,7.6-11.5,11.2c-2.8,2.5-5.7,5-8.6,7.4c-3.3,2.8-6.9,5.3-10.7,7.5c-0.2,0.1-0.2,0.2,0,0.4c0.3,0.3,0.6,0.6,0.9,1
	c0.2,0.3,0.4,0.2,0.6,0.1c3.8-2.5,7.6-5.1,11.2-7.9c6-4.6,11.8-9.6,17.4-14.8c0.8-0.8,1.6-1.6,2.4-2.4c0.2-0.3,0.6-0.4,1-0.2
	c0,0,0,0,0,0c0.3,0.2,0.5,0.5,0.4,0.8c-0.1,0.2-0.2,0.4-0.4,0.6c-2.3,2.8-4.8,5.5-7.4,8.1c-3.9,3.9-8,7.7-12.3,11.2
	c-2.7,2.3-5.6,4.4-8.6,6.4c-0.4,0.3-0.9,0.5-1.3,0.8l1.2,0.8c0.1,0.1,0.2,0.1,0.3,0c1.3-0.9,2.6-1.7,3.9-2.6c3.5-2.4,7-5,10.2-7.8
	c2-1.7,4-3.4,6-5.2c1.3-1.2,2.6-2.4,3.8-3.7c0.2-0.3,0.6-0.3,0.9-0.1c0.3,0.2,0.4,0.5,0.3,0.9c-0.1,0.2-0.2,0.4-0.3,0.5
	c-1.2,1.5-2.5,2.9-3.9,4.4c-2.3,2.4-4.7,4.7-7.2,6.9c-2.5,2.2-5,4.3-7.7,6.3C16.4,45.4,15.3,46.1,14.1,46.8"/>
<path class="st1" d="M23.8,0c0.1,0.2,0.2,0.1,0.4,0.1c3.6,0.1,7.2,1.1,10.3,2.9c2.1,1.2,4.1,2.7,5.8,4.5c0.2,0.2,0.3,0.4,0,0.7
	c-2.7,2.6-5.4,5.1-8.2,7.6c-3.1,2.7-6.2,5.4-9.4,8c-4.8,3.9-9.7,7.6-14.8,11l-3.7,2.5c-0.5,0.3-0.5,0.3-0.8-0.2
	c-1.7-2.8-2.8-6-3.2-9.3C-0.7,21.2,1,14.5,5.1,9.2c3.3-4.4,8-7.4,13.3-8.6c1.4-0.3,2.8-0.5,4.2-0.5c0.1,0,0.2,0.1,0.2-0.1L23.8,0z"
	/>
<path class="st1" d="M14.1,46.8c1.2-0.7,2.3-1.4,3.5-2.2c2.7-2,5.2-4.1,7.7-6.3s4.9-4.5,7.2-6.9c1.3-1.4,2.6-2.9,3.9-4.4
	c0.1-0.1,0.2-0.3,0.3-0.5c0.1-0.3,0-0.7-0.3-0.9c-0.3-0.2-0.7-0.1-0.9,0.1c-1.2,1.3-2.5,2.5-3.8,3.7c-2,1.8-4,3.5-6,5.2
	c-3.3,2.8-6.7,5.4-10.2,7.8c-1.3,0.9-2.6,1.7-3.9,2.6c-0.1,0.1-0.2,0.1-0.3,0l-1.2-0.8c0.5-0.3,0.9-0.5,1.3-0.8
	c3-1.9,5.9-4.1,8.6-6.4c4.3-3.5,8.4-7.2,12.3-11.2c2.6-2.6,5-5.3,7.4-8.1c0.2-0.2,0.3-0.4,0.4-0.6c0.1-0.3-0.1-0.7-0.4-0.8
	c-0.3-0.2-0.8-0.1-1,0.2c0,0,0,0,0,0c-0.8,0.9-1.6,1.6-2.4,2.4C30.5,24.4,24.8,29.3,18.7,34c-3.6,2.8-7.4,5.4-11.2,7.8
	C7.3,42,7.1,42,6.9,41.8c-0.3-0.4-0.6-0.7-0.9-1c-0.1-0.1-0.2-0.2,0-0.4c3.8-2.2,7.4-4.6,10.7-7.4c3-2.4,5.8-4.9,8.6-7.4
	c4-3.6,7.8-7.3,11.5-11.2c1.5-1.6,3-3.2,4.4-4.9c0.2-0.2,0.3-0.3,0.5,0c2.3,3.1,3.9,6.8,4.5,10.6c0.3,1.8,0.4,3.7,0.4,5.5
	c-0.2,5.2-2,10.2-5.2,14.3c-3.2,4.2-7.8,7.2-13,8.4c-2,0.5-4,0.7-6,0.6c-2.9-0.1-5.7-0.8-8.3-1.9L14.1,46.8"/>
<path class="st0" d="M63.6,16.4C63,15.5,61.9,15,60.9,15c-1.8,0-3.2,1.5-3.2,3.3c0,0.1,0,0.1,0,0.2c-0.1,1.8,1.2,3.3,3,3.4
	c0.1,0,0.2,0,0.3,0c1,0,2-0.5,2.7-1.3v3.9c-0.9,0.3-1.8,0.5-2.8,0.6c-1.7,0-3.3-0.7-4.5-1.8c-1.3-1.2-2-2.9-1.9-4.7
	c0-1.7,0.6-3.3,1.8-4.6c1.2-1.3,2.8-2,4.5-2c1,0,1.9,0.2,2.8,0.6L63.6,16.4z"/>
<path class="st0" d="M78.8,18.2c0,3.7-3,6.6-6.6,6.6s-6.6-3-6.6-6.6c0,0,0,0,0,0c0-3.7,3-6.6,6.6-6.6C75.8,11.6,78.8,14.6,78.8,18.2
	 M68.8,18.2c-0.2,1.9,1.1,3.5,3,3.7c1.9,0.2,3.5-1.1,3.7-3c0-0.2,0-0.5,0-0.7c0-1.9-1.5-3.4-3.4-3.4C70.3,14.8,68.8,16.3,68.8,18.2"
	/>
<path class="st0" d="M93.5,18.2c0,3.7-3,6.6-6.6,6.6s-6.6-3-6.6-6.6c0,0,0,0,0,0c0-3.7,3-6.6,6.6-6.6C90.5,11.6,93.5,14.6,93.5,18.2
	 M83.5,18.2c-0.2,1.9,1.1,3.5,3,3.7c1.9,0.2,3.5-1.1,3.7-3c0-0.2,0-0.5,0-0.7c0-1.9-1.5-3.4-3.4-3.4C85,14.8,83.5,16.3,83.5,18.2"/>
<path class="st0" d="M95.6,12.2h4.8c2.6,0,4.3,1.2,4.3,4.1s-1.5,4.2-4.2,4.2h-1.8v4.1h-3.1V12.2z M98.7,17.9h0.5
	c1.1,0,2.2,0,2.2-1.5s-1-1.6-2.2-1.6h-0.5V17.9z"/>
<polygon class="st0" points="109.8,14.9 109.8,17 113.3,17 113.3,19.8 109.8,19.8 109.8,21.9 113.5,21.9 113.5,24.7 106.7,24.7 
	106.7,12.2 113.5,12.2 113.5,14.9 "/>
<path class="st0" d="M126,24.7h-3.9l-2.9-4.8l0,0v4.8h-3.1V12.2h4.7c2.4,0,4.2,1.2,4.2,3.8c0.1,1.7-1,3.2-2.6,3.5L126,24.7z
	 M119.2,17.8h0.3c1,0,2.2-0.2,2.2-1.6s-1.2-1.6-2.2-1.6h-0.3V17.8z"/>
<path class="st0" d="M130.5,22.5l-0.8,2.2h-3.3l4.6-12.5h3.4l4.5,12.5h-3.3l-0.8-2.2H130.5z M132.7,16L132.7,16l-1.3,4h2.6L132.7,16
	z"/>
<path class="st0" d="M149.4,16.4c-0.6-0.9-1.6-1.4-2.7-1.4c-1.8,0-3.2,1.5-3.2,3.2c0,0.1,0,0.1,0,0.2c-0.1,1.8,1.2,3.3,3,3.4
	c0.1,0,0.2,0,0.3,0c1,0,2-0.5,2.7-1.3v3.9c-0.9,0.3-1.8,0.5-2.7,0.6c-1.7,0-3.3-0.7-4.5-1.8c-1.3-1.2-2-2.9-1.9-4.7
	c0-1.7,0.6-3.3,1.8-4.5c1.2-1.3,2.8-2,4.6-2c1,0,1.9,0.2,2.8,0.6L149.4,16.4z"/>
<rect x="153.2" y="12.2" class="st0" width="3.1" height="12.5"/>
<path class="st0" d="M171.9,18.2c0,4-2.8,6.9-6.6,6.9c-3.6,0.1-6.6-2.8-6.6-6.4c0-0.2,0-0.3,0-0.5c0.1-3.7,3.2-6.5,6.9-6.4
	C169,12,171.8,14.8,171.9,18.2 M161.9,18.2c-0.2,1.9,1.1,3.5,3,3.7c1.9,0.2,3.5-1.1,3.7-3c0-0.2,0-0.5,0-0.7c0-1.9-1.5-3.4-3.4-3.4
	C163.4,14.8,161.9,16.3,161.9,18.2 M164.6,10.9l-1.3-1l2.2-2.8l1.8,1.3L164.6,10.9z"/>
<polygon class="st0" points="173,12.2 176.1,12.2 181.9,19.8 181.9,19.8 181.9,12.2 185,12.2 185,24.7 181.9,24.7 176.2,17 
	176.1,17 176.1,24.7 173,24.7 "/>
<rect x="55.2" y="26.5" class="st0" width="1.3" height="12.5"/>
<polygon class="st0" points="59.7,26 69,36.2 69,26.5 70.3,26.5 70.3,39.6 61,29.4 61,39 59.7,39 "/>
<polygon class="st0" points="76.6,39 75.3,39 75.3,27.8 72.4,27.8 72.4,26.5 79.5,26.5 79.5,27.8 76.6,27.8 "/>
<polygon class="st0" points="81.5,26.5 87.7,26.5 87.7,27.8 82.8,27.8 82.8,31.5 87.6,31.5 87.6,32.8 82.8,32.8 82.8,37.7 
	87.7,37.7 87.7,39 81.5,39 "/>
<path class="st0" d="M91.9,39h-1.3V26.5h1.7c2.3,0,4.4,0.6,4.4,3.4c0.1,1.8-1.2,3.3-3,3.4c0,0,0,0,0,0l3.8,5.6h-1.6l-3.6-5.5h-0.3
	L91.9,39z M91.9,32.3h0.4c1.5,0,3-0.3,3-2.2s-1.4-2.2-3-2.2h-0.4L91.9,32.3z"/>
<polygon class="st0" points="99.9,26 109.2,36.2 109.2,26.5 110.5,26.5 110.5,39.6 101.2,29.4 101.2,39 99.9,39 "/>
<path class="st0" d="M115.4,35.5L114,39h-1.4l5.5-13.1l5.4,13.1H122l-1.4-3.5H115.4z M118,29.2l-2,5h4L118,29.2z"/>
<path class="st0" d="M134.5,29.3c-2-1.9-5.2-1.8-7.1,0.3s-1.8,5.2,0.3,7.1c0.9,0.8,2,1.3,3.2,1.3c1.4,0,2.7-0.6,3.6-1.7V38
	c-1,0.8-2.3,1.2-3.6,1.2c-3.6,0-6.4-2.9-6.4-6.5s2.9-6.4,6.4-6.4c1.3,0,2.5,0.4,3.6,1.2V29.3z"/>
<rect x="137.4" y="26.5" class="st0" width="1.3" height="12.5"/>
<path class="st0" d="M153.6,32.8c-0.1,3.4-3,6.1-6.5,6c-3.4-0.1-6.1-3-6-6.5c0.1-3.4,2.9-6,6.2-6C150.9,26.4,153.7,29.3,153.6,32.8
	C153.6,32.8,153.6,32.8,153.6,32.8 M142.5,32.8c0.1,2.7,2.4,4.8,5.2,4.7c2.7-0.1,4.8-2.4,4.7-5.2c-0.1-2.6-2.3-4.7-4.9-4.7
	C144.6,27.7,142.4,30,142.5,32.8"/>
<polygon class="st0" points="156.1,26 165.4,36.2 165.4,26.5 166.8,26.5 166.8,39.6 157.5,29.4 157.5,39 156.1,39 "/>
<path class="st0" d="M171.7,35.5l-1.4,3.5h-1.4l5.5-13.1l5.4,13.1h-1.5l-1.4-3.5H171.7z M174.3,29.2l-2,5h4L174.3,29.2z"/>
<polygon class="st0" points="182.9,37.7 186.2,37.7 186.2,39 181.6,39 181.6,26.5 182.9,26.5 "/>
</svg>
